<svg width="574" height="559" viewBox="0 0 574 559" fill="none" xmlns="http://www.w3.org/2000/svg">
<path fill-rule="evenodd" clip-rule="evenodd" d="M327.173 6.39714C377.072 -11.8316 435.514 11.7985 480.014 40.8039C523.67 69.2591 556.562 114.785 570.474 164.982C583.283 211.2 557.374 257.575 553.337 305.362C549.698 348.428 563.936 392.571 547.857 432.692C530.762 475.35 500.666 513.767 460.707 536.501C420.835 559.185 373.001 560.426 327.173 558.245C282.828 556.135 243.405 536.553 200.785 524.131C144.641 507.769 56.9046 527.952 35.9739 473.378C13.3295 414.336 122.083 368.378 116.881 305.362C110.88 232.679 -32.5797 181.91 6.84635 120.54C47.3552 57.4844 156.978 158.179 227.603 133.012C279.074 114.672 275.85 25.146 327.173 6.39714Z" fill="#00B398" fill-opacity="0.3"/>
<path d="M471.151 336.067L462.673 329.134C462.673 329.134 460.869 305.082 466.474 284.605C474.369 255.823 490.569 245.077 500.494 249.98C507.536 253.447 510.02 264.247 495.094 279.724C486.217 288.85 473.937 308.851 471.151 336.067Z" fill="#FCC89B"/>
<path opacity="0.3" d="M471.151 336.067L462.673 329.134C462.673 329.134 460.869 305.082 466.474 284.605C474.369 255.823 490.569 245.077 500.494 249.98C507.536 253.447 510.02 264.247 495.094 279.724C486.217 288.85 473.937 308.851 471.151 336.067Z" fill="black"/>
<path d="M467.943 320.504H468.03C468.116 320.503 468.202 320.485 468.281 320.45C468.36 320.416 468.432 320.366 468.492 320.304C468.552 320.242 468.6 320.168 468.632 320.088C468.663 320.007 468.679 319.921 468.678 319.835C467.943 291.982 483.495 266.72 497.244 255.996C497.379 255.886 497.466 255.727 497.487 255.554C497.507 255.38 497.458 255.206 497.352 255.067C497.299 254.999 497.233 254.942 497.158 254.9C497.083 254.858 497.001 254.831 496.915 254.821C496.83 254.811 496.743 254.818 496.661 254.842C496.578 254.865 496.501 254.905 496.434 254.959C482.394 265.889 466.615 291.604 467.36 319.867C467.364 320.026 467.425 320.178 467.533 320.295C467.64 320.412 467.786 320.486 467.943 320.504Z" fill="white"/>
<path d="M488.301 358.326C494.133 356.425 495.462 353.077 496.466 348.919C496.768 347.524 496.973 346.109 497.082 344.686L497.503 340.495C497.541 339.109 497.865 337.745 498.453 336.488C499.803 334.048 502.773 333.151 505.495 332.428C508.465 331.628 511.759 330.268 512.968 327.211C513.756 324.744 513.702 322.085 512.817 319.651C512.083 317.189 510.992 314.834 510.441 312.329C509.938 310.541 510.064 308.635 510.798 306.929C511.361 305.923 512.121 305.042 513.033 304.337C515.323 302.436 518.023 300.967 519.643 298.375C520.277 297.427 520.65 296.328 520.723 295.189C520.863 291.776 518.109 290.221 515.463 289.368C513.622 288.887 511.699 288.81 509.826 289.141C503.832 289.919 498.712 294.617 492.675 294.649C490.342 294.649 488.064 293.958 485.752 293.688C483.441 293.418 480.871 293.623 479.132 295.178C475.698 298.235 477.382 304.358 474.423 307.879C472.263 310.46 468.85 310.838 466.118 312.545C462.945 314.397 460.525 317.306 459.282 320.764C457.758 324.61 457.284 328.792 457.91 332.881C459.249 341.402 465.362 346.403 471.237 351.943C473.721 354.308 482.48 360.238 488.301 358.326Z" fill="#FCC89B"/>
<path opacity="0.1" d="M488.301 358.326C494.133 356.425 495.462 353.077 496.466 348.919C496.768 347.524 496.973 346.109 497.082 344.686L497.503 340.495C497.541 339.109 497.865 337.745 498.453 336.488C499.803 334.048 502.773 333.151 505.495 332.428C508.465 331.628 511.759 330.268 512.968 327.211C513.756 324.744 513.702 322.085 512.817 319.651C512.083 317.189 510.992 314.834 510.441 312.329C509.938 310.541 510.064 308.635 510.798 306.929C511.361 305.923 512.121 305.042 513.033 304.337C515.323 302.436 518.023 300.967 519.643 298.375C520.277 297.427 520.65 296.328 520.723 295.189C520.863 291.776 518.109 290.221 515.463 289.368C513.622 288.887 511.699 288.81 509.826 289.141C503.832 289.919 498.712 294.617 492.675 294.649C490.342 294.649 488.064 293.958 485.752 293.688C483.441 293.418 480.871 293.623 479.132 295.178C475.698 298.235 477.382 304.358 474.423 307.879C472.263 310.46 468.85 310.838 466.118 312.545C462.945 314.397 460.525 317.306 459.282 320.764C457.758 324.61 457.284 328.792 457.91 332.881C459.249 341.402 465.362 346.403 471.237 351.943C473.721 354.308 482.48 360.238 488.301 358.326Z" fill="black"/>
<path d="M512.115 293.85C512.084 293.769 512.038 293.695 511.978 293.632C511.918 293.569 511.847 293.519 511.767 293.484C511.688 293.449 511.603 293.43 511.516 293.428C511.429 293.426 511.343 293.441 511.262 293.472C504.393 296.172 493.734 305.158 484.359 317.232C484.285 317.27 484.22 317.324 484.168 317.389C484.116 317.454 484.078 317.529 484.057 317.61C477.38 326.087 472.08 335.563 468.354 345.69C468.297 345.851 468.305 346.027 468.375 346.182C468.446 346.337 468.573 346.459 468.732 346.522C468.897 346.578 469.077 346.567 469.234 346.493C469.391 346.418 469.513 346.285 469.574 346.122C473.244 336.159 478.447 326.831 484.997 318.474C491.245 319.205 497.399 320.591 503.357 322.61C503.439 322.639 503.526 322.652 503.613 322.647C503.7 322.642 503.785 322.619 503.863 322.581C503.942 322.543 504.012 322.49 504.069 322.424C504.127 322.359 504.171 322.283 504.199 322.2C504.229 322.119 504.243 322.032 504.238 321.945C504.234 321.858 504.212 321.774 504.173 321.696C504.135 321.618 504.081 321.549 504.015 321.492C503.949 321.436 503.872 321.394 503.789 321.368C498.001 319.406 492.031 318.027 485.969 317.254C495.03 305.795 505.16 297.306 511.737 294.725C511.82 294.693 511.895 294.644 511.959 294.583C512.023 294.521 512.074 294.448 512.109 294.366C512.144 294.285 512.163 294.197 512.164 294.109C512.165 294.02 512.149 293.932 512.115 293.85Z" fill="white"/>
<path d="M121.555 329.425C122.257 314.305 123.888 300.114 116.922 278.32C111.068 260.046 93.6799 241.459 82.4371 241.859C71.9935 242.237 65.7728 253.739 78.2575 266.699C80.9036 269.442 106.521 291.539 107.709 316.638L110.452 331.142C110.536 331.545 110.712 331.924 110.965 332.248C111.218 332.573 111.542 332.835 111.912 333.014C112.283 333.194 112.69 333.286 113.101 333.283C113.513 333.281 113.918 333.184 114.286 333L121.555 329.425Z" fill="#FCC89B"/>
<path opacity="0.3" d="M121.555 329.425C122.257 314.305 123.888 300.114 116.922 278.32C111.068 260.046 93.6799 241.459 82.4371 241.859C71.9935 242.237 65.7728 253.739 78.2575 266.699C80.9036 269.442 106.521 291.539 107.709 316.638L110.452 331.142C110.536 331.545 110.712 331.924 110.965 332.248C111.218 332.573 111.542 332.835 111.912 333.014C112.283 333.194 112.69 333.286 113.101 333.283C113.513 333.281 113.918 333.184 114.286 333L121.555 329.425Z" fill="black"/>
<path d="M117.44 328.399C117.3 328.36 117.176 328.277 117.087 328.162C116.997 328.048 116.947 327.907 116.943 327.762C116.446 289.325 102.655 262.4 81.9619 250.11C81.8766 250.071 81.8005 250.014 81.7385 249.944C81.6765 249.873 81.6301 249.79 81.6021 249.701C81.5742 249.611 81.5655 249.517 81.5764 249.423C81.5874 249.33 81.6179 249.24 81.6658 249.159C81.7138 249.079 81.7782 249.009 81.8549 248.955C81.9315 248.901 82.0187 248.863 82.1108 248.845C82.2029 248.826 82.2978 248.828 82.3894 248.848C82.481 248.869 82.5671 248.909 82.6423 248.965C103.605 261.407 117.775 288.828 118.282 327.74C118.285 327.829 118.27 327.917 118.239 327.999C118.207 328.082 118.159 328.157 118.097 328.22C118.036 328.284 117.962 328.334 117.881 328.369C117.799 328.403 117.712 328.421 117.624 328.421C117.562 328.424 117.499 328.417 117.44 328.399Z" fill="white"/>
<path d="M112.602 333.821C111.99 334.136 111.318 334.318 110.631 334.355C109.944 334.392 109.257 334.282 108.616 334.034C107.974 333.786 107.392 333.405 106.908 332.916C106.424 332.427 106.049 331.841 105.808 331.196C102.962 324.354 98.7845 318.147 93.518 312.934C83.96 303.16 70.6544 296.939 68.5808 290.383C66.0968 282.499 73.1168 278.568 84.4244 281.387C98 284.767 112.666 300.935 114.2 333L112.602 333.821Z" fill="#FCC89B"/>
<path opacity="0.1" d="M112.602 333.821C111.99 334.136 111.318 334.318 110.631 334.355C109.944 334.392 109.257 334.282 108.616 334.034C107.974 333.786 107.392 333.405 106.908 332.916C106.424 332.427 106.049 331.841 105.808 331.196C102.962 324.354 98.7845 318.147 93.518 312.934C83.96 303.16 70.6544 296.939 68.5808 290.383C66.0968 282.499 73.1168 278.568 84.4244 281.387C98 284.767 112.666 300.935 114.2 333L112.602 333.821Z" fill="black"/>
<path d="M110.42 331.769C110.295 331.732 110.184 331.661 110.098 331.563C110.012 331.466 109.955 331.346 109.934 331.218C105.614 303.084 87.3512 289.962 78.29 286.938C78.123 286.881 77.9851 286.761 77.9063 286.603C77.8274 286.446 77.8139 286.263 77.8688 286.096C77.8945 286.011 77.9369 285.933 77.9936 285.865C78.0502 285.797 78.1199 285.741 78.1985 285.701C78.2771 285.661 78.3629 285.637 78.451 285.63C78.5391 285.624 78.6276 285.635 78.7112 285.664C88.7336 289.001 106.867 302.296 111.262 331.024C111.276 331.111 111.273 331.2 111.252 331.286C111.231 331.372 111.193 331.453 111.141 331.524C111.089 331.595 111.023 331.655 110.948 331.701C110.872 331.747 110.788 331.777 110.701 331.79C110.607 331.8 110.512 331.792 110.42 331.769Z" fill="white"/>
<path d="M468.278 295.535C473.019 309.694 477.091 327.935 483.506 355.518C489.511 381.33 489.543 399.56 481.206 405.814C473.084 411.894 448.914 408.254 433.772 376.006C429.031 365.929 409.882 333.032 409.882 333.032C405.069 331.987 400.406 330.34 396.004 328.129L343.754 330.7C322.37 326.326 286.417 321.228 289.128 313.42C292 305.082 303.772 298.472 315.523 294.358C341.216 285.372 359.673 283.309 385.863 281.624L468.278 295.535Z" fill="#37474F"/>
<path d="M394.654 318.96C387.656 307.868 387.537 301.421 387.537 301.421C387.537 301.421 386.068 315.18 392.797 324.738L346.821 330.516L396.004 328.097C400.403 330.307 405.062 331.954 409.872 333C409.872 333 401.664 330.084 394.654 318.96Z" fill="#263238"/>
<path d="M382.656 357.948C386.252 360.659 390.658 363.143 394.654 363.683C396.104 363.881 397.579 363.755 398.974 363.316C403.813 361.858 411.708 361.156 415.336 370.757C419.451 381.632 432.379 385.877 436.386 393.167C438.384 396.85 440.22 407.822 439.194 414.767C438.34 420.458 427.195 417.262 422.605 410.825C418.015 404.388 408.619 396.18 402.56 391.504C392.916 387.184 382.04 380.455 377.418 377.788L382.656 357.948Z" fill="#874C4C"/>
<path d="M311.7 301.032C283.62 305.417 284.7 322.016 292.735 332.73C301.429 344.275 330.772 358.315 346.584 365.648C361.12 372.398 387.429 383.663 387.429 383.663C387.267 376.336 389.843 369.211 394.654 363.683C378.044 354.146 360.602 324.166 334.12 322.146L311.7 301.032Z" fill="#37474F"/>
<path d="M435.198 418.558C436.848 418.659 438.474 418.126 439.744 417.067C440.932 416.063 442.984 407.941 439.852 398.588C437.479 391.659 433.295 385.492 427.735 380.725C424.365 377.734 422.907 374.072 421.384 369.428C419.862 364.784 415.866 359.212 413.382 358.769C410.898 358.326 407.42 360.518 407.42 360.518L435.198 418.558Z" fill="#263238"/>
<path d="M394.924 388.08C395.788 391.05 398.348 391.601 401.134 392.4C404.914 393.534 408.694 397.001 412.41 400.932C414.904 403.589 417.021 406.332 419.311 409.129C421.6 411.926 423.717 416.117 426.126 418.223C429.646 421.29 436.105 420.091 437.466 415.166C438.643 410.922 438.416 400.64 432.843 391.266C429.808 386.158 422.281 381.546 419.786 374.494C418.112 369.742 415.909 364.093 411.999 360.724C409.688 358.726 407.787 359.428 405.195 360.41C401.753 361.71 398.232 362.793 394.654 363.65C394.996 366.659 396.162 369.514 398.024 371.902C398.733 372.648 399.278 373.535 399.622 374.504C399.747 375.194 399.747 375.9 399.622 376.589C399.504 377.539 399.255 378.684 398.348 379.019C397.972 379.112 397.589 379.177 397.203 379.213C395.767 379.537 395.216 381.254 394.968 382.712C394.624 384.277 394.566 385.89 394.795 387.475C394.826 387.679 394.869 387.881 394.924 388.08Z" fill="#FCC89B"/>
<path opacity="0.4" d="M394.924 388.08C395.788 391.05 398.348 391.601 401.134 392.4C404.914 393.534 408.694 397.001 412.41 400.932C414.904 403.589 417.021 406.332 419.311 409.129C421.6 411.926 423.717 416.117 426.126 418.223C429.646 421.29 436.105 420.091 437.466 415.166C438.643 410.922 438.416 400.64 432.843 391.266C429.808 386.158 422.281 381.546 419.786 374.494C418.112 369.742 415.909 364.093 411.999 360.724C409.688 358.726 407.787 359.428 405.195 360.41C401.753 361.71 398.232 362.793 394.654 363.65C394.996 366.659 396.162 369.514 398.024 371.902C398.733 372.648 399.278 373.535 399.622 374.504C399.747 375.194 399.747 375.9 399.622 376.589C399.504 377.539 399.255 378.684 398.348 379.019C397.972 379.112 397.589 379.177 397.203 379.213C395.767 379.537 395.216 381.254 394.968 382.712C394.624 384.277 394.566 385.89 394.795 387.475C394.826 387.679 394.869 387.881 394.924 388.08Z" fill="black"/>
<path d="M408.759 397.368C408.037 397.205 407.367 396.863 406.811 396.374C406.254 395.886 405.829 395.266 405.573 394.571C404.623 392.573 405.184 388.458 406.47 385.65C406.589 385.385 406.772 385.153 407.001 384.974C407.231 384.796 407.501 384.676 407.788 384.626C408.074 384.576 408.369 384.597 408.645 384.687C408.922 384.777 409.172 384.933 409.375 385.142C409.627 385.407 409.792 385.743 409.846 386.104C409.9 386.466 409.841 386.835 409.677 387.162C408.055 390.315 407.726 393.976 408.759 397.368Z" fill="#F5F5F5"/>
<path d="M414.127 402.898C413.36 402.614 412.674 402.15 412.125 401.544C411.576 400.939 411.181 400.21 410.973 399.42C410.973 399.42 409.677 393.901 411.934 389.7C412.052 389.446 412.23 389.224 412.451 389.054C412.673 388.883 412.933 388.768 413.209 388.719C413.485 388.671 413.768 388.689 414.035 388.773C414.302 388.858 414.545 389.005 414.742 389.203C414.988 389.456 415.147 389.781 415.198 390.13C415.248 390.479 415.187 390.835 415.023 391.147C414.008 392.915 413.4 394.888 413.245 396.921C413.09 398.954 413.391 400.996 414.127 402.898Z" fill="#F5F5F5"/>
<path d="M419.311 409.205C418.578 408.839 417.933 408.319 417.419 407.682C416.904 407.045 416.533 406.305 416.33 405.511C416.33 405.511 415.164 400.36 417.41 396.126C417.528 395.872 417.705 395.65 417.927 395.479C418.149 395.309 418.409 395.194 418.685 395.145C418.96 395.097 419.244 395.115 419.511 395.199C419.778 395.284 420.02 395.431 420.218 395.629C420.46 395.886 420.617 396.212 420.668 396.562C420.718 396.912 420.659 397.269 420.499 397.584C419.405 399.293 418.728 401.235 418.521 403.253C418.315 405.271 418.585 407.31 419.311 409.205Z" fill="#F5F5F5"/>
<path d="M385.01 352.073C379.977 350.798 372.59 348.995 369.534 344.966C366.477 340.938 360.148 337.05 351.584 342.688C346.184 346.252 339.704 347.429 333.3 347.85C330.535 348.034 327.424 347.688 324.724 348.25C321.484 348.93 318.039 350.917 315.242 352.645C313.411 353.671 311.806 355.056 310.522 356.717C309.476 358.274 308.903 360.102 308.872 361.978C308.842 363.854 309.355 365.699 310.35 367.29C310.731 367.932 311.251 368.482 311.871 368.898C312.491 369.315 313.196 369.588 313.935 369.698C316.894 370.346 319.335 369.418 322.165 368.618C324.476 367.981 326.841 367.484 329.217 367.052C334.567 366.051 339.98 365.419 345.417 365.162C347.739 365.065 352.545 364.709 354.867 364.871C364.587 365.54 378.26 370.984 378.26 370.984L385.01 352.073Z" fill="#9E6767"/>
<path d="M485.72 398.47C484.121 408.254 473.138 412.974 449.583 408.265C426.028 403.556 369.976 368.305 369.976 368.305C369.976 368.305 372.136 354.773 385.096 351.133C385.096 351.133 396.814 353.293 415.941 357.419C424.557 359.313 433.068 361.656 441.44 364.439C454.4 381.794 467.813 374.785 472.663 380.887C480.719 391.082 485.72 398.47 485.72 398.47Z" fill="#37474F"/>
<path d="M307.909 367.83C306.514 366.939 305.513 365.548 305.112 363.942C304.744 362.43 307.844 354.632 315.912 348.962C321.92 344.767 328.942 342.258 336.248 341.694C340.73 341.262 344.067 339.167 348.042 336.294C352.016 333.421 358.528 331.315 360.796 332.417C363.064 333.518 364.576 337.352 364.576 337.352L307.909 367.83Z" fill="#263238"/>
<path d="M358.377 367.02C355.926 368.91 353.528 367.852 350.817 366.88C347.091 365.551 341.972 366.113 336.68 367.106C333.094 367.787 329.79 368.726 326.269 369.644C322.748 370.562 318.579 372.701 315.393 372.971C310.749 373.37 306.246 368.597 308.049 363.812C309.604 359.687 315.858 351.522 325.891 347.245C331.356 344.912 340.125 345.668 346.324 341.413C350.482 338.562 355.591 335.311 360.742 334.933C363.788 334.685 364.911 336.37 366.423 338.692C368.439 341.764 370.651 344.704 373.044 347.494C370.998 349.713 368.383 351.331 365.484 352.17C364.469 352.35 363.505 352.744 362.654 353.326C362.151 353.811 361.738 354.382 361.434 355.01C360.969 355.853 360.494 356.911 361.023 357.721C361.277 358.017 361.552 358.295 361.844 358.553C362.816 359.633 362.233 361.382 361.585 362.7C360.932 364.163 360.029 365.5 358.917 366.653C358.701 366.761 358.539 366.901 358.377 367.02Z" fill="#FCC89B"/>
<path opacity="0.4" d="M358.377 367.02C355.926 368.91 353.528 367.852 350.817 366.88C347.091 365.551 341.972 366.113 336.68 367.106C333.094 367.787 329.79 368.726 326.269 369.644C322.748 370.562 318.579 372.701 315.393 372.971C310.749 373.37 306.246 368.597 308.049 363.812C309.604 359.687 315.858 351.522 325.891 347.245C331.356 344.912 340.125 345.668 346.324 341.413C350.482 338.562 355.591 335.311 360.742 334.933C363.788 334.685 364.911 336.37 366.423 338.692C368.439 341.764 370.651 344.704 373.044 347.494C370.998 349.713 368.383 351.331 365.484 352.17C364.469 352.35 363.505 352.744 362.654 353.326C362.151 353.811 361.738 354.382 361.434 355.01C360.969 355.853 360.494 356.911 361.023 357.721C361.277 358.017 361.552 358.295 361.844 358.553C362.816 359.633 362.233 361.382 361.585 362.7C360.932 364.163 360.029 365.5 358.917 366.653C358.701 366.761 358.539 366.901 358.377 367.02Z" fill="black"/>
<path d="M341.756 366.329C342.435 366.624 343.178 366.744 343.916 366.678C344.653 366.612 345.363 366.362 345.979 365.951C347.923 364.871 349.899 361.242 350.515 358.218C350.582 357.931 350.576 357.633 350.499 357.348C350.423 357.064 350.277 356.804 350.074 356.59C349.872 356.376 349.62 356.215 349.341 356.122C349.062 356.03 348.764 356.008 348.474 356.058C348.111 356.122 347.778 356.296 347.519 356.557C347.26 356.819 347.088 357.153 347.026 357.516C346.488 361.029 344.596 364.192 341.756 366.329Z" fill="#F5F5F5"/>
<path d="M334.153 367.625C334.94 367.846 335.768 367.875 336.569 367.71C337.37 367.544 338.119 367.189 338.754 366.674C338.754 366.674 343.074 362.981 343.732 358.24C343.788 357.966 343.776 357.682 343.698 357.413C343.621 357.145 343.48 356.899 343.287 356.696C343.094 356.494 342.855 356.341 342.59 356.251C342.326 356.16 342.043 356.135 341.767 356.177C341.419 356.238 341.099 356.406 340.851 356.657C340.603 356.909 340.44 357.232 340.384 357.581C340.164 359.615 339.49 361.573 338.411 363.312C337.332 365.05 335.877 366.524 334.153 367.625Z" fill="#F5F5F5"/>
<path d="M326.247 369.644C327.054 369.784 327.882 369.749 328.674 369.54C329.466 369.331 330.204 368.954 330.837 368.435C330.837 368.435 334.822 364.968 335.492 360.216C335.547 359.942 335.536 359.658 335.458 359.39C335.38 359.121 335.239 358.875 335.046 358.673C334.853 358.47 334.614 358.317 334.35 358.227C334.085 358.137 333.803 358.111 333.526 358.153C333.178 358.214 332.858 358.382 332.61 358.634C332.362 358.885 332.199 359.208 332.144 359.557C332.014 361.581 331.413 363.547 330.389 365.298C329.365 367.05 327.947 368.538 326.247 369.644Z" fill="#F5F5F5"/>
<path d="M425.132 359.6C425.132 359.6 440.954 362.689 452.683 370.595C452.683 370.595 440.63 356.479 422 353.941L425.132 359.6Z" fill="#263238"/>
<path d="M334.12 322.2C344.575 322.913 352.48 328.237 354.565 329.512L355.645 330.17L361.963 329.857C358.969 327.294 355.576 325.236 351.919 323.766C346.299 321.382 340.07 320.833 334.12 322.2Z" fill="#263238"/>
<path d="M353.884 272.131C366.002 274.464 373.022 274.442 378.8 261.428C386.36 244.332 398.24 216.738 398.24 216.738L404.223 169.985C392.106 168.268 381.284 174.974 374.253 191.585C367.039 208.627 353.172 243.608 353.172 243.608C344.391 242.885 335.546 243.004 326.755 242.377C322.694 242.086 318.979 241.718 315.598 239.202C313.463 237.415 311.223 235.757 308.892 234.234C307.331 233.273 305.686 232.456 303.978 231.793C302.473 231.137 301.067 230.275 299.798 229.234C299.426 228.913 298.968 228.71 298.48 228.65C297.573 228.65 296.936 229.59 296.752 230.486C296.521 231.743 296.695 233.04 297.249 234.191C297.8 235.336 298.553 236.372 299.474 237.247C299.776 237.55 300.111 238.025 299.841 238.327C299.728 238.423 299.591 238.486 299.445 238.511C299.298 238.535 299.148 238.52 299.01 238.468C295.865 237.847 292.76 237.039 289.711 236.048C288.301 235.567 286.763 235.621 285.391 236.2C283.069 237.28 282.594 240.422 282.939 242.971C285.196 259.916 304.15 261.493 317.38 264.366C327.003 266.461 336.626 268.556 346.27 270.565C348.776 271.116 351.325 271.645 353.884 272.131Z" fill="#874C4C"/>
<path d="M406.88 169.132C398.24 169.348 388.693 168.116 379.966 179.932C371.24 191.747 359.155 228.532 359.155 228.532C359.155 228.532 381.619 230.594 386.738 242.874L406.61 204.631L406.88 169.132Z" fill="#FCC89B"/>
<path d="M437.314 169.402C454.432 172.566 465.848 176.26 469.077 179.392C476.356 194.296 466.917 244.3 466.917 244.3L467.23 273.19L468.31 295.535C449.81 311.162 390.075 304.423 379.977 282.521C379.977 282.521 377.396 226.836 379.977 205.571C382.72 182.977 392.937 169.801 412.291 168.667L437.314 169.402Z" fill="#E0E0E0"/>
<path d="M395.151 140.252C408.011 140.252 418.436 129.827 418.436 116.968C418.436 104.108 408.011 93.6828 395.151 93.6828C382.291 93.6828 371.866 104.108 371.866 116.968C371.866 129.827 382.291 140.252 395.151 140.252Z" fill="#263238"/>
<path d="M441.267 128.092C441.267 128.092 439.388 147.154 438.135 150.394C437.28 152.396 435.692 153.995 433.696 154.865L432.519 141.732L441.267 128.092Z" fill="#263238"/>
<path d="M433.318 101.977C434.686 101.66 436.109 101.66 437.477 101.976C438.845 102.293 440.123 102.917 441.213 103.802C444.853 106.772 444.194 117.41 441.213 128.092L433.88 129.787L433.318 101.977Z" fill="#263238"/>
<path d="M431.72 130.036C433.308 130.77 435.122 127.649 436.753 125.51C438.384 123.372 444.118 120.11 447.834 126.061C451.549 132.012 446.689 141.019 442.272 143.341C441.598 143.743 440.852 144.007 440.075 144.116C439.298 144.225 438.508 144.177 437.75 143.976C436.992 143.775 436.282 143.424 435.662 142.944C435.042 142.464 434.524 141.864 434.139 141.181L436.947 171.313C430.111 187.762 398.154 190.332 408.403 172.048L407.571 164.412C403.807 165.333 399.954 165.843 396.08 165.935C392.17 165.881 387.138 162.695 383.563 155.416C378.8 145.62 376.64 135.9 376.845 115.067C377.05 92.2248 404.018 90.1404 419.17 97.4736C434.323 104.807 431.72 130.036 431.72 130.036Z" fill="#9E6767"/>
<path d="M430.716 89.7948C425.518 88.2218 420.16 87.24 414.742 86.868C403.035 85.6584 391.134 84.708 380.107 80.5608C378.802 79.9059 377.332 79.654 375.884 79.8372C373.173 80.5068 372.342 83.9736 372.536 86.76C372.715 89.367 373.34 91.924 374.383 94.32C372.709 92.7216 369.706 93.3048 368.248 95.0976C367.577 96.0464 367.131 97.1358 366.944 98.283C366.756 99.4302 366.833 100.605 367.168 101.718C370.56 115.402 383.995 116.719 394.784 115.445C398.521 115.002 406.362 113.425 409.731 109.3C410.93 112.075 412.914 114.439 415.439 116.101C417.965 117.763 420.921 118.649 423.944 118.652C424.229 122.34 424.924 125.984 426.018 129.517C426.525 131.137 427.346 132.952 428.988 133.384C429.636 133.5 430.304 133.437 430.919 133.201C431.534 132.965 432.072 132.565 432.476 132.044C434.085 130.198 434.906 127.724 436.526 125.791C438.589 123.34 439.064 106.502 439.129 103.392C439.153 103.148 439.238 102.914 439.377 102.712C441.537 98.7804 437.833 92.9916 434.398 91.3392C433.204 90.7486 431.974 90.2329 430.716 89.7948Z" fill="#263238"/>
<path d="M437.973 103.079C438.491 103.606 439.11 104.022 439.793 104.304C440.476 104.586 441.209 104.727 441.948 104.718C442.687 104.71 443.416 104.552 444.093 104.255C444.769 103.957 445.378 103.527 445.884 102.988C446.39 102.449 446.782 101.814 447.036 101.121C447.291 100.427 447.402 99.689 447.364 98.9511C447.326 98.2133 447.14 97.4906 446.816 96.8266C446.492 96.1626 446.037 95.5708 445.479 95.0868L437.973 103.079Z" fill="#263238"/>
<path d="M407.517 164.52C407.517 164.52 418.911 161.064 423.328 158.04C426.277 156.02 428.491 150.318 429.041 148.374C429.18 152.289 428.154 156.156 426.093 159.487C423.037 164.185 408.068 169.488 408.068 169.488L407.517 164.52Z" fill="#874C4C"/>
<path d="M405.476 130.748C405.511 131.145 405.625 131.531 405.809 131.884C405.994 132.237 406.247 132.55 406.553 132.804C406.859 133.059 407.212 133.251 407.593 133.369C407.973 133.487 408.373 133.529 408.77 133.492C409.387 133.449 409.978 133.222 410.465 132.841C410.953 132.46 411.315 131.942 411.505 131.353C411.696 130.764 411.705 130.132 411.533 129.537C411.361 128.943 411.015 128.414 410.539 128.018C410.064 127.622 409.481 127.377 408.865 127.315C408.249 127.254 407.629 127.378 407.085 127.671C406.54 127.965 406.096 128.415 405.809 128.963C405.522 129.512 405.406 130.134 405.476 130.748Z" fill="#263238"/>
<path d="M413.857 121.936L407.798 119.3C407.464 120.129 407.461 121.055 407.791 121.885C408.121 122.716 408.757 123.387 409.569 123.761C409.97 123.93 410.4 124.017 410.835 124.017C411.27 124.016 411.7 123.928 412.1 123.758C412.5 123.587 412.862 123.338 413.164 123.025C413.466 122.712 413.701 122.342 413.857 121.936Z" fill="#263238"/>
<path d="M411.286 146.16L401.869 150.944C402.156 151.581 402.568 152.152 403.082 152.625C403.595 153.098 404.199 153.462 404.856 153.696C405.514 153.93 406.212 154.029 406.908 153.987C407.605 153.944 408.286 153.762 408.91 153.45C410.176 152.782 411.132 151.647 411.575 150.286C412.019 148.926 411.915 147.446 411.286 146.16Z" fill="#874C4C"/>
<path d="M411.405 148.32C410.127 148.323 408.902 148.833 407.999 149.738C407.096 150.643 406.588 151.869 406.588 153.148C406.59 153.434 406.619 153.72 406.675 154.001C407.452 153.992 408.217 153.803 408.91 153.45C409.835 152.973 410.602 152.239 411.119 151.337C411.636 150.434 411.882 149.402 411.826 148.363C411.686 148.385 411.556 148.32 411.405 148.32Z" fill="#F28F8F"/>
<path d="M385.021 120.542L379.545 124.344C379.779 124.709 380.084 125.024 380.441 125.27C380.799 125.515 381.202 125.686 381.627 125.773C382.052 125.859 382.491 125.86 382.916 125.774C383.341 125.688 383.745 125.518 384.103 125.273C384.833 124.752 385.335 123.971 385.506 123.091C385.677 122.211 385.503 121.298 385.021 120.542Z" fill="#263238"/>
<path d="M383.757 132.455C383.845 133.032 384.101 133.571 384.493 134.004C384.885 134.438 385.395 134.746 385.961 134.892C386.526 135.038 387.122 135.014 387.674 134.824C388.227 134.634 388.711 134.285 389.067 133.822C389.423 133.359 389.635 132.802 389.677 132.219C389.719 131.637 389.589 131.055 389.303 130.546C389.017 130.036 388.587 129.622 388.068 129.355C387.549 129.088 386.962 128.979 386.382 129.042C385.985 129.093 385.602 129.221 385.255 129.42C384.908 129.619 384.603 129.885 384.36 130.202C384.116 130.52 383.937 130.882 383.833 131.269C383.73 131.655 383.704 132.058 383.757 132.455Z" fill="#263238"/>
<path d="M397.268 131.062L398.186 147.326L389.427 145.393L397.268 131.062Z" fill="#874C4C"/>
<path d="M469.077 179.392C479.391 186.034 483.279 198.065 478.3 215.777C472.836 235.217 462.586 259.484 451.473 276.16C446.991 282.877 444.561 284.8 424.376 281.56C414.159 279.907 403.975 277.715 393.866 275.501C381.759 272.844 367.611 269.323 357.924 264.701C354.671 263.191 351.739 261.072 349.284 258.458C348.46 257.597 347.819 256.577 347.4 255.461C346.981 254.345 346.792 253.155 346.846 251.964C346.899 250.773 347.194 249.605 347.711 248.531C348.228 247.457 348.958 246.499 349.856 245.714C359.922 236.124 362.686 244.559 370.009 246.978C370.009 246.978 374.329 246.978 376.392 247.259C378.26 247.486 378.39 247.172 379.956 248.188C383.12 250.229 385.161 251.914 387.084 252.194C399.925 254.084 429.69 256.007 429.69 256.007L448.611 210.226C448.611 210.226 459.228 177.664 469.077 179.392Z" fill="#9E6767"/>
<path d="M383.206 250.369C382.861 250.25 381.262 246.946 380.787 246.276C379.713 244.696 378.514 243.204 377.202 241.816C375.957 240.486 374.468 239.408 372.817 238.64C370.408 237.679 367.708 237.172 365.257 236.48C364.914 236.341 364.534 236.319 364.177 236.416C363.984 236.502 363.821 236.644 363.707 236.822C363.594 237.001 363.536 237.209 363.54 237.42C363.545 237.841 363.649 238.255 363.842 238.63C364.491 240.054 365.473 241.302 366.704 242.269C367.644 243.025 370.506 246.125 371.305 247.043C371.24 247.01 383.206 251.19 383.206 250.369Z" fill="#9E6767"/>
<path d="M463.774 176.4C471.615 178.344 478.387 180.85 480.914 191.639C483.441 202.428 482.48 208.055 472.836 232.949C466.971 248.069 462.295 257.184 462.295 257.184C462.295 257.184 456.679 242.928 435.187 241.351L449.13 199.49C449.13 199.49 457.23 181.217 463.774 176.4Z" fill="#FCC89B"/>
<path d="M174.01 360.4C174.01 360.4 138.662 347.44 134.299 343.919C130.648 340.96 132.841 333.875 127.819 332.665C121.998 331.272 117.84 334.393 114.103 337.828C110.56 341.068 105.938 342.547 97.2224 339.534C88.5068 336.521 80.0936 332.233 76.562 333.94C73.0304 335.646 75.32 338.4 90.602 345.42C99.3608 349.459 110.517 354.168 117.667 356.987C122.826 358.905 127.694 361.533 132.128 364.795C141.448 371.275 143.166 372.712 154.192 379.321C176.235 392.53 189.206 396.007 206.745 392.681L174.01 360.4Z" fill="#FFA8A7"/>
<path d="M140.919 347.364C133.888 351.414 130.497 355.874 130.119 363.661C130.119 363.661 134.86 367.333 142.366 372.528C151.352 378.749 173.103 392.908 187.629 394.387C210.158 396.677 217.297 389.894 217.297 389.894L140.919 347.364Z" fill="#455A64"/>
<path d="M134.396 352.375C145.93 371.815 174.108 383.879 182.996 384.775C179.875 382.216 175.285 373.5 170.932 364.05L140.919 347.364C138.497 348.684 136.296 350.375 134.396 352.375Z" fill="#37474F"/>
<path d="M68.2784 332.32C68.1048 331.629 68.0894 330.908 68.2334 330.21C68.3774 329.513 68.6771 328.857 69.11 328.291C72.2204 324.608 76.1948 322.664 78.9056 321.293C82.1949 319.764 85.8162 319.088 89.4356 319.327C96.3476 319.738 102.288 324.889 109.2 325.289C114.351 325.591 119.038 322.967 124.06 321.746C125.643 321.364 127.274 321.222 128.899 321.325C130.281 321.412 132.463 322.405 132.96 323.539C133.646 324.917 133.781 326.504 133.338 327.978C133.024 328.907 131.113 330.678 129.73 331.65C127.851 332.989 125.497 333.367 122.689 334.199C115.604 336.24 83.8952 337.028 68.2784 332.32Z" fill="#37474F"/>
<path d="M134.461 341.986C134.461 342.612 134.569 343.217 134.634 343.854C134.731 344.707 134.266 344.934 133.554 345.463C130.648 347.461 126.976 347.267 123.661 346.694C121.08 346.241 118.455 345.517 115.874 346.014C112.807 346.619 110.355 348.865 108.066 351.004C107.564 351.475 107.144 352.026 106.824 352.634C106.824 352.634 88.9928 345.02 80.9036 340.754C76.7996 338.594 72.0584 336.564 68.8292 333.13C68.6456 332.946 69.6176 331.736 69.7148 331.618C70.8057 330.444 72.2375 329.644 73.808 329.328C76.3656 328.663 79.0251 328.483 81.6488 328.799C85.634 329.393 89.5112 330.44 93.464 331.218C97.009 331.915 100.589 332.419 104.188 332.73C108.11 333.076 112.051 333.14 115.982 332.924C119.668 332.841 123.305 332.068 126.706 330.646C128.033 330.068 129.273 329.308 130.389 328.388C131.036 327.739 131.602 327.014 132.074 326.228C132.625 325.44 132.96 324.068 133.521 325.235C134.882 327.913 135.163 332.039 134.968 335.041C134.839 337.104 134.569 339.156 134.493 341.23C134.45 341.478 134.45 341.726 134.461 341.986Z" fill="#FCC89B"/>
<path opacity="0.2" d="M134.461 341.986C134.461 342.612 134.569 343.217 134.634 343.854C134.731 344.707 134.266 344.934 133.554 345.463C130.648 347.461 126.976 347.267 123.661 346.694C121.08 346.241 118.455 345.517 115.874 346.014C112.807 346.619 110.355 348.865 108.066 351.004C107.564 351.475 107.144 352.026 106.824 352.634C106.824 352.634 88.9928 345.02 80.9036 340.754C76.7996 338.594 72.0584 336.564 68.8292 333.13C68.6456 332.946 69.6176 331.736 69.7148 331.618C70.8057 330.444 72.2375 329.644 73.808 329.328C76.3656 328.663 79.0251 328.483 81.6488 328.799C85.634 329.393 89.5112 330.44 93.464 331.218C97.009 331.915 100.589 332.419 104.188 332.73C108.11 333.076 112.051 333.14 115.982 332.924C119.668 332.841 123.305 332.068 126.706 330.646C128.033 330.068 129.273 329.308 130.389 328.388C131.036 327.739 131.602 327.014 132.074 326.228C132.625 325.44 132.96 324.068 133.521 325.235C134.882 327.913 135.163 332.039 134.968 335.041C134.839 337.104 134.569 339.156 134.493 341.23C134.45 341.478 134.45 341.726 134.461 341.986Z" fill="black"/>
<path d="M88.0208 329.944C84.6944 334.512 84.716 342.601 84.716 342.601C84.716 342.601 78.992 340.204 73.3652 337.061C67.9652 334.048 68.2784 332.32 68.2784 332.32C68.5496 331.385 69.0998 330.556 69.8552 329.944C71.8994 328.303 74.5043 327.528 77.1128 327.784C80.8221 328.065 84.4843 328.79 88.0208 329.944Z" fill="#FAFAFA"/>
<path d="M87.7832 339.89C87.372 341.188 87.254 342.56 87.4376 343.908C87.9612 344.31 88.5654 344.593 89.2088 344.74C89.1782 343.352 89.3234 341.965 89.6408 340.614C90.008 339.48 88.1828 338.778 87.7832 339.89Z" fill="#FAFAFA"/>
<path d="M93.2048 342.385C92.7792 343.679 92.65 345.052 92.8268 346.403C93.3672 346.792 93.9807 347.067 94.6304 347.213C94.5705 345.831 94.7161 344.448 95.0624 343.109C95.4296 341.921 93.6044 341.262 93.2048 342.385Z" fill="#FAFAFA"/>
<path d="M98.6264 344.88C98.2138 346.162 98.0957 347.52 98.2808 348.854C98.7994 349.271 99.4046 349.566 100.052 349.718C100.021 348.334 100.166 346.951 100.484 345.604C100.851 344.405 99.08 343.8 98.6264 344.88Z" fill="#FAFAFA"/>
<path d="M133.489 325.213C133.463 324.618 133.281 324.041 132.96 323.539C132.96 323.539 131.178 327.2 124.806 329.317C118.758 331.326 110.118 332.298 97.6544 329.425C85.1912 326.552 77.9876 323.874 72.35 326.11C66.7124 328.345 68.2784 332.32 68.2784 332.32C68.2784 332.32 70.9676 327.362 78.8732 328.291C86.498 329.188 97.7084 333.227 108.141 333.605C119.038 334.015 130.044 332.622 133.489 325.213Z" fill="#E0E0E0"/>
<path d="M260.205 348.854C254.805 331.855 240.128 321.952 227.071 311C214.014 300.049 193.18 281.7 193.18 281.7L119.74 266.882C115.161 276.257 110.56 294.174 110.539 307.804C110.539 320.515 114.394 337.547 136.642 354.06C150.132 364.072 160.899 371.934 170.565 378.079C180.782 384.559 203.332 395.996 216.627 391.504C220.727 390.218 224.172 387.398 226.241 383.632C228.31 379.866 228.843 375.447 227.73 371.297C229.296 371.437 230.851 371.524 232.298 371.534C233.983 371.588 235.538 371.534 236.737 371.534C241.139 371.655 245.528 370.989 249.697 369.569C258.92 366.199 263.326 358.715 260.205 348.854Z" fill="#455A64"/>
<path d="M230.905 370.8C229.468 370.8 227.902 370.703 226.347 370.552C218.139 353.045 173.071 317.221 173.071 317.221C176.71 315.45 185.145 310.936 187.975 305.86C186.819 312.34 183.104 315.58 179.508 318.236C185.037 323.194 208.279 342.785 214.489 348.671C221.001 354.838 227.762 362.009 230.905 370.8Z" fill="#37474F"/>
<path d="M177.812 173.916C187.402 174.672 191.971 177.34 201.442 187.805C210.914 198.27 228.442 217.213 231.596 222.127C234.75 227.041 243.919 237.668 230.116 245.628C216.314 253.588 186.798 256.255 186.798 256.255L177.812 173.916Z" fill="#F28F8F"/>
<path d="M194.66 232.614C207.48 222.073 203.3 208.325 198.58 199.069C189.217 180.558 179.475 173.279 175.414 173.344L149.494 169.985C139.057 171.616 128.976 175.02 119.686 180.05C109.556 185.904 112.256 192.578 113.606 198.648C117.256 215.161 121.868 224.568 123.24 229.568C124.611 234.569 127.138 242.366 125.086 250.466C124.287 253.598 122.17 256.644 118.963 265.284C116.14 272.383 113.971 279.725 112.483 287.219C112.483 287.219 133.089 306.097 169.442 300.902C196.204 297.079 199.606 287.305 199.606 287.305L193.332 254.387C193.969 243.468 194.12 239.504 194.66 232.614Z" fill="#FCC89B"/>
<g opacity="0.5">
<path opacity="0.5" d="M194.66 232.614C207.48 222.073 203.3 208.325 198.58 199.069C189.217 180.558 179.475 173.279 175.414 173.344L149.494 169.985C139.057 171.616 128.976 175.02 119.686 180.05C109.556 185.904 112.256 192.578 113.606 198.648C117.256 215.161 121.868 224.568 123.24 229.568C124.611 234.569 127.138 242.366 125.086 250.466C124.287 253.598 122.17 256.644 118.963 265.284C116.14 272.383 113.971 279.725 112.483 287.219C112.483 287.219 133.089 306.097 169.442 300.902C196.204 297.079 199.606 287.305 199.606 287.305L193.332 254.387C193.969 243.468 194.12 239.504 194.66 232.614Z" fill="white"/>
</g>
<path d="M186.56 90.7452C172.812 83.3256 155.11 86.2524 148.155 97.3656C148.155 97.3656 141.146 96.0588 134.115 102.193C126.177 109.17 126.253 119.689 126.145 129.355C126.015 140.62 121.825 144 120.291 152.662C118.758 161.323 124.611 167.036 131.016 167.782C131.016 167.782 128.856 159.854 131.134 156.182C131.134 156.182 130.443 167.533 141.243 169.456C149.937 171.011 156.471 165.136 156.471 165.136C156.471 165.136 145.606 163.246 143.738 156.625L144.915 145.577L164.593 166.788C175.922 176.616 191.841 170.449 192.306 165.935C192.306 165.935 179.475 152.683 196.788 136.116C214.1 119.549 200.298 98.154 186.56 90.7452Z" fill="#37474F"/>
<path d="M196.42 140.76C193.947 160.535 187.014 164.779 183.655 165.859C180.296 166.939 174.14 165.449 168.211 163.84L167.25 173.268C167.25 173.268 176.505 182.394 174.118 184.576C169.669 188.636 157.918 186.736 152.238 183.593C148.276 181.569 144.945 178.498 142.604 174.715C142.115 173.91 141.949 172.949 142.14 172.026L144.948 145.566C144.948 145.566 141.783 147.434 137.02 144.227C132.7 141.343 131.782 132.347 135.789 128.47C138.651 125.726 143.954 125.802 146.589 130.781C147.982 134.388 147.151 137.66 149.581 137.552C152.011 137.444 153.048 135.176 153.436 133.297C153.825 131.418 154.052 130.057 154.516 127.606C160.521 127.044 167.185 118.966 168.556 113.155C172.52 115.466 176.743 117.335 180.944 117.551C187.554 117.875 191.096 116.968 194.876 112.626C195.526 113.792 195.999 115.047 196.28 116.352C196.882 118.985 197.243 121.667 197.36 124.366C197.495 129.847 197.181 135.33 196.42 140.76Z" fill="#FFA8A7"/>
<path d="M168.2 163.818C161.904 162.338 149.17 157.241 147.68 151.841C147.68 151.841 148.026 155.167 151.611 158.926C155.197 162.684 167.811 167.792 167.811 167.792L168.2 163.818Z" fill="#F28F8F"/>
<path d="M174.896 134.042C174.849 134.583 174.643 135.097 174.306 135.522C173.968 135.947 173.513 136.263 172.997 136.43C172.481 136.598 171.927 136.611 171.404 136.466C170.881 136.321 170.413 136.026 170.056 135.617C169.7 135.207 169.472 134.702 169.401 134.165C169.33 133.627 169.418 133.08 169.655 132.592C169.893 132.104 170.268 131.697 170.735 131.421C171.203 131.145 171.741 131.012 172.282 131.04C172.651 131.065 173.012 131.162 173.343 131.326C173.675 131.491 173.97 131.719 174.213 131.998C174.456 132.277 174.641 132.601 174.759 132.952C174.876 133.303 174.922 133.673 174.896 134.042Z" fill="#263238"/>
<path d="M193.526 135.068C193.514 135.403 193.435 135.732 193.295 136.037C193.156 136.341 192.957 136.615 192.711 136.843C192.466 137.07 192.177 137.247 191.863 137.364C191.549 137.48 191.215 137.533 190.88 137.52C190.537 137.521 190.198 137.447 189.886 137.305C189.574 137.162 189.296 136.955 189.072 136.695C188.847 136.436 188.681 136.131 188.585 135.802C188.489 135.473 188.465 135.127 188.515 134.788C188.525 134.452 188.601 134.122 188.739 133.817C188.877 133.511 189.074 133.236 189.319 133.007C189.564 132.778 189.852 132.6 190.166 132.483C190.481 132.366 190.815 132.312 191.15 132.325C191.828 132.375 192.459 132.692 192.905 133.206C193.35 133.72 193.574 134.39 193.526 135.068Z" fill="#263238"/>
<path d="M181.678 129.355L180.361 148.093L189.4 146.225L181.678 129.355Z" fill="#F28F8F"/>
<path d="M165.468 125.64L170.965 121.547C171.498 122.303 171.719 123.236 171.583 124.151C171.446 125.066 170.962 125.893 170.23 126.461C169.867 126.729 169.453 126.921 169.014 127.025C168.575 127.129 168.119 127.143 167.674 127.066C167.229 126.989 166.804 126.824 166.425 126.579C166.046 126.333 165.72 126.014 165.468 125.64Z" fill="#263238"/>
<path d="M170.155 148.018L178.59 151.916C178.032 153.042 177.062 153.909 175.881 154.337C174.7 154.766 173.4 154.723 172.25 154.217C171.696 153.958 171.2 153.59 170.792 153.134C170.384 152.678 170.073 152.145 169.877 151.565C169.681 150.986 169.605 150.373 169.653 149.763C169.7 149.153 169.871 148.559 170.155 148.018Z" fill="#874C4C"/>
<path d="M172.25 154.217C171.47 153.857 170.811 153.279 170.353 152.553C169.894 151.826 169.657 150.982 169.669 150.124C170.173 149.995 170.696 149.958 171.213 150.016C172.301 150.159 173.294 150.71 173.99 151.559C174.686 152.407 175.033 153.489 174.961 154.584C174.041 154.743 173.095 154.615 172.25 154.217Z" fill="#F28F8F"/>
<path d="M191.841 122.54L196.82 127.325C196.524 127.663 196.162 127.938 195.756 128.132C195.35 128.327 194.908 128.436 194.459 128.454C194.009 128.473 193.561 128.399 193.14 128.238C192.72 128.077 192.337 127.833 192.014 127.519C191.353 126.869 190.966 125.991 190.934 125.064C190.902 124.138 191.227 123.234 191.841 122.54Z" fill="#263238"/>
<path d="M204.164 193.918C202.898 193.724 201.643 193.461 200.406 193.129C198.121 192.425 195.728 192.14 193.342 192.287C190.88 192.503 187.586 193.529 185.847 195.268C185.124 195.98 184.854 197.676 186.052 198.097C186.008 198.379 186.045 198.667 186.158 198.929C186.27 199.191 186.455 199.415 186.69 199.577C187.255 199.954 187.944 200.097 188.612 199.976C188.612 200.646 189.692 201.056 190.772 200.959C192.282 200.555 193.844 200.38 195.405 200.441C198.699 200.538 199.261 201.791 199.261 201.791" fill="#455A64"/>
<path d="M191.193 197.816C190.463 197.684 189.709 197.833 189.084 198.234C188.458 198.634 188.008 199.257 187.824 199.976C188.086 199.993 188.349 199.993 188.612 199.976C188.708 199.365 189.023 198.81 189.498 198.412C189.972 198.015 190.575 197.804 191.193 197.816Z" fill="#37474F"/>
<path d="M188.72 195.775C188.05 195.739 187.385 195.903 186.808 196.245C186.232 196.587 185.769 197.093 185.48 197.698C185.615 197.878 185.798 198.017 186.009 198.097C186.197 197.495 186.551 196.957 187.031 196.546C187.51 196.136 188.096 195.868 188.72 195.775Z" fill="#37474F"/>
<path d="M233.13 185.764L227.73 187.265L216.93 190.267L215.968 190.505L213.463 190.926C211.697 191.09 209.946 191.387 208.225 191.812H207.847C207.158 191.841 206.476 191.957 205.816 192.157C205.379 192.493 204.961 192.854 204.564 193.237L203.419 194.317C203.289 194.458 203.16 194.598 203.03 194.76L199.66 200.646C198.924 201.573 197.927 202.257 196.798 202.612C195.033 202.987 193.452 203.964 192.327 205.376C192.209 205.198 192.048 205.05 191.86 204.947C191.672 204.843 191.462 204.787 191.247 204.782C191.201 204.475 191.078 204.184 190.889 203.936C190.7 203.689 190.452 203.493 190.167 203.368C189.478 203.084 188.709 203.065 188.007 203.314C188.007 202.763 187.068 202.05 185.188 202.471C181.473 203.303 179.281 204.782 175.414 207.223C170.598 210.269 169.042 213.044 169.118 215.323C169.099 216.056 169.279 216.78 169.638 217.419C169.998 218.058 170.523 218.588 171.159 218.952C171.159 218.952 156.18 233.273 176.71 245.434C196.647 257.238 222.718 244.624 230.862 225.724C232.997 220.708 234.327 215.386 234.804 209.956C235.916 199.555 233.853 191.52 233.13 185.764Z" fill="#455A64"/>
<path d="M191.884 208.962C191.884 208.962 195.124 207.515 196.615 209.286C196.993 209.108 197.409 209.027 197.826 209.052C198.243 209.076 198.647 209.205 199.002 209.426C199.293 209.618 199.516 209.896 199.638 210.223C199.76 210.549 199.776 210.905 199.682 211.241C199.915 211.259 200.138 211.339 200.328 211.474C200.519 211.609 200.669 211.794 200.762 212.008C200.885 212.408 200.912 212.832 200.841 213.245C200.769 213.657 200.602 214.048 200.352 214.384C199.768 215.482 198.97 216.454 198.006 217.24C197.041 218.026 195.929 218.612 194.736 218.963C195.897 219.633 196.882 220.57 197.609 221.697C198.336 222.824 198.784 224.108 198.915 225.443C199.66 230.67 197.986 233.381 197.986 233.381C204.872 231.71 210.974 227.721 215.266 222.084C224.403 210.355 221.098 189.684 221.098 189.684L205.806 192.265C204.198 193.115 202.808 194.322 201.74 195.794C200.673 197.265 199.958 198.962 199.65 200.754C196.491 201.051 193.464 202.168 190.869 203.994C191.034 204.261 191.154 204.553 191.226 204.858C191.436 204.879 191.641 204.942 191.826 205.044C192.012 205.146 192.175 205.285 192.306 205.452C192.698 205.98 192.873 206.638 192.794 207.291C192.716 207.944 192.39 208.542 191.884 208.962Z" fill="#FCC89B"/>
<path opacity="0.3" d="M191.884 208.962C191.884 208.962 195.124 207.515 196.615 209.286C196.993 209.108 197.409 209.027 197.826 209.052C198.243 209.076 198.647 209.205 199.002 209.426C199.293 209.618 199.516 209.896 199.638 210.223C199.76 210.549 199.776 210.905 199.682 211.241C199.915 211.259 200.138 211.339 200.328 211.474C200.519 211.609 200.669 211.794 200.762 212.008C200.885 212.408 200.912 212.832 200.841 213.245C200.769 213.657 200.602 214.048 200.352 214.384C199.768 215.482 198.97 216.454 198.006 217.24C197.041 218.026 195.929 218.612 194.736 218.963C195.897 219.633 196.882 220.57 197.609 221.697C198.336 222.824 198.784 224.108 198.915 225.443C199.66 230.67 197.986 233.381 197.986 233.381C204.872 231.71 210.974 227.721 215.266 222.084C224.403 210.355 221.098 189.684 221.098 189.684L205.806 192.265C204.198 193.115 202.808 194.322 201.74 195.794C200.673 197.265 199.958 198.962 199.65 200.754C196.491 201.051 193.464 202.168 190.869 203.994C191.034 204.261 191.154 204.553 191.226 204.858C191.436 204.879 191.641 204.942 191.826 205.044C192.012 205.146 192.175 205.285 192.306 205.452C192.698 205.98 192.873 206.638 192.794 207.291C192.716 207.944 192.39 208.542 191.884 208.962Z" fill="black"/>
<path opacity="0.1" d="M214.521 203.4C212.016 203.303 208.57 203.918 206.594 205.441C205.773 206.068 205.298 207.731 206.443 208.314C206.364 208.59 206.363 208.883 206.441 209.16C206.519 209.437 206.673 209.686 206.886 209.88C207.407 210.335 208.085 210.567 208.776 210.528C208.711 211.208 209.704 211.813 210.806 211.792C212.318 211.792 212.739 211.284 215.536 211.867C217.018 212.201 218.375 212.95 219.446 214.027C220.371 211.169 220.997 208.223 221.314 205.236C219.192 204.184 216.884 203.56 214.521 203.4Z" fill="black"/>
<path d="M221.692 203.562C219.463 202.417 217.022 201.741 214.521 201.575C212.016 201.467 208.57 202.093 206.594 203.616C205.773 204.242 205.298 205.906 206.443 206.489C206.364 206.765 206.363 207.058 206.441 207.335C206.519 207.612 206.673 207.861 206.886 208.055C207.409 208.505 208.086 208.738 208.776 208.703C208.711 209.383 209.704 209.988 210.806 209.966C212.318 209.966 212.739 209.459 215.536 210.042C217.252 210.426 218.795 211.359 219.932 212.699L224.976 204.923C223.838 204.58 222.738 204.125 221.692 203.562Z" fill="#455A64"/>
<path d="M211.335 206.921C210.947 206.734 210.515 206.655 210.085 206.693C209.656 206.731 209.244 206.885 208.894 207.137C208.648 207.301 208.442 207.518 208.291 207.772C208.14 208.026 208.047 208.311 208.02 208.606C208.269 208.657 208.522 208.689 208.776 208.703C208.83 207.547 210.115 206.878 211.335 206.921Z" fill="#37474F"/>
<path d="M205.881 205.895C205.989 206.155 206.189 206.367 206.443 206.489C206.62 206.097 206.895 205.758 207.241 205.502C207.587 205.247 207.993 205.085 208.419 205.031C207.958 204.946 207.482 204.98 207.038 205.132C206.593 205.283 206.195 205.546 205.881 205.895Z" fill="#37474F"/>
<path opacity="0.1" d="M234.998 199.717C234.609 194.101 233.594 189.457 233.13 185.764L227.73 187.265L216.93 190.267L215.968 190.505L213.463 190.926C211.697 191.09 209.946 191.387 208.225 191.812H207.847C207.158 191.836 206.475 191.952 205.816 192.157C205.473 192.326 205.141 192.517 204.823 192.73C205.536 193.615 208.225 196.466 214.154 197.762C221.217 199.318 228.712 196.952 228.712 196.952C229.328 198.024 230.27 198.87 231.401 199.367C232.532 199.865 233.792 199.987 234.998 199.717Z" fill="black"/>
<path d="M222.61 164.185C222.092 162.252 219.673 161.41 215.806 161.334C212.75 161.269 209.834 162.198 205.33 160.178C200.827 158.159 197.101 159.098 195.88 163.634C194.66 168.17 195.697 173.743 200.643 175.676C205.222 177.469 212.664 176.551 216.843 173.689C221.023 170.827 222.61 164.185 222.61 164.185Z" fill="#37474F"/>
<path d="M209.24 162.263C209.342 161.971 209.418 161.671 209.467 161.366C208.032 161.183 206.634 160.783 205.32 160.178C200.805 158.148 197.09 159.098 195.88 163.634C195.462 165.181 195.327 166.791 195.481 168.386C196.37 168.927 197.364 169.273 198.397 169.402C198.806 169.482 199.228 169.464 199.629 169.347C200.029 169.231 200.395 169.02 200.697 168.732C201.356 167.933 201.118 166.572 201.777 165.848C202.436 165.125 203.937 165.287 205.114 165.233C206.012 165.178 206.876 164.87 207.607 164.344C208.337 163.819 208.903 163.097 209.24 162.263Z" fill="#FCC89B"/>
<path opacity="0.4" d="M209.24 162.263C209.342 161.971 209.418 161.671 209.467 161.366C208.032 161.183 206.634 160.783 205.32 160.178C200.805 158.148 197.09 159.098 195.88 163.634C195.462 165.181 195.327 166.791 195.481 168.386C196.37 168.927 197.364 169.273 198.397 169.402C198.806 169.482 199.228 169.464 199.629 169.347C200.029 169.231 200.395 169.02 200.697 168.732C201.356 167.933 201.118 166.572 201.777 165.848C202.436 165.125 203.937 165.287 205.114 165.233C206.012 165.178 206.876 164.87 207.607 164.344C208.337 163.819 208.903 163.097 209.24 162.263Z" fill="black"/>
<path d="M234.836 172.814C232.676 168.16 231.456 167.123 225.451 165.006C219.446 162.889 215.731 163.127 210.471 166.378C207.145 168.43 205.806 173.873 205.806 173.873C204.743 174.011 203.718 174.359 202.791 174.897C201.864 175.435 201.053 176.151 200.406 177.005C198.084 180.569 199.855 186.919 201.356 189.058C203.801 192.483 207.457 194.85 211.584 195.678C219.306 197.255 225.537 196.758 229.414 192.816C234.274 187.902 236.413 176.206 234.836 172.814Z" fill="#455A64"/>
<path d="M233.702 180.364C233.811 179.812 233.862 179.251 233.853 178.69C233.853 176.918 233.454 174.553 232.255 173.203C231.326 171.823 229.981 170.775 228.415 170.212C226.85 169.648 225.145 169.599 223.55 170.071C221.623 170.468 219.913 171.57 218.755 173.16C217.675 174.791 217.329 176.659 218.841 178.106C219.414 178.574 219.956 179.079 220.461 179.618C221.152 180.493 221.444 181.638 222.092 182.545C222.825 183.54 223.877 184.252 225.073 184.565C226.258 184.872 227.494 184.927 228.702 184.727C229.472 184.68 230.224 184.477 230.913 184.129C231.602 183.782 232.213 183.298 232.708 182.707C233.2 182.004 233.539 181.206 233.702 180.364Z" fill="#FCC89B"/>
<path opacity="0.3" d="M233.702 180.364C233.811 179.812 233.862 179.251 233.853 178.69C233.853 176.918 233.454 174.553 232.255 173.203C231.326 171.823 229.981 170.775 228.415 170.212C226.85 169.648 225.145 169.599 223.55 170.071C221.623 170.468 219.913 171.57 218.755 173.16C217.675 174.791 217.329 176.659 218.841 178.106C219.414 178.574 219.956 179.079 220.461 179.618C221.152 180.493 221.444 181.638 222.092 182.545C222.825 183.54 223.877 184.252 225.073 184.565C226.258 184.872 227.494 184.927 228.702 184.727C229.472 184.68 230.224 184.477 230.913 184.129C231.602 183.782 232.213 183.298 232.708 182.707C233.2 182.004 233.539 181.206 233.702 180.364Z" fill="black"/>
<path d="M224.036 176.13C224.038 176.483 223.935 176.829 223.74 177.124C223.545 177.419 223.267 177.649 222.941 177.785C222.615 177.921 222.256 177.957 221.909 177.889C221.562 177.821 221.244 177.651 220.994 177.401C220.744 177.151 220.574 176.832 220.506 176.486C220.437 176.139 220.474 175.78 220.61 175.454C220.746 175.128 220.976 174.85 221.271 174.655C221.565 174.46 221.911 174.357 222.265 174.359C222.734 174.362 223.183 174.549 223.514 174.881C223.846 175.212 224.033 175.661 224.036 176.13Z" fill="#263238"/>
<path d="M211.486 172.814C211.486 173.165 211.383 173.507 211.188 173.798C210.993 174.09 210.717 174.317 210.393 174.451C210.069 174.585 209.713 174.62 209.37 174.552C209.026 174.483 208.711 174.315 208.463 174.067C208.215 173.819 208.046 173.504 207.978 173.16C207.91 172.816 207.945 172.46 208.079 172.137C208.213 171.813 208.44 171.536 208.731 171.342C209.022 171.147 209.365 171.043 209.715 171.043C210.185 171.043 210.635 171.23 210.968 171.562C211.3 171.894 211.486 172.345 211.486 172.814Z" fill="#263238"/>
<path d="M207.199 187.405H207.08C207.025 187.395 206.973 187.374 206.927 187.343C206.88 187.312 206.84 187.273 206.809 187.227C206.778 187.18 206.756 187.129 206.745 187.074C206.734 187.019 206.734 186.963 206.745 186.908L207.534 182.815C207.555 182.705 207.619 182.608 207.713 182.545C207.806 182.482 207.92 182.459 208.03 182.48C208.141 182.502 208.238 182.566 208.301 182.659C208.363 182.753 208.387 182.867 208.365 182.977L207.577 187.07C207.557 187.159 207.51 187.239 207.442 187.299C207.374 187.359 207.289 187.396 207.199 187.405Z" fill="#263238"/>
<path d="M209.737 178.031C207.577 177.372 205.903 177.48 205.492 178.29C204.834 179.651 205.816 181.638 206.497 182.426C206.877 182.763 207.323 183.016 207.806 183.171C208.29 183.325 208.8 183.377 209.305 183.323C210.525 183.193 212.48 182.405 212.847 181.163C213.214 179.921 212.059 178.744 209.737 178.031Z" fill="#263238"/>
<path d="M206.324 178.193C206.038 178.364 205.825 178.635 205.725 178.954C205.625 179.273 205.646 179.617 205.784 179.921C206.032 180.364 206.464 178.711 207.642 178.711C208.982 178.85 210.274 179.289 211.422 179.996C212.156 180.472 212.178 179.608 210.72 178.916C208.938 177.966 207.253 177.707 206.324 178.193Z" fill="#37474F"/>
<path d="M209.802 187.805C209.542 187.805 209.294 187.805 209.035 187.805C208.27 187.795 207.515 187.635 206.813 187.333C206.11 187.03 205.475 186.593 204.942 186.044C204.873 185.956 204.842 185.843 204.856 185.732C204.871 185.62 204.928 185.519 205.017 185.45C205.106 185.382 205.219 185.351 205.33 185.365C205.441 185.379 205.542 185.437 205.611 185.526C206.552 186.426 207.798 186.935 209.1 186.952C209.941 187.065 210.797 187.007 211.616 186.78C212.435 186.554 213.199 186.164 213.862 185.634C213.903 185.596 213.95 185.566 214.002 185.546C214.054 185.526 214.11 185.516 214.166 185.518C214.221 185.519 214.276 185.532 214.327 185.555C214.378 185.577 214.424 185.61 214.462 185.65C214.5 185.691 214.53 185.738 214.55 185.79C214.57 185.842 214.579 185.898 214.578 185.953C214.576 186.009 214.564 186.064 214.541 186.115C214.519 186.165 214.486 186.211 214.446 186.25C213.144 187.326 211.489 187.881 209.802 187.805Z" fill="#263238"/>
<path d="M231.358 167.76C233.734 168.03 238.465 169.153 239.923 171.41C241.381 173.668 246.003 181.206 244.74 188.28C244.338 190.876 242.996 193.233 240.968 194.902C238.941 196.571 236.369 197.435 233.745 197.33C229.879 196.942 227.503 195.17 229.425 189.598C231.348 184.025 232.806 176.184 231.391 172.447C230.116 169.034 228.68 167.479 231.358 167.76Z" fill="#37474F"/>
<path d="M242.914 177.026C241.929 178.461 240.595 179.62 239.037 180.396C238.294 180.685 237.59 181.066 236.942 181.53C236.621 181.767 236.376 182.092 236.238 182.466C236.099 182.841 236.074 183.247 236.164 183.636C236.488 184.576 237.612 184.91 238.562 185.18C239.512 185.45 240.625 186.012 240.636 187.006C240.636 187.718 240.063 188.323 240.009 189.036C240.022 189.292 240.088 189.544 240.202 189.773C240.316 190.003 240.477 190.207 240.673 190.373C240.87 190.538 241.098 190.661 241.345 190.734C241.591 190.807 241.85 190.828 242.104 190.796C243.068 190.624 243.929 190.091 244.513 189.306C244.599 188.982 244.675 188.658 244.74 188.312C245.442 184.36 244.308 180.266 242.914 177.026Z" fill="#FCC89B"/>
<path opacity="0.4" d="M242.914 177.026C241.929 178.461 240.595 179.62 239.037 180.396C238.294 180.685 237.59 181.066 236.942 181.53C236.621 181.767 236.376 182.092 236.238 182.466C236.099 182.841 236.074 183.247 236.164 183.636C236.488 184.576 237.612 184.91 238.562 185.18C239.512 185.45 240.625 186.012 240.636 187.006C240.636 187.718 240.063 188.323 240.009 189.036C240.022 189.292 240.088 189.544 240.202 189.773C240.316 190.003 240.477 190.207 240.673 190.373C240.87 190.538 241.098 190.661 241.345 190.734C241.591 190.807 241.85 190.828 242.104 190.796C243.068 190.624 243.929 190.091 244.513 189.306C244.599 188.982 244.675 188.658 244.74 188.312C245.442 184.36 244.308 180.266 242.914 177.026Z" fill="black"/>
<path d="M191.884 208.962C185.523 211.748 179.454 214.848 178.298 218.498C177.142 222.149 180.242 222.991 180.242 222.991C180.242 222.991 177.067 222.84 177.067 219.935C177.067 217.03 179.702 212.526 191.884 208.962Z" fill="#37474F"/>
<path d="M196.539 212.04C197.252 211.943 198.559 211.457 198.699 210.593C198.775 209.999 198.256 209.88 197.76 209.891C197.069 209.912 196.402 210.155 195.859 210.582C195.006 211.306 195.513 212.18 196.539 212.04Z" fill="#37474F"/>
<path d="M197.673 214.2C198.397 214.2 199.768 213.995 200.028 213.12C200.2 212.548 199.725 212.342 199.228 212.256C198.547 212.148 197.849 212.266 197.241 212.591C196.28 213.185 196.647 214.135 197.673 214.2Z" fill="#37474F"/>
<path d="M193.31 210.96C193.98 210.96 195.222 210.604 195.394 209.826C195.524 209.286 195.06 209.124 194.606 209.092C193.967 209.042 193.329 209.205 192.792 209.556C191.96 210.128 192.36 210.96 193.31 210.96Z" fill="#37474F"/>
<path d="M193.926 212.461C193.17 211.748 192.068 211.111 188.742 212.062C185.415 213.012 184.26 214.546 185.059 215.248C186.236 216.263 188.169 214.675 187.726 217.04C187.478 218.38 189.249 219.373 192.262 217.04C195.276 214.708 194.757 213.239 193.926 212.461Z" fill="#37474F"/>
<path d="M187.64 206.23C188.353 206.143 189.66 205.657 189.8 204.782C189.876 204.199 189.357 204.08 188.86 204.08C188.169 204.102 187.503 204.344 186.96 204.772C186.139 205.495 186.646 206.359 187.64 206.23Z" fill="#37474F"/>
<path d="M188.806 208.368C189.53 208.368 190.891 208.163 191.161 207.288C191.334 206.726 190.858 206.51 190.362 206.435C189.677 206.33 188.977 206.447 188.364 206.77C187.424 207.364 187.78 208.314 188.806 208.368Z" fill="#37474F"/>
<path d="M184.4 205.128C185.07 205.128 186.312 204.782 186.484 204.048C186.614 203.508 186.15 203.357 185.696 203.314C185.057 203.269 184.421 203.432 183.882 203.778C183.104 204.307 183.493 205.15 184.4 205.128Z" fill="#37474F"/>
<path d="M185.059 206.64C184.303 205.938 183.201 205.29 179.875 206.24C176.548 207.191 175.393 208.735 176.192 209.48C177.369 210.496 179.302 208.908 178.86 211.273C178.611 212.623 180.382 213.606 183.396 211.273C186.409 208.94 185.88 207.418 185.059 206.64Z" fill="#37474F"/>
<path d="M171.159 236.113C171.058 236.29 170.909 236.434 170.729 236.53C170.55 236.625 170.347 236.668 170.144 236.653C163.092 236.102 153.642 230.173 149.84 221.965C145.941 213.498 149.084 203.605 150.477 203.476C151.87 203.346 149.062 209.027 150.661 216.166C152.13 222.732 158.221 230.886 170.338 232.884C170.534 232.912 170.718 232.994 170.87 233.12C171.022 233.245 171.137 233.41 171.202 233.597C171.517 234.409 171.501 235.312 171.159 236.113Z" fill="#37474F"/>
<path opacity="0.1" d="M233.194 219.071C232.114 218.866 231.52 219.395 230.376 220.27C229.231 221.144 227.848 222.203 226.866 223.013C223.436 225.868 219.262 227.682 214.834 228.24C212.917 228.545 210.972 228.636 209.035 228.51C208.605 228.512 208.18 228.415 207.792 228.228C207.405 228.041 207.065 227.768 206.799 227.43C206.634 227.032 206.557 226.603 206.574 226.172C206.591 225.741 206.701 225.319 206.896 224.935C207.525 223.344 208.023 221.704 208.387 220.032C208.624 218.596 208.765 215.593 207.447 214.567C207.176 214.397 206.858 214.316 206.539 214.335C206.219 214.355 205.914 214.473 205.665 214.675C205.032 215.266 204.48 215.938 204.024 216.673C202.444 218.669 201.001 220.769 199.704 222.959C199.111 221.391 198.08 220.026 196.734 219.028C200.697 216.112 200.449 214.34 200.449 214.34C198.289 217.494 193.256 218.963 193.256 218.963C194.629 219.634 195.795 220.664 196.632 221.943C197.468 223.223 197.944 224.704 198.008 226.231C197.344 227.721 196.507 229.128 195.513 230.422C193.579 232.64 191.066 234.278 188.256 235.152C186.279 235.822 176.667 236.74 167.984 237.463C169.615 240.109 172.38 242.863 176.797 245.444C196.734 257.249 222.805 244.634 230.948 225.734C231.89 223.564 232.667 221.326 233.27 219.038L233.194 219.071Z" fill="black"/>
<path d="M158.739 264.226C164.42 263.362 170.068 262.217 175.663 260.878C189.109 257.638 202.89 253.393 215.191 247C219.04 245.02 222.701 242.695 226.131 240.055C227.832 238.879 229.334 237.439 230.581 235.789C231.807 234.024 232.862 232.148 233.734 230.184C234.851 227.682 235.344 224.947 235.171 222.214C235.095 221.382 234.782 220.388 233.961 220.237C232.881 220.043 232.212 221.468 231.596 222.127C230.753 223.073 229.851 223.964 228.896 224.795C225.46 227.639 221.289 229.451 216.865 230.022C214.948 230.327 213.002 230.418 211.065 230.292C210.635 230.293 210.21 230.196 209.823 230.009C209.436 229.822 209.096 229.55 208.83 229.212C208.665 228.814 208.588 228.385 208.604 227.954C208.621 227.523 208.731 227.101 208.927 226.717C209.557 225.126 210.055 223.486 210.417 221.814C210.655 220.388 210.795 217.375 209.478 216.36C209.207 216.19 208.889 216.109 208.569 216.128C208.25 216.147 207.944 216.266 207.696 216.468C207.057 217.054 206.505 217.726 206.054 218.466C204.31 220.617 202.739 222.903 201.356 225.302C200.092 227.624 199.196 230.162 197.5 232.214C195.569 234.433 193.055 236.068 190.243 236.934C187.003 238.014 162.865 239.828 156.504 240.293L141.2 207.72C141.2 207.72 133.111 182.534 119.751 180.104C112.774 184.057 110.733 187.492 109.707 195.224C108.681 202.957 111.673 209.513 115.107 219.956C118.542 230.4 134.806 255.391 139.396 260.37C143.986 265.349 146.416 265.349 154.192 264.83C155.715 264.668 157.227 264.452 158.739 264.226Z" fill="#FFA8A7"/>
<path d="M359.198 350.863L270.346 299.563L181.495 350.863L270.346 402.163L359.198 350.863Z" fill="#FCC89B"/>
<path opacity="0.4" d="M359.198 350.863L270.346 299.563L181.495 350.863L270.346 402.163L359.198 350.863Z" fill="white"/>
<path opacity="0.1" d="M359.198 350.863L270.346 299.563L181.495 350.863L270.346 402.163L359.198 350.863Z" fill="black"/>
<path opacity="0.1" d="M270.346 374.18V299.563L181.495 350.863V425.48L270.346 374.18Z" fill="black"/>
<path opacity="0.2" d="M270.346 374.18L181.495 425.48L270.346 476.78L359.198 425.48L270.346 374.18Z" fill="black"/>
<path d="M315.534 204.296C311.505 203.054 309.345 203.767 305.814 206.759C302.282 209.75 301.364 210.506 301.04 214.2C300.716 217.894 301.807 225.734 305.803 224.503C309.799 223.272 315.534 204.296 315.534 204.296Z" fill="#37474F"/>
<path d="M268.64 319.327C267.895 327.73 274.116 346.403 273.511 351.058C272.906 355.712 269.418 363.715 266.955 367.592C264.795 371.027 264.18 372.614 266.955 379.613C269.731 386.611 275.001 396.893 276.189 398.988C277.377 401.083 281.114 399.863 284.829 398.405C288.544 396.947 293.469 393.923 290.488 390.402C289.106 388.76 281.017 391.482 281.017 391.482C281.017 391.482 276.988 379.602 277.669 375.595C278.349 371.588 288.814 362.819 294.301 354.503C299.787 346.187 292.422 321.844 292.422 321.844L268.64 319.327Z" fill="#FCC89B"/>
<path opacity="0.55" d="M268.64 319.327C267.895 327.73 274.116 346.403 273.511 351.058C272.906 355.712 269.418 363.715 266.955 367.592C264.795 371.027 264.18 372.614 266.955 379.613C269.731 386.611 275.001 396.893 276.189 398.988C277.377 401.083 281.114 399.863 284.829 398.405C288.544 396.947 293.469 393.923 290.488 390.402C289.106 388.76 281.017 391.482 281.017 391.482C281.017 391.482 276.988 379.602 277.669 375.595C278.349 371.588 288.814 362.819 294.301 354.503C299.787 346.187 292.422 321.844 292.422 321.844L268.64 319.327Z" fill="black"/>
<path d="M333.213 259.625C333.03 258.858 332.824 258.124 332.608 257.465C333.904 262.238 329.077 275.425 320.091 285.545C311.106 295.664 315.026 303.473 317.38 314.305C315.966 306.864 316.408 304.445 318.536 298.343C322.813 286.117 336.756 285.545 333.213 259.625Z" fill="#FCC89B"/>
<path d="M364.468 240.606C358.582 237.215 354.748 239.321 349.888 244.386C346.364 248.286 342.328 251.69 337.89 254.506C337.22 250.024 336.313 245.758 336.172 243.641C335.892 239.58 336.075 235.303 338.775 232.16C341.475 229.018 342.62 227.171 345.86 224.773C347.055 223.921 348.166 222.955 349.176 221.89C350.137 220.81 351.962 218.272 351.087 216.781C349.405 218.112 347.301 218.795 345.158 218.704C344.285 218.607 343.453 218.279 342.75 217.753C342.692 217.722 342.643 217.678 342.607 217.623C342.571 217.568 342.549 217.505 342.544 217.44C342.544 217.278 342.728 217.192 342.879 217.138C343.418 216.982 343.966 216.863 344.521 216.781C346.2 216.514 347.792 215.851 349.165 214.848C350.13 214.089 350.838 213.053 351.195 211.878C351.465 210.928 351.249 210.798 351.195 209.848C351.132 209.088 350.957 208.342 350.677 207.634C349.878 205.722 348.214 205.214 346.432 204.394C342.382 202.417 340.978 204.61 335.19 205.214C330.87 205.668 320.836 200.732 313.082 205.625C304.636 210.949 304.086 219.665 302.476 228.24C302.12 230.143 301.611 232.014 300.954 233.834C298.437 239.461 295.629 240.584 292.044 252.194C286.741 269.215 288.004 278.503 278.727 291.398C270.379 303.03 268.154 311.918 268.132 318.258C268.132 329.058 270.033 331.952 278.824 339.534C285.175 344.999 288.199 345.928 294.398 354.6C296.407 357.397 296.558 368.456 295.068 373.435C293.577 378.414 292.249 380.898 293.739 384.808C295.23 388.717 302.26 405.025 304.82 409C307.38 412.974 310.22 411.959 318.73 409.399C327.09 406.904 323.115 401.645 320.124 401.98C317.577 402.344 315.053 402.853 312.564 403.502C312.564 403.502 306.451 389.128 306.462 385.596C306.472 382.064 313.73 367.376 319.486 359.622C325.243 351.868 323.029 339.534 319.486 323.852C315.944 308.171 315.771 306.572 318.612 298.451C321.312 290.74 327.856 287.651 331.431 279.94C335.87 277.996 340.071 276.106 341.724 273.805C345.093 269.14 352.07 257.497 354.975 253.566C358.896 248.252 361.606 245.174 365.775 246.665C369.588 248.036 370.095 247.097 370.095 247.097C370.527 244.948 367.903 242.593 364.468 240.606Z" fill="#FCC89B"/>
<path opacity="0.4" d="M364.468 240.606C358.582 237.215 354.748 239.321 349.888 244.386C346.364 248.286 342.328 251.69 337.89 254.506C337.22 250.024 336.313 245.758 336.172 243.641C335.892 239.58 336.075 235.303 338.775 232.16C341.475 229.018 342.62 227.171 345.86 224.773C347.055 223.921 348.166 222.955 349.176 221.89C350.137 220.81 351.962 218.272 351.087 216.781C349.405 218.112 347.301 218.795 345.158 218.704C344.285 218.607 343.453 218.279 342.75 217.753C342.692 217.722 342.643 217.678 342.607 217.623C342.571 217.568 342.549 217.505 342.544 217.44C342.544 217.278 342.728 217.192 342.879 217.138C343.418 216.982 343.966 216.863 344.521 216.781C346.2 216.514 347.792 215.851 349.165 214.848C350.13 214.089 350.838 213.053 351.195 211.878C351.465 210.928 351.249 210.798 351.195 209.848C351.132 209.088 350.957 208.342 350.677 207.634C349.878 205.722 348.214 205.214 346.432 204.394C342.382 202.417 340.978 204.61 335.19 205.214C330.87 205.668 320.836 200.732 313.082 205.625C304.636 210.949 304.086 219.665 302.476 228.24C302.12 230.143 301.611 232.014 300.954 233.834C298.437 239.461 295.629 240.584 292.044 252.194C286.741 269.215 288.004 278.503 278.727 291.398C270.379 303.03 268.154 311.918 268.132 318.258C268.132 329.058 270.033 331.952 278.824 339.534C285.175 344.999 288.199 345.928 294.398 354.6C296.407 357.397 296.558 368.456 295.068 373.435C293.577 378.414 292.249 380.898 293.739 384.808C295.23 388.717 302.26 405.025 304.82 409C307.38 412.974 310.22 411.959 318.73 409.399C327.09 406.904 323.115 401.645 320.124 401.98C317.577 402.344 315.053 402.853 312.564 403.502C312.564 403.502 306.451 389.128 306.462 385.596C306.472 382.064 313.73 367.376 319.486 359.622C325.243 351.868 323.029 339.534 319.486 323.852C315.944 308.171 315.771 306.572 318.612 298.451C321.312 290.74 327.856 287.651 331.431 279.94C335.87 277.996 340.071 276.106 341.724 273.805C345.093 269.14 352.07 257.497 354.975 253.566C358.896 248.252 361.606 245.174 365.775 246.665C369.588 248.036 370.095 247.097 370.095 247.097C370.527 244.948 367.903 242.593 364.468 240.606Z" fill="black"/>
<path d="M318.536 298.343C316.376 304.445 315.966 306.864 317.38 314.305C315.08 303.84 311.332 296.28 319.27 286.56C321.884 283.936 326.755 281.884 331.356 279.875C327.781 287.554 321.236 290.642 318.536 298.343Z" fill="#FAFAFA"/>
<path d="M272.334 319.273C269.396 322.762 265.411 323.291 254.719 329.911C244.999 335.948 242.547 348.001 246.824 355.626C250.485 362.171 254.6 367.171 255.259 371.718C256.339 379.127 252.721 382.248 252.721 382.248C252.721 382.248 259.838 379.775 261.123 374.569C261.123 374.569 262.516 380.92 256.63 387.443C256.63 387.443 270.271 390.564 273.068 376.135C275.228 365.044 271.923 358.596 265.098 352.526C259.849 347.861 257.538 339.944 265.4 333.799C274.731 326.542 275.736 322.762 275.736 322.762C275.736 322.762 276.384 319.327 272.334 319.273Z" fill="#263238"/>
<path d="M349.899 214.2C351.608 214.227 353.247 214.884 354.5 216.047C355.364 216.889 358.129 221.965 356.498 223.715C354.867 225.464 350.72 224.276 349.91 220.475C349.91 220.475 343.711 221.22 341.648 218.758C339.585 216.295 342.512 215.215 345.277 214.859L349.899 214.2Z" fill="#F28F8F"/>
<path d="M351.087 216.781C351.087 216.781 348.679 218.833 349.208 220.421C349.64 220.421 349.91 220.421 349.91 220.421C350.114 221.458 350.626 222.41 351.379 223.153C352.172 223.819 353.185 224.162 354.219 224.114C356.379 223.931 355.299 222.181 354.694 220.162C354.09 218.142 352.221 216.36 351.087 216.781Z" fill="#874C4C"/>
<path d="M351.087 216.781C351.962 218.272 350.126 220.864 349.186 221.89C348.17 222.956 347.057 223.925 345.86 224.784C342.62 227.16 341.443 229.104 338.775 232.171C336.108 235.238 335.902 239.58 336.172 243.641C336.313 245.801 337.252 250.024 337.9 254.506C337.555 254.711 337.198 254.916 336.82 255.1C335.321 250.397 333.409 245.836 331.107 241.47C328.947 237.366 327.025 233.575 329.617 226.987C331.41 222.419 330.934 219.427 338.602 216.716C345.46 214.319 342.166 210.01 340.093 208.778C338.019 207.547 336.529 205.798 337.468 204.793C340.784 203.713 343.322 202.795 346.108 204.178C347.89 205.052 349.77 205.722 350.569 207.623C350.848 208.336 351.023 209.085 351.087 209.848C351.184 210.809 351.4 210.928 351.141 211.878C350.773 213.05 350.062 214.085 349.1 214.848C347.729 215.852 346.136 216.511 344.456 216.77C343.905 216.889 343.376 216.965 342.814 217.138C342.663 217.192 342.501 217.278 342.49 217.44C342.48 217.602 342.588 217.678 342.685 217.764C343.41 218.229 344.254 218.473 345.115 218.466C347.244 218.643 349.365 218.045 351.087 216.781Z" fill="#FAFAFA"/>
<path d="M345.385 205.646H345.331C345.115 205.405 344.876 205.184 344.618 204.988C344.238 204.837 343.843 204.725 343.441 204.653C343.149 204.556 342.782 204.264 342.858 203.897C342.858 203.692 343.074 203.594 343.257 203.497C343.837 203.098 344.497 202.829 345.19 202.709C346.035 202.679 346.875 202.861 347.631 203.238C349.791 204.21 350.752 204.804 351.217 205.538C351.681 206.273 350.914 208.778 350.914 208.778C350.91 208.398 350.806 208.025 350.612 207.698C350.05 206.402 348.301 206.435 347.134 206.316C346.5 206.263 345.893 206.031 345.385 205.646Z" fill="#263238"/>
<path opacity="0.1" d="M336.172 243.641C335.892 239.58 336.075 235.303 338.775 232.16C341.475 229.018 342.62 227.171 345.86 224.773C346.292 224.46 346.713 224.125 347.124 223.79C341.508 227.7 336.993 225.702 333.937 228.326C330.88 230.951 332.954 237.474 335.017 240.638C335.478 241.608 335.864 242.612 336.172 243.641Z" fill="black"/>
<path d="M322.381 216.943C323.666 215.15 329.422 210.938 331.993 209.912C334.563 208.886 339.164 214.902 339.153 219.827C339.142 224.752 335.73 234.277 331.939 234.018C328.148 233.759 324.314 219.665 322.543 221.328C320.772 222.991 320.037 220.194 322.381 216.943Z" fill="#37474F"/>
<path d="M270.346 476.78L359.198 425.48V350.863L270.346 402.163V476.78Z" fill="#FCC89B"/>
<path opacity="0.6" d="M270.346 476.78L359.198 425.48V350.863L270.346 402.163V476.78Z" fill="white"/>
<path opacity="0.1" d="M270.346 402.163L286.438 434.747L359.198 392.832V350.863L270.346 402.163Z" fill="black"/>
<path d="M270.346 476.78L181.495 425.48V350.863L270.346 402.163V476.78Z" fill="#FCC89B"/>
<path opacity="0.4" d="M270.346 476.78L181.495 425.48V350.863L270.346 402.163V476.78Z" fill="white"/>
<path opacity="0.1" d="M270.346 402.163L254.265 434.747L181.495 392.832V350.863L270.346 402.163Z" fill="black"/>
<path opacity="0.1" d="M187.554 409.032V417.737C187.636 419.233 188.07 420.688 188.821 421.985C189.571 423.282 190.617 424.383 191.874 425.2L211.53 436.55C213.916 437.922 215.85 436.81 215.85 434.066V425.351C215.766 423.856 215.332 422.403 214.581 421.108C213.831 419.813 212.785 418.714 211.53 417.899L191.874 406.548C189.487 405.176 187.554 406.289 187.554 409.032Z" fill="black"/>
<path d="M181.495 350.863L161.31 376.513L250.226 427.759L270.346 402.163L181.495 350.863Z" fill="#FCC89B"/>
<path opacity="0.6" d="M181.495 350.863L161.31 376.513L250.226 427.759L270.346 402.163L181.495 350.863Z" fill="white"/>
<path d="M359.198 350.863L379.394 376.513L290.478 427.759L270.346 402.163L359.198 350.863Z" fill="#FCC89B"/>
<path opacity="0.4" d="M359.198 350.863L379.394 376.513L290.478 427.759L270.346 402.163L359.198 350.863Z" fill="white"/>
<path d="M227.73 355.356C229.587 360.756 238.4 363.208 244.351 373.64C246.879 378.183 247.753 383.462 246.824 388.577L194.887 358.585L191.334 350.539L227.73 355.356Z" fill="#F0F0F0"/>
<path d="M175.274 367.97C175.371 365.497 176.862 362.182 178.795 359.449C181.908 355.209 186.305 352.084 191.334 350.539L203.376 358.099C190.513 357.667 186.096 364.439 184.897 368.219C184.076 370.822 183.385 372.841 181.862 372.841C181.473 372.87 181.087 372.752 180.781 372.51C180.475 372.268 180.271 371.92 180.21 371.534C180.012 371.763 179.752 371.928 179.461 372.009C179.17 372.091 178.861 372.084 178.574 371.991C178.287 371.897 178.034 371.721 177.846 371.484C177.659 371.247 177.545 370.961 177.52 370.66C177.256 370.796 176.954 370.842 176.661 370.789C176.368 370.737 176.1 370.588 175.9 370.368C175.634 370.035 175.44 369.649 175.332 369.236C175.224 368.823 175.205 368.392 175.274 367.97Z" fill="#F0F0F0"/>
<path d="M175.9 370.325C176.025 370.368 176.157 370.384 176.289 370.373C176.42 370.362 176.548 370.324 176.663 370.261C176.779 370.198 176.881 370.112 176.961 370.007C177.042 369.903 177.1 369.783 177.132 369.655C177.311 369.071 177.565 368.512 177.888 367.992C177.629 368.849 177.512 369.743 177.542 370.638C177.273 370.778 176.965 370.823 176.667 370.766C176.369 370.709 176.099 370.554 175.9 370.325Z" fill="#E0E0E0"/>
<path d="M178.438 371.88C178.759 371.848 179.061 371.713 179.299 371.495C179.536 371.277 179.697 370.987 179.756 370.67C179.854 370.092 180.1 369.549 180.469 369.094C180.248 369.869 180.16 370.676 180.21 371.48C179.983 371.709 179.696 371.868 179.382 371.939C179.069 372.01 178.741 371.989 178.438 371.88Z" fill="#E0E0E0"/>
<path d="M198.44 378.554C198.916 375.326 200.161 372.259 202.069 369.612C204.699 365.721 208.244 362.535 212.394 360.335V357.095C212.394 357.095 227.438 360.173 227.719 370.152C214.618 368.942 209.694 375.552 208.279 379.386C207.285 382 206.454 384.008 204.898 383.922C204.5 383.929 204.114 383.787 203.816 383.523C203.518 383.259 203.33 382.892 203.289 382.496C203.071 382.714 202.793 382.863 202.491 382.924C202.189 382.986 201.875 382.957 201.589 382.842C201.303 382.728 201.056 382.531 200.881 382.278C200.705 382.024 200.607 381.725 200.6 381.416C200.321 381.538 200.01 381.566 199.714 381.496C199.418 381.426 199.153 381.261 198.958 381.028C198.704 380.674 198.527 380.272 198.438 379.846C198.348 379.42 198.349 378.98 198.44 378.554Z" fill="#F0F0F0"/>
<path d="M198.948 381.006C199.073 381.057 199.207 381.082 199.342 381.079C199.477 381.076 199.61 381.045 199.733 380.988C199.855 380.932 199.965 380.85 200.055 380.749C200.145 380.648 200.213 380.53 200.254 380.401C200.471 379.812 200.761 379.254 201.118 378.738C200.8 379.599 200.628 380.509 200.611 381.427C200.326 381.551 200.008 381.576 199.707 381.5C199.406 381.424 199.139 381.25 198.948 381.006Z" fill="#E0E0E0"/>
<path d="M201.453 382.745C201.78 382.733 202.094 382.615 202.347 382.408C202.601 382.201 202.78 381.918 202.857 381.6C202.994 381.012 203.281 380.468 203.689 380.023C203.416 380.804 203.277 381.626 203.278 382.453C203.035 382.673 202.733 382.818 202.409 382.87C202.085 382.921 201.753 382.878 201.453 382.745Z" fill="#E0E0E0"/>
<path d="M191.355 350.539C190.578 350.798 189.789 351.101 189.012 351.436C193.169 355.599 198.233 358.744 203.808 360.626C209.467 362.527 217.912 363.64 225.408 360.929C226.985 360.354 228.408 359.423 229.566 358.207C228.904 357.495 228.361 356.682 227.956 355.799" fill="#E0E0E0"/>
<path d="M208.257 324.608C206.367 319.932 199.282 314.402 193.85 316.595C190.794 317.826 192.954 329.296 192.954 329.296C192.954 329.296 203.192 329.285 208.257 324.608Z" fill="#E0E0E0"/>
<path d="M203.7 327.319C200.231 328.561 196.583 329.229 192.9 329.296C192.9 329.296 190.74 317.826 193.796 316.595C195.859 316.13 201.032 318.852 203.7 327.319Z" fill="#FFA8A7"/>
<path d="M196.788 323.572C196.927 322.554 196.689 321.52 196.118 320.666C197.986 320.515 200.589 322.254 201.054 325.354C201.054 325.354 198.267 330.548 194.152 328.41C193.727 327.633 193.172 326.936 192.511 326.347C192.414 325.548 192.327 324.652 192.273 323.734C193.751 323.374 195.287 323.319 196.788 323.572Z" fill="#F28F8F"/>
<path d="M222.2 328.734C226.38 325.926 235.344 325.332 238.616 330.203C240.452 332.935 230.862 342.245 230.862 342.245C230.862 342.245 223.744 335.441 222.2 328.734Z" fill="#E0E0E0"/>
<path d="M224.425 333.54C227.46 337.979 230.851 342.245 230.851 342.245C230.851 342.245 240.441 332.935 238.605 330.203C237.201 328.68 231.402 328.032 224.425 333.54Z" fill="#FFA8A7"/>
<path d="M230.462 339.988C230.942 339.613 231.482 339.325 232.06 339.134C232.633 338.53 233.281 337.806 233.94 337.039C232.921 335.909 231.682 334.998 230.3 334.361C230.75 333.445 231.518 332.723 232.46 332.33C230.98 331.153 227.632 331.434 225.98 333.756C225.985 334.945 226.231 336.121 226.704 337.212C227.427 338.065 228.097 338.81 228.658 339.372C229.209 339.703 229.824 339.913 230.462 339.988Z" fill="#F28F8F"/>
<path d="M204.434 358.618C209.478 360.313 217.005 361.307 223.68 358.888C231.628 356.004 232.071 344.491 230.16 339.275C228.248 334.058 224.263 328.788 215.18 325.742C206.097 322.697 199.779 324.5 195.124 327.514C190.47 330.527 183.968 339.998 188.644 347.105C192.478 353.077 199.38 356.933 204.434 358.618Z" fill="#F5F5F5"/>
<path d="M204.477 357.419C194.401 354.038 194.941 347.796 197.49 345.226C200.038 342.655 204.25 341.986 209.067 343.562C213.884 345.139 216.832 348.293 217.34 351.889C217.848 355.486 214.543 360.799 204.477 357.419Z" fill="#E0E0E0"/>
<path d="M207.296 348.919L209.661 348.563C209.751 348.544 209.83 348.493 209.884 348.419C209.938 348.345 209.963 348.254 209.953 348.163C209.949 348.12 209.936 348.078 209.915 348.04C209.894 348.002 209.866 347.968 209.831 347.942C209.796 347.915 209.757 347.896 209.715 347.886C209.672 347.876 209.628 347.875 209.586 347.882L207.523 348.196L206 346.716C205.971 346.684 205.935 346.658 205.895 346.64C205.855 346.622 205.812 346.613 205.768 346.613C205.724 346.613 205.681 346.622 205.641 346.64C205.601 346.658 205.565 346.684 205.536 346.716C205.476 346.783 205.444 346.869 205.444 346.959C205.444 347.048 205.476 347.135 205.536 347.202L207.296 348.919Z" fill="#455A64"/>
<path d="M209.002 354.017C209.407 353.999 209.803 353.889 210.158 353.693C210.81 353.338 211.301 352.747 211.53 352.04C211.558 351.957 211.554 351.866 211.518 351.786C211.482 351.706 211.417 351.642 211.335 351.608C211.249 351.585 211.157 351.595 211.079 351.637C211.001 351.679 210.941 351.75 210.914 351.835C210.726 352.375 210.34 352.823 209.834 353.088C209.6 353.217 209.342 353.296 209.076 353.32C208.811 353.344 208.543 353.313 208.29 353.228C208.031 353.141 207.794 353 207.595 352.813C207.396 352.627 207.238 352.4 207.134 352.148C206.893 351.637 206.862 351.052 207.048 350.518L207.674 348.628C207.69 348.586 207.697 348.543 207.696 348.499C207.694 348.455 207.684 348.411 207.666 348.371C207.648 348.331 207.622 348.295 207.59 348.265C207.558 348.235 207.521 348.211 207.48 348.196C207.394 348.172 207.302 348.182 207.223 348.224C207.145 348.267 207.086 348.338 207.058 348.422L206.432 350.312C206.193 351.02 206.232 351.792 206.54 352.472C206.686 352.796 206.896 353.086 207.158 353.326C207.42 353.565 207.728 353.749 208.063 353.866C208.364 353.975 208.682 354.026 209.002 354.017Z" fill="#455A64"/>
<path d="M204.564 352.526C204.969 352.514 205.366 352.403 205.719 352.202C206.374 351.851 206.865 351.258 207.091 350.55L207.717 348.66C207.733 348.619 207.74 348.575 207.739 348.531C207.738 348.487 207.728 348.444 207.709 348.404C207.691 348.364 207.666 348.327 207.634 348.297C207.602 348.267 207.564 348.244 207.523 348.228C207.437 348.204 207.345 348.214 207.267 348.257C207.188 348.299 207.129 348.37 207.102 348.455L206.475 350.345C206.288 350.885 205.901 351.333 205.395 351.598C205.161 351.726 204.903 351.805 204.638 351.829C204.372 351.854 204.104 351.822 203.851 351.738C203.332 351.546 202.911 351.156 202.678 350.655C202.445 350.153 202.42 349.58 202.609 349.06C202.626 349.019 202.635 348.975 202.634 348.93C202.633 348.886 202.624 348.842 202.605 348.801C202.587 348.761 202.561 348.725 202.528 348.695C202.495 348.665 202.456 348.642 202.414 348.628C202.328 348.604 202.237 348.614 202.158 348.656C202.08 348.699 202.021 348.77 201.993 348.854C201.748 349.542 201.783 350.299 202.09 350.961C202.397 351.624 202.952 352.139 203.635 352.397C203.933 352.499 204.249 352.543 204.564 352.526Z" fill="#455A64"/>
<path d="M197.544 338.4C197.425 338.842 197.438 339.31 197.582 339.745C197.727 340.18 197.995 340.563 198.355 340.847C198.714 341.131 199.149 341.303 199.606 341.343C200.062 341.382 200.52 341.287 200.923 341.068C201.326 340.85 201.656 340.519 201.873 340.115C202.089 339.711 202.182 339.253 202.141 338.796C202.1 338.34 201.926 337.906 201.64 337.548C201.355 337.189 200.971 336.922 200.535 336.78C200.232 336.689 199.915 336.658 199.6 336.691C199.285 336.723 198.98 336.817 198.702 336.967C198.424 337.118 198.179 337.322 197.98 337.568C197.781 337.814 197.633 338.097 197.544 338.4Z" fill="#455A64"/>
<path d="M221.347 346.424C221.174 346.847 220.882 347.211 220.506 347.47C220.13 347.729 219.686 347.872 219.23 347.883C218.773 347.893 218.324 347.77 217.936 347.528C217.549 347.286 217.24 346.937 217.049 346.522C216.857 346.108 216.791 345.646 216.859 345.194C216.926 344.743 217.124 344.321 217.428 343.98C217.732 343.639 218.128 343.394 218.57 343.276C219.011 343.158 219.477 343.171 219.91 343.314C220.21 343.422 220.485 343.589 220.72 343.804C220.955 344.02 221.145 344.28 221.278 344.569C221.412 344.858 221.487 345.171 221.498 345.49C221.51 345.808 221.459 346.126 221.347 346.424Z" fill="#455A64"/>
<path d="M227.784 350.053C227.917 350.043 228.041 349.981 228.129 349.88C229.179 348.558 230.612 347.591 232.232 347.114C233.852 346.636 235.58 346.671 237.18 347.213C237.243 347.231 237.309 347.236 237.374 347.229C237.439 347.221 237.502 347.2 237.559 347.168C237.617 347.136 237.667 347.093 237.708 347.041C237.748 346.99 237.778 346.93 237.795 346.867C237.819 346.806 237.831 346.741 237.829 346.676C237.827 346.61 237.812 346.546 237.785 346.486C237.758 346.427 237.719 346.374 237.671 346.33C237.622 346.285 237.565 346.252 237.504 346.23C232.795 344.664 229.425 346.975 227.438 349.189C227.344 349.286 227.291 349.416 227.291 349.551C227.291 349.686 227.344 349.816 227.438 349.913C227.484 349.958 227.538 349.993 227.597 350.017C227.656 350.042 227.72 350.054 227.784 350.053Z" fill="#455A64"/>
<path d="M228.864 351.295C228.956 351.29 229.045 351.26 229.123 351.209C230.046 350.69 231.069 350.37 232.124 350.272C233.179 350.173 234.243 350.297 235.246 350.636C235.307 350.66 235.372 350.672 235.438 350.67C235.503 350.668 235.568 350.654 235.627 350.626C235.687 350.599 235.74 350.56 235.784 350.512C235.828 350.463 235.862 350.407 235.884 350.345C235.939 350.223 235.944 350.084 235.897 349.959C235.851 349.834 235.756 349.732 235.635 349.675C234.485 349.281 233.264 349.136 232.053 349.252C230.842 349.367 229.67 349.74 228.615 350.345C228.504 350.422 228.425 350.538 228.395 350.67C228.365 350.802 228.386 350.94 228.453 351.058C228.493 351.131 228.552 351.192 228.625 351.234C228.697 351.276 228.78 351.297 228.864 351.295Z" fill="#455A64"/>
<path d="M236.424 355.356C236.497 355.355 236.57 355.337 236.636 355.303C236.701 355.27 236.758 355.221 236.802 355.162C236.886 355.057 236.928 354.924 236.918 354.789C236.908 354.655 236.847 354.529 236.748 354.438C235.54 353.395 234.098 352.66 232.544 352.295C230.991 351.93 229.373 351.947 227.827 352.343C227.7 352.389 227.594 352.481 227.53 352.601C227.466 352.72 227.449 352.859 227.481 352.991C227.497 353.054 227.526 353.113 227.566 353.164C227.605 353.216 227.654 353.259 227.711 353.291C227.767 353.323 227.829 353.344 227.894 353.352C227.958 353.36 228.024 353.354 228.086 353.336C229.478 352.979 230.937 352.966 232.335 353.299C233.733 353.633 235.029 354.301 236.11 355.248C236.197 355.323 236.309 355.362 236.424 355.356Z" fill="#455A64"/>
<path d="M191.204 337.914C191.336 337.888 191.453 337.814 191.533 337.706C191.612 337.598 191.649 337.464 191.636 337.331C191.366 334.361 190.048 330.484 185.35 328.885C185.223 328.852 185.087 328.868 184.971 328.931C184.855 328.994 184.768 329.099 184.726 329.224C184.685 329.35 184.693 329.486 184.749 329.606C184.805 329.725 184.904 329.819 185.026 329.868C186.624 330.404 188.02 331.415 189.028 332.766C190.035 334.117 190.606 335.744 190.664 337.428C190.662 337.497 190.675 337.566 190.702 337.63C190.729 337.693 190.77 337.75 190.821 337.796C190.872 337.843 190.933 337.877 191 337.898C191.066 337.918 191.135 337.923 191.204 337.914Z" fill="#455A64"/>
<path d="M189.595 338.26H189.757C189.882 338.207 189.983 338.108 190.039 337.984C190.095 337.86 190.103 337.719 190.059 337.59C189.576 336.471 188.861 335.468 187.962 334.645C187.063 333.822 186 333.199 184.843 332.816C184.71 332.782 184.568 332.802 184.45 332.872C184.331 332.942 184.245 333.056 184.211 333.189C184.177 333.322 184.197 333.464 184.266 333.582C184.336 333.701 184.45 333.786 184.584 333.821C185.59 334.157 186.515 334.699 187.3 335.413C188.085 336.128 188.712 336.998 189.141 337.968C189.177 338.058 189.24 338.134 189.321 338.186C189.403 338.239 189.498 338.264 189.595 338.26Z" fill="#455A64"/>
<path d="M189.098 340.452C189.202 340.452 189.302 340.413 189.379 340.344C189.487 340.26 189.558 340.139 189.578 340.004C189.598 339.869 189.565 339.732 189.487 339.62C188.494 338.372 187.215 337.383 185.758 336.736C184.3 336.089 182.708 335.804 181.117 335.905C180.982 335.919 180.858 335.984 180.77 336.086C180.681 336.188 180.635 336.321 180.642 336.456C180.64 336.52 180.652 336.584 180.676 336.644C180.699 336.703 180.735 336.757 180.781 336.803C180.826 336.848 180.88 336.884 180.94 336.908C181 336.932 181.063 336.943 181.128 336.942C182.562 336.843 183.999 337.093 185.315 337.67C186.632 338.248 187.789 339.135 188.688 340.258C188.734 340.322 188.796 340.374 188.867 340.408C188.939 340.442 189.019 340.457 189.098 340.452Z" fill="#455A64"/>
<path d="M201.475 324.976C201.032 322.945 199.11 320.45 197.23 320.45C197.732 321.347 197.889 322.395 197.673 323.399C197.673 323.399 192.878 322.135 191.193 324.371C192.027 324.644 192.778 325.122 193.379 325.762C193.979 326.402 194.408 327.183 194.628 328.032C198.505 330.473 201.475 324.976 201.475 324.976Z" fill="#F5F5F5"/>
<path d="M226.52 333.745C228.14 332.428 230.84 332.104 232.33 333.281C231.388 333.673 230.621 334.395 230.17 335.311C230.17 335.311 234.706 337.32 234.674 340.15C233.926 339.878 233.118 339.813 232.337 339.964C231.555 340.114 230.829 340.473 230.235 341.003C225.613 340.452 226.52 333.745 226.52 333.745Z" fill="#F5F5F5"/>
<path d="M286.179 371.718C286.153 371.912 286.089 372.1 285.99 372.269C285.891 372.438 285.76 372.587 285.605 372.706C285.449 372.825 285.271 372.912 285.081 372.962C284.892 373.012 284.694 373.024 284.5 372.998C284.305 372.972 284.118 372.907 283.949 372.809C283.779 372.71 283.631 372.579 283.512 372.423C283.393 372.267 283.306 372.089 283.256 371.9C283.206 371.71 283.194 371.513 283.22 371.318C283.782 367.074 282.205 363.877 278.9 362.57C277.064 361.914 275.063 361.881 273.206 362.476C271.349 363.072 269.741 364.262 268.629 365.864C266.782 368.424 266.944 371.394 267.128 374.839C267.366 379.159 267.625 384.041 263.694 388.793C261.493 391.209 258.58 392.862 255.378 393.512L251.252 391.136C255.021 390.888 259.201 389.549 261.393 386.892C264.633 383.036 264.374 379.127 264.147 375.012C263.953 371.34 263.748 367.549 266.199 364.136C267.704 361.998 269.872 360.415 272.367 359.634C274.863 358.853 277.546 358.917 280.002 359.816C283.566 361.21 287.054 365.087 286.179 371.718Z" fill="#F0F0F0"/>
<path d="M105.258 132.001C104.726 130.608 103.704 129.456 102.385 128.761C101.618 128.362 100.775 128.128 99.9114 128.076C99.048 128.024 98.1832 128.154 97.3736 128.459C94.4468 129.539 93.2264 133.664 93.9284 136.624C92.492 133.934 88.874 131.634 85.958 132.736C85.1466 133.039 84.4085 133.51 83.7924 134.119C83.1762 134.727 82.696 135.46 82.3832 136.267C81.8564 137.659 81.8564 139.195 82.3832 140.587C84.0896 145.134 89.2412 146.063 93.896 147.726L98.7884 149.454L101.24 144.94C103.692 140.641 106.964 136.548 105.258 132.001Z" fill="#EF7672"/>
<path d="M357.535 165.73C356.999 164.338 355.979 163.188 354.662 162.49C353.896 162.086 353.054 161.849 352.19 161.795C351.326 161.741 350.461 161.871 349.651 162.176C346.724 163.256 345.504 167.382 346.206 170.341C344.78 167.652 341.151 165.352 338.235 166.453C337.424 166.745 336.684 167.205 336.062 167.802C335.441 168.399 334.952 169.121 334.628 169.92C334.109 171.313 334.109 172.847 334.628 174.24C336.334 178.776 341.497 179.716 346.141 181.368L351.033 183.096L353.593 178.582C355.969 174.37 359.241 170.276 357.535 165.73Z" fill="#EF7672"/>
<path d="M237.514 138.244C238.157 136.895 238.284 135.359 237.871 133.924C237.629 133.1 237.216 132.337 236.657 131.685C236.098 131.034 235.408 130.508 234.631 130.144C231.844 128.815 228.086 130.759 226.455 133.286C227.395 130.424 226.552 126.277 223.766 124.949C222.995 124.578 222.155 124.376 221.3 124.356C220.446 124.335 219.596 124.497 218.809 124.83C217.452 125.412 216.354 126.467 215.72 127.8C213.646 132.12 216.519 136.44 218.517 140.879L220.677 145.544L225.634 144.259C230.289 143.039 235.441 142.574 237.514 138.244Z" fill="#EF7672"/>
<path d="M492.848 141.246C493.502 139.901 493.629 138.36 493.204 136.926C492.964 136.102 492.55 135.339 491.991 134.687C491.433 134.035 490.742 133.51 489.964 133.146C487.189 131.818 483.43 133.762 481.789 136.289C482.728 133.438 481.886 129.28 479.1 127.951C478.328 127.584 477.488 127.383 476.634 127.362C475.779 127.342 474.93 127.502 474.142 127.832C472.775 128.409 471.665 129.465 471.021 130.802C468.958 135.122 471.831 139.442 473.829 143.881L475.989 148.547L480.957 147.262C485.634 146.041 490.785 145.577 492.848 141.246Z" fill="#EF7672"/>
</svg>
