<svg width="336" height="354" viewBox="0 0 336 354" fill="none" xmlns="http://www.w3.org/2000/svg">
<g clip-path="url(#clip0)">
<path fill-rule="evenodd" clip-rule="evenodd" d="M191.516 30.7422C220.725 20.0788 254.935 33.9018 280.984 50.8692C306.538 67.5147 325.792 94.1461 333.936 123.51C341.434 150.546 326.268 177.674 323.904 205.629C321.775 230.821 330.109 256.644 320.697 280.113C310.69 305.067 293.073 327.54 269.682 340.839C246.343 354.108 218.342 354.834 191.516 353.559C165.558 352.324 142.481 340.869 117.533 333.603C84.6682 324.031 33.31 335.838 21.0579 303.913C7.80262 269.375 71.463 242.491 68.4179 205.629C64.9056 163.111 -19.071 133.413 4.00762 97.5127C27.7201 60.6268 91.8895 119.53 133.231 104.809C163.36 94.08 161.473 41.7097 191.516 30.7422Z" fill="#FCC89B" fill-opacity="0.25"/>
<path d="M335.522 294.034H-28V294.216H335.522V294.034Z" fill="#EBEBEB"/>
<path d="M299.097 305.732H275.017V305.914H299.097V305.732Z" fill="#EBEBEB"/>
<path d="M212.812 307.71H206.494V307.892H212.812V307.71Z" fill="#EBEBEB"/>
<path d="M274.29 298.985H260.338V299.167H274.29V298.985Z" fill="#EBEBEB"/>
<path d="M41.5419 300.207H10.1409V300.389H41.5419V300.207Z" fill="#EBEBEB"/>
<path d="M52.622 300.207H48.0198V300.389H52.622V300.207Z" fill="#EBEBEB"/>
<path d="M135.694 303.275H67.5845V303.457H135.694V303.275Z" fill="#EBEBEB"/>
<path d="M144.31 261.608H3.92467C2.8249 261.606 1.77084 261.168 0.99387 260.39C0.216899 259.611 -0.219484 258.556 -0.219482 257.457V60.1151C-0.209909 59.0216 0.230699 57.9761 1.00664 57.2056C1.78257 56.4351 2.83117 56.0019 3.92467 56H144.31C145.411 56 146.467 56.4374 147.245 57.2159C148.024 57.9945 148.461 59.0504 148.461 60.1514V257.457C148.461 258.558 148.024 259.614 147.245 260.392C146.467 261.171 145.411 261.608 144.31 261.608ZM3.92467 56.1454C2.87311 56.1473 1.86528 56.5664 1.12239 57.3107C0.37951 58.0549 -0.0377232 59.0635 -0.0377214 60.1151V257.457C-0.0377232 258.508 0.37951 259.517 1.12239 260.261C1.86528 261.005 2.87311 261.424 3.92467 261.426H144.31C145.362 261.424 146.37 261.005 147.114 260.261C147.858 259.517 148.277 258.509 148.279 257.457V60.1151C148.277 59.0628 147.858 58.0543 147.114 57.3102C146.37 56.5662 145.362 56.1473 144.31 56.1454H3.92467Z" fill="#EBEBEB"/>
<path d="M301.576 261.608H161.184C160.084 261.606 159.029 261.168 158.251 260.39C157.473 259.612 157.035 258.557 157.033 257.457V60.1151C157.044 59.0209 157.486 57.9754 158.264 57.2051C159.041 56.4349 160.09 56.0019 161.184 56H301.576C302.669 56.0038 303.715 56.4379 304.49 57.2081C305.264 57.9784 305.704 59.0229 305.713 60.1151V257.457C305.713 258.555 305.278 259.609 304.502 260.387C303.727 261.165 302.675 261.604 301.576 261.608ZM161.184 56.1454C160.132 56.1473 159.123 56.5662 158.379 57.3102C157.635 58.0543 157.216 59.0628 157.214 60.1151V257.457C157.216 258.509 157.635 259.517 158.379 260.261C159.123 261.005 160.132 261.424 161.184 261.426H301.576C302.629 261.424 303.637 261.005 304.381 260.261C305.125 259.517 305.544 258.509 305.546 257.457V60.1151C305.544 59.0628 305.125 58.0543 304.381 57.3102C303.637 56.5662 302.629 56.1473 301.576 56.1454H161.184Z" fill="#EBEBEB"/>
<path d="M121.596 291.497H192.854V232.955H121.596L121.596 291.497Z" fill="#E0E0E0"/>
<path d="M121.117 234.358V290.108H118.252V293.169H196.206V290.108H194.068V234.358H196.206V231.298H118.252V234.358H121.117ZM177.695 290.108H172.853V234.358H177.695V290.108ZM179.935 234.358H184.784V290.108H179.935V234.358ZM170.621 290.108H165.779V234.358H170.621V290.108ZM163.554 290.108H158.705V234.358H163.554V290.108ZM156.48 290.108H151.631V234.358H156.48V290.108ZM149.399 290.108H144.557V234.358H149.399V290.108ZM142.325 290.108H137.483V234.358H142.325V290.108ZM135.258 290.108H130.408V234.358H135.258V290.108ZM191.836 290.108H186.987V234.358H191.836V290.108ZM123.334 234.373H128.184V290.108H123.334V234.373Z" fill="#EBEBEB"/>
<path d="M121.596 229.356H192.854V170.815H121.596L121.596 229.356Z" fill="#F0F0F0"/>
<path d="M121.117 172.225V227.953H118.252V231.014H196.206V227.953H194.068V172.225H196.206V169.164H118.252V172.225H121.117ZM177.695 227.953H172.853V172.225H177.695V227.953ZM179.935 172.225H184.784V227.953H179.935V172.225ZM170.636 227.953H165.794V172.225H170.636V227.953ZM163.569 227.953H158.705V172.225H163.554L163.569 227.953ZM156.495 227.953H151.645V172.225H156.495V227.953ZM149.421 227.953H144.578V172.225H149.399L149.421 227.953ZM142.346 227.953H137.504V172.225H142.346V227.953ZM135.28 227.953H130.43V172.225H135.28V227.953ZM191.858 227.953H187.009V172.225H191.858V227.953ZM123.356 172.225H128.205V227.953H123.356V172.225Z" fill="#FAFAFA"/>
<path d="M164.232 98.0598C170.918 91.3732 170.918 80.5323 164.232 73.8458C157.545 67.1592 146.704 67.1592 140.018 73.8458C133.331 80.5323 133.331 91.3732 140.018 98.0598C146.704 104.746 157.545 104.746 164.232 98.0598Z" fill="#E0E0E0"/>
<path d="M160.118 98.1216C166.841 93.706 168.71 84.6769 164.295 77.9548C159.879 71.2326 150.85 69.3627 144.128 73.7784C137.406 78.1941 135.536 87.2231 139.952 93.9453C144.367 100.667 153.396 102.537 160.118 98.1216Z" fill="#F0F0F0"/>
<path d="M152.816 75.9646V86.1432L159.563 82.3262" fill="#F0F0F0"/>
<path d="M152.816 75.9646V86.1432L159.563 82.3262" stroke="#E0E0E0" stroke-width="2" stroke-linecap="round" stroke-linejoin="round"/>
<path d="M294.866 87.7209H228.981V174.988H294.866V87.7209Z" fill="#F5F5F5"/>
<path d="M292.074 90.411H231.795V172.291H292.074V90.411Z" fill="#E6E6E6"/>
<path d="M292.067 90.411V172.327H231.795V169.717C237.873 163.544 249.389 157.088 250.087 152.333C251.156 145.114 238.927 144.336 243.544 133.83C248.16 123.324 275.803 126.959 282.004 116.766C288.206 106.573 279.881 102.676 276.69 97.0053C275.577 95.035 276.079 92.6794 277.191 90.4619L292.067 90.411Z" fill="#EBEBEB"/>
<path d="M258.179 103.112L263.734 99.5427C264.919 101.397 263.734 107.307 263.734 107.307L266.809 113.422C266.809 113.422 260.666 121.681 254.522 122.648C248.379 123.615 237.975 117.224 237.975 117.224L239.712 110.775C238.695 109.419 238.009 107.844 237.707 106.175C237.406 104.507 237.497 102.791 237.975 101.164L244.969 104.13C244.969 104.13 252.465 99.4772 258.179 103.112Z" fill="#F0F0F0"/>
<path d="M249.673 112.448L254.282 111.801L252.45 114.636L249.673 112.448Z" fill="#E0E0E0"/>
<path d="M246.169 111.255C246.169 111.859 245.921 112.346 245.623 112.346C245.325 112.346 245.078 111.859 245.078 111.255C245.078 110.652 245.325 110.172 245.623 110.172C245.921 110.172 246.169 110.63 246.169 111.255Z" fill="#E0E0E0"/>
<path d="M258.15 110.056C258.245 110.645 258.085 111.168 257.787 111.212C257.489 111.255 257.176 110.819 257.06 110.23C256.943 109.641 257.132 109.118 257.423 109.074C257.714 109.031 258.056 109.467 258.15 110.056Z" fill="#E0E0E0"/>
<path d="M252.45 114.636C252.45 114.636 252.348 117.348 250.087 117.173C250.6 117.382 251.174 117.382 251.686 117.173C251.686 117.173 252.348 119.558 253.279 119.558C254.209 119.558 254.282 116.854 254.282 116.854C254.282 116.854 255.496 116.941 255.983 116.279C255.983 116.279 253.191 117.566 252.617 113.887L252.45 114.636Z" fill="#E0E0E0"/>
<path d="M240.076 108.972C240.076 108.972 241.137 106.45 242.599 105.388L238.571 102.48C238.571 102.48 237.589 106.624 240.076 108.972Z" fill="#E0E0E0"/>
<path d="M259.909 103.927C259.909 103.927 262.214 105.257 262.97 106.675C262.97 106.675 264.032 103.345 263.232 101.266L259.909 103.927Z" fill="#E0E0E0"/>
<path d="M277.635 137.836C275.999 136.825 273.956 132.827 265.239 134.012C256.521 135.197 254.871 142.009 262.672 145.826C270.473 149.643 280.194 139.414 277.635 137.836Z" fill="#E0E0E0"/>
<path d="M276.937 137.553C271.419 135.575 266.656 132.856 263.646 140.57C263.646 140.57 257.532 137.909 256.914 142.075C256.296 146.241 258.245 153.86 262.941 157.67C267.638 161.48 277.206 162.548 281.903 158.913C286.599 155.278 286.33 140.926 276.937 137.553Z" fill="#F5F5F5"/>
<path d="M259.924 141.1L263.545 143.136L259.924 144.292V141.1Z" fill="#E0E0E0"/>
<path d="M260.724 143.245C260.295 144.025 260.07 144.9 260.07 145.79C260.07 146.68 260.295 147.555 260.724 148.335C262.142 151.243 265.239 149.92 265.239 149.92C265.239 149.92 262.011 153.373 260.092 152.043C258.172 150.712 260.092 148.945 260.092 148.945C260.092 148.945 258.318 147.971 257.612 145.041C257.612 145.041 258.463 146.684 259.394 146.997C259.394 146.953 259.183 144.038 260.724 143.245Z" fill="#E0E0E0"/>
<path d="M271.368 144.445C271.2 145.019 270.83 145.419 270.539 145.332C270.248 145.245 270.153 144.714 270.321 144.14C270.488 143.565 270.859 143.165 271.15 143.253C271.44 143.34 271.542 143.871 271.368 144.445Z" fill="#E0E0E0"/>
<path d="M265.159 140.853C264.992 141.428 264.621 141.828 264.337 141.748C264.054 141.668 263.952 141.122 264.119 140.548C264.286 139.974 264.657 139.574 264.941 139.661C265.224 139.748 265.326 140.279 265.159 140.853Z" fill="#E0E0E0"/>
<path d="M283.706 140.155C280.07 136.52 274.37 140.468 274.254 148.291C274.138 156.114 272.364 157.524 275.788 157.641C279.213 157.757 285.356 158.368 286.897 156.463C288.439 154.558 287.13 143.58 283.706 140.155Z" fill="#E0E0E0"/>
<path d="M214.789 99.31H181.163V143.849H214.789V99.31Z" fill="#EBEBEB"/>
<path d="M213.357 100.684H182.596V142.475H213.357V100.684Z" fill="#F5F5F5"/>
<path d="M193.545 125.069C194.541 120.671 203.971 118.62 207.148 122.219C210.325 125.818 206.973 132.521 201.099 132.776C195.508 133.067 192.033 131.736 193.545 125.069Z" fill="#EBEBEB"/>
<path d="M199.259 117.559C196.446 117.602 195.624 110.906 197.805 110.332C199.986 109.758 203.004 117.508 199.259 117.559Z" fill="#EBEBEB"/>
<path d="M205.018 117.559C204.007 117.028 201.95 111.328 204.436 110.972C206.922 110.616 209.998 120.191 205.018 117.559Z" fill="#EBEBEB"/>
<path d="M192.84 120.394C193.429 120.023 194.374 114.578 190.826 113.931C187.278 113.284 189.481 122.51 192.84 120.394Z" fill="#EBEBEB"/>
<path d="M191.211 127.396C192.425 125.491 190.731 122.125 188.426 122.408C186.122 122.692 189.015 130.842 191.211 127.396Z" fill="#EBEBEB"/>
<path d="M153.761 326.867C231.615 326.867 294.728 323.183 294.728 318.637C294.728 314.092 231.615 310.407 153.761 310.407C75.9076 310.407 12.7947 314.092 12.7947 318.637C12.7947 323.183 75.9076 326.867 153.761 326.867Z" fill="#F5F5F5"/>
<path d="M22.0571 205.655H111.294L111.294 132.34H22.0571L22.0571 205.655Z" fill="#004FB3"/>
<path opacity="0.4" d="M111.294 132.34H22.0498V205.655H111.294V132.34Z" fill="white"/>
<path d="M67.7736 183.116C68.7136 183.121 69.6509 183.014 70.5654 182.796C70.7965 182.736 71.0133 182.63 71.2036 182.486C71.3939 182.341 71.5538 182.161 71.6743 181.955C71.7948 181.748 71.8735 181.52 71.906 181.284C71.9384 181.047 71.9238 180.806 71.8632 180.575C71.8026 180.344 71.697 180.127 71.5526 179.937C71.4082 179.747 71.2277 179.587 71.0214 179.466C70.8152 179.346 70.5872 179.267 70.3505 179.235C70.1139 179.202 69.8731 179.217 69.6421 179.278C69.5985 179.278 65.7888 180.223 63.9348 178.005C63.3799 177.383 62.9727 176.643 62.7435 175.841C62.5144 175.039 62.4693 174.196 62.6116 173.374C63.106 170.946 65.5198 168.583 69.4821 166.554C77.1088 162.686 75.7565 158.346 75.1604 157.103C73.9171 154.507 70.5945 153.024 68.3407 154.049C68.1181 154.144 67.9168 154.283 67.7486 154.457C67.5804 154.632 67.4487 154.838 67.3612 155.063C67.2737 155.289 67.2322 155.53 67.2392 155.772C67.2461 156.014 67.3013 156.252 67.4016 156.473C67.5019 156.693 67.6451 156.891 67.823 157.055C68.0009 157.22 68.2099 157.347 68.4375 157.429C68.6652 157.512 68.9071 157.548 69.1489 157.535C69.3907 157.523 69.6276 157.462 69.8457 157.357C70.2913 157.392 70.7195 157.545 71.0863 157.801C71.453 158.057 71.745 158.405 71.9323 158.811C72.4267 160.069 70.8563 161.807 67.839 163.333C62.7497 165.922 59.7906 169.055 59.0491 172.669C58.799 174.02 58.8574 175.411 59.22 176.736C59.5825 178.062 60.2399 179.288 61.1429 180.324C61.972 181.252 62.997 181.984 64.1438 182.467C65.2906 182.95 66.5305 183.172 67.7736 183.116Z" fill="#004FB3"/>
<g opacity="0.8">
<path opacity="0.8" d="M67.7736 183.116C68.7136 183.121 69.6509 183.014 70.5654 182.796C70.7965 182.736 71.0133 182.63 71.2036 182.486C71.3939 182.341 71.5538 182.161 71.6743 181.955C71.7948 181.748 71.8735 181.52 71.906 181.284C71.9384 181.047 71.9238 180.806 71.8632 180.575C71.8026 180.344 71.697 180.127 71.5526 179.937C71.4082 179.747 71.2277 179.587 71.0214 179.466C70.8152 179.346 70.5872 179.267 70.3505 179.235C70.1139 179.202 69.8731 179.217 69.6421 179.278C69.5985 179.278 65.7888 180.223 63.9348 178.005C63.3799 177.383 62.9727 176.643 62.7435 175.841C62.5144 175.039 62.4693 174.196 62.6116 173.374C63.106 170.946 65.5198 168.583 69.4821 166.554C77.1088 162.686 75.7565 158.346 75.1604 157.103C73.9171 154.507 70.5945 153.024 68.3407 154.049C68.1181 154.144 67.9168 154.283 67.7486 154.457C67.5804 154.632 67.4487 154.838 67.3612 155.063C67.2737 155.289 67.2322 155.53 67.2392 155.772C67.2461 156.014 67.3013 156.252 67.4016 156.473C67.5019 156.693 67.6451 156.891 67.823 157.055C68.0009 157.22 68.2099 157.347 68.4375 157.429C68.6652 157.512 68.9071 157.548 69.1489 157.535C69.3907 157.523 69.6276 157.462 69.8457 157.357C70.2913 157.392 70.7195 157.545 71.0863 157.801C71.453 158.057 71.745 158.405 71.9323 158.811C72.4267 160.069 70.8563 161.807 67.839 163.333C62.7497 165.922 59.7906 169.055 59.0491 172.669C58.799 174.02 58.8574 175.411 59.22 176.736C59.5825 178.062 60.2399 179.288 61.1429 180.324C61.972 181.252 62.997 181.984 64.1438 182.467C65.2906 182.95 66.5305 183.172 67.7736 183.116Z" fill="white"/>
</g>
<path d="M90.2756 185.785C90.4283 185.436 90.5883 185.057 90.7555 184.723C92.4204 184.483 94.0781 184.185 95.7357 183.916C94.631 190.389 93.0465 196.77 90.9954 203.008C90.9954 203.008 93.7218 202.899 92.7985 204.659H88.5235C88.0363 204.07 92.813 193.666 90.2756 185.785Z" fill="#004FB3"/>
<path d="M81.5291 185.93C81.5291 185.93 79.5516 191.943 75.6473 195.876L78.5919 202.819C78.5919 202.819 80.9548 203.357 80.4749 204.659H77.1741C77.1741 204.659 72.6156 197.032 72.4265 196.218C72.2375 195.403 71.3723 186.962 71.3723 186.962L81.5291 185.93Z" fill="#004FB3"/>
<path opacity="0.8" d="M90.2756 185.785C90.4283 185.436 90.5883 185.057 90.7555 184.723C92.4204 184.483 94.0781 184.185 95.7357 183.916C94.631 190.389 93.0465 196.77 90.9954 203.008C90.9954 203.008 93.7218 202.899 92.7985 204.659H88.5235C88.0363 204.07 92.813 193.666 90.2756 185.785Z" fill="white"/>
<path opacity="0.8" d="M81.5291 185.93C81.5291 185.93 79.5516 191.943 75.6473 195.876L78.5919 202.819C78.5919 202.819 80.9548 203.357 80.4749 204.659H77.1741C77.1741 204.659 72.6156 197.032 72.4265 196.218C72.2375 195.403 71.3723 186.962 71.3723 186.962L81.5291 185.93Z" fill="white"/>
<path d="M67.4028 180.673C69.8238 177.256 73.9461 178.805 85.9424 174.712C97.9386 170.618 93.1328 157.837 93.1328 157.837L97.1316 161.051L101.378 158.608C102.091 159.422 102.596 160.397 102.849 161.449C103.102 162.502 103.096 163.6 102.832 164.649C101.966 168.386 99.1964 174.232 98.8983 178.558L101.152 186.315C101.152 186.315 108.772 187.908 109.448 189.529C110.124 191.15 108.968 193.731 108.968 193.731L106.852 193.564L107.957 190.656C104.46 189.478 98.5057 189.369 97.2697 188.787C95.5466 187.909 94.0337 186.669 92.8347 185.152C92.0423 185.814 87.2656 189.325 74.9277 189.245C74.9277 189.245 70.7908 194.793 66.4939 196.189L65.8105 202.899C65.8105 202.899 68.4133 203.008 68.3188 204.608H63.7166L63.2659 195.12C65.9996 188.038 65.0617 183.996 67.4028 180.673Z" fill="#004FB3"/>
<path opacity="0.9" d="M67.4028 180.673C69.8238 177.256 73.9461 178.805 85.9424 174.712C97.9386 170.618 93.1328 157.837 93.1328 157.837L97.1316 161.051L101.378 158.608C102.091 159.422 102.596 160.397 102.849 161.449C103.102 162.502 103.096 163.6 102.832 164.649C101.966 168.386 99.1964 174.232 98.8983 178.558L101.152 186.315C101.152 186.315 108.772 187.908 109.448 189.529C110.124 191.15 108.968 193.731 108.968 193.731L106.852 193.564L107.957 190.656C104.46 189.478 98.5057 189.369 97.2697 188.787C95.5466 187.909 94.0337 186.669 92.8347 185.152C92.0423 185.814 87.2656 189.325 74.9277 189.245C74.9277 189.245 70.7908 194.793 66.4939 196.189L65.8105 202.899C65.8105 202.899 68.4133 203.008 68.3188 204.608H63.7166L63.2659 195.12C65.9996 188.038 65.0617 183.996 67.4028 180.673Z" fill="white"/>
<path d="M100.919 158.797C100.919 158.797 101.327 158.44 101.472 158.44C101.617 158.44 101.799 159.131 101.799 159.131L100.919 158.797Z" fill="#A24E3F"/>
<path opacity="0.2" d="M97.1315 161.051C96.6298 161.463 96.174 161.929 95.772 162.439L94.187 159.131L97.1315 161.051Z" fill="black"/>
<path opacity="0.2" d="M22.0498 132.34V150.138L111.294 194.007V132.34H22.0498Z" fill="black"/>
<path d="M21.4391 134.092V203.888H17.8621V207.719H115.49V203.888H112.814V134.092H115.49V130.26H17.8621V134.092H21.4391ZM92.3041 203.888H86.2333V134.092H92.3041V203.888ZM95.0887 134.092H101.159V203.888H95.0887V134.092ZM83.456 203.888H77.4215V134.092H83.485L83.456 203.888ZM74.6006 203.888H68.5298V134.092H74.6006V203.888ZM65.7452 203.888H59.6744V134.092H65.7452V203.888ZM56.8898 203.888H50.8117V134.092H56.8825L56.8898 203.888ZM48.0271 203.888H41.9563V134.092H48.0198L48.0271 203.888ZM39.1717 203.888H33.0718V134.092H39.1426L39.1717 203.888ZM110.029 203.888H103.959V134.092H110.029V203.888ZM24.2382 134.092H30.309V203.888H24.2382V134.092Z" fill="#004FB3"/>
<g opacity="0.7">
<path opacity="0.7" d="M21.4391 134.092V203.888H17.8621V207.719H115.49V203.888H112.814V134.092H115.49V130.26H17.8621V134.092H21.4391ZM92.3041 203.888H86.2333V134.092H92.3041V203.888ZM95.0887 134.092H101.159V203.888H95.0887V134.092ZM83.456 203.888H77.4215V134.092H83.485L83.456 203.888ZM74.6006 203.888H68.5298V134.092H74.6006V203.888ZM65.7452 203.888H59.6744V134.092H65.7452V203.888ZM56.8898 203.888H50.8117V134.092H56.8825L56.8898 203.888ZM48.0271 203.888H41.9563V134.092H48.0198L48.0271 203.888ZM39.1717 203.888H33.0718V134.092H39.1426L39.1717 203.888ZM110.029 203.888H103.959V134.092H110.029V203.888ZM24.2382 134.092H30.309V203.888H24.2382V134.092Z" fill="white"/>
</g>
<path d="M22.5295 296.164H128.271V209.297H22.5295L22.5295 296.164Z" fill="#004FB3"/>
<path opacity="0.4" d="M128.271 209.297H22.5295V296.164H128.271V209.297Z" fill="white"/>
<path d="M36.2562 272.964C48.0998 268.086 67.8826 270.194 76.9707 280.467C86.0587 290.741 81.6965 293.765 69.7002 294.129C57.704 294.492 26.4193 294.129 26.4193 294.129C26.4193 294.129 18.8072 280.155 36.2562 272.964Z" fill="#004FB3"/>
<path opacity="0.1" d="M36.2562 272.964C48.0998 268.086 67.8826 270.194 76.9707 280.467C86.0587 290.741 81.6965 293.765 69.7002 294.129C57.704 294.492 26.4193 294.129 26.4193 294.129C26.4193 294.129 18.8072 280.155 36.2562 272.964Z" fill="white"/>
<path opacity="0.4" d="M40.7999 279.202C41.7687 277.394 43.2999 275.949 45.1621 275.087C45.1621 275.087 46.1509 280.664 45.1621 282.358C45.1621 282.358 47.3433 285.68 46.987 288.225C46.7616 289.81 44.4714 292.267 43.7807 293.438C43.599 293.743 40.8726 294.274 39.6657 293.947C39.0331 293.772 33.035 293.896 32.2135 293.751C31.3919 293.605 29.4871 291.809 29.4871 291.809L30.5994 294.158L51.7201 294.274C51.7201 294.274 48.0848 293.365 48.332 291.366C48.5792 289.366 54.1484 288.036 58.8742 289.25C63.6 290.464 74.382 289.25 73.8949 285.491C73.4078 281.732 69.1691 282.343 69.1691 282.343C69.1691 282.343 71.5975 284.524 71.4739 285.855C71.3503 287.185 64.9305 289.49 61.8987 288.647C58.8669 287.803 55.239 283.674 55.3553 281.74C55.4716 279.806 58.2635 278.948 58.2635 278.948C58.2635 278.948 54.4247 278.286 53.2541 279.617C52.0836 280.947 52.6943 285.375 52.6943 285.375H50.7531C50.7531 285.375 49.6262 281.987 47.605 280.526C47.605 280.526 47.8449 275.16 46.2672 273.299C46.3109 273.328 42.3121 273.386 40.7999 279.202Z" fill="black"/>
<path opacity="0.4" d="M32.2574 281.522C32.2574 281.522 31.0433 280.497 27.7716 280.467C27.7716 280.467 26.681 283.339 27.7716 285.404C27.7716 285.404 28.0188 283.223 28.9857 282.372C29.4388 282.005 29.9652 281.74 30.5295 281.593C31.0938 281.446 31.683 281.422 32.2574 281.522Z" fill="black"/>
<path d="M45.9477 287.702C45.9477 287.702 45.7077 290.61 43.5266 289.519" stroke="#263238" stroke-width="0.5" stroke-linecap="round" stroke-linejoin="round"/>
<path d="M39.2879 290.37C39.2879 290.37 38.4373 293.38 35.4055 291.395" stroke="#263238" stroke-width="0.5" stroke-linecap="round" stroke-linejoin="round"/>
<path opacity="0.4" d="M43.5267 292.442L42.0144 292.914L42.9814 293.402L43.5267 292.442Z" fill="black"/>
<path opacity="0.2" d="M22.5295 209.297V230.389L128.271 282.372V209.297H22.5295Z" fill="black"/>
<path d="M21.8097 211.376V294.085H17.5637V298.622H133.236V294.085H130.067V211.376H133.236V206.84H17.5637V211.376H21.8097ZM105.776 294.085H98.5855V211.376H105.776V294.085ZM109.077 211.376H116.267V294.085H109.077V211.376ZM95.2629 294.085H88.0724V211.376H95.2629V294.085ZM84.7717 294.085H77.5812V211.376H84.7717V294.085ZM74.2732 294.085H67.0972V211.376H74.2877L74.2732 294.085ZM63.7819 294.085H56.5842V211.376H63.7819V294.085ZM53.2834 294.085H46.0929V211.376H53.2834V294.085ZM42.7922 294.085H35.5944V211.376H42.7922V294.085ZM126.751 294.085H119.59V211.376H126.78L126.751 294.085ZM25.1177 211.376H32.3445V294.085H25.1177V211.376Z" fill="#004FB3"/>
<g opacity="0.7">
<path opacity="0.7" d="M21.8097 211.376V294.085H17.5637V298.622H133.236V294.085H130.067V211.376H133.236V206.84H17.5637V211.376H21.8097ZM105.776 294.085H98.5855V211.376H105.776V294.085ZM109.077 211.376H116.267V294.085H109.077V211.376ZM95.2629 294.085H88.0724V211.376H95.2629V294.085ZM84.7717 294.085H77.5812V211.376H84.7717V294.085ZM74.2732 294.085H67.0972V211.376H74.2877L74.2732 294.085ZM63.7819 294.085H56.5842V211.376H63.7819V294.085ZM53.2834 294.085H46.0929V211.376H53.2834V294.085ZM42.7922 294.085H35.5944V211.376H42.7922V294.085ZM126.751 294.085H119.59V211.376H126.78L126.751 294.085ZM25.1177 211.376H32.3445V294.085H25.1177V211.376Z" fill="white"/>
</g>
<path d="M18.938 282.234C18.938 282.234 14.8302 273.27 19.5197 264.436C24.2091 255.603 25.5759 253.531 22.5805 251.713C19.5851 249.895 18.2183 258.78 18.2183 258.78C18.2183 258.78 15.6954 252.673 17.782 246.282C19.8686 239.891 21.17 229.48 18.32 228.36C15.47 227.241 17.782 241.345 15.3101 246.158C14.0535 242.781 13.2421 239.254 12.8963 235.667C12.5618 230.534 13.0926 222.34 10.846 220.239C8.59946 218.138 7.15991 219.592 9.39194 230.92C10.7137 237.69 11.4435 244.562 11.5731 251.459C11.5731 251.459 6.70187 236.598 3.43018 236.191C0.158478 235.783 0.158478 240.553 2.96487 244.741C5.77126 248.928 11.1587 256.373 12.0456 260.241C12.0456 260.241 6.6946 249.059 1.86703 252.491C-2.96054 255.923 6.06208 262.67 10.0681 265.112C14.0741 267.555 16.8659 282.838 16.8659 282.838L18.938 282.234Z" fill="#004FB3"/>
<path opacity="0.2" d="M18.938 282.234C18.938 282.234 14.8302 273.27 19.5197 264.436C24.2091 255.603 25.5759 253.531 22.5805 251.713C19.5851 249.895 18.2183 258.78 18.2183 258.78C18.2183 258.78 15.6954 252.673 17.782 246.282C19.8686 239.891 21.17 229.48 18.32 228.36C15.47 227.241 17.782 241.345 15.3101 246.158C14.0535 242.781 13.2421 239.254 12.8963 235.667C12.5618 230.534 13.0926 222.34 10.846 220.239C8.59946 218.138 7.15991 219.592 9.39194 230.92C10.7137 237.69 11.4435 244.562 11.5731 251.459C11.5731 251.459 6.70187 236.598 3.43018 236.191C0.158478 235.783 0.158478 240.553 2.96487 244.741C5.77126 248.928 11.1587 256.373 12.0456 260.241C12.0456 260.241 6.6946 249.059 1.86703 252.491C-2.96054 255.923 6.06208 262.67 10.0681 265.112C14.0741 267.555 16.8659 282.838 16.8659 282.838L18.938 282.234Z" fill="black"/>
<path d="M15.6954 285.906C15.6954 285.906 19.6941 276.883 14.8956 268.122C10.0971 259.362 8.70846 257.297 11.6821 255.443C14.6557 253.589 16.1316 262.481 16.1316 262.481C16.1316 262.481 18.5744 256.337 16.4151 249.975C14.2558 243.614 12.8308 233.253 15.6881 232.068C18.5454 230.883 16.4151 245.046 18.9089 249.815C20.1248 246.423 20.8946 242.886 21.1991 239.295C21.4754 234.155 20.8501 225.968 23.0676 223.831C25.2851 221.693 26.7028 223.104 24.6743 234.489C23.4286 241.276 22.7766 248.158 22.7259 255.057C22.7259 255.057 27.4226 240.124 30.7233 239.644C34.0241 239.164 34.0459 244.006 31.2977 248.194C28.5495 252.382 23.2348 259.965 22.3987 263.826C22.3987 263.826 27.6116 252.564 32.461 255.915C37.3104 259.267 28.3314 266.116 24.3472 268.624C20.363 271.132 17.8038 286.473 17.8038 286.473L15.6954 285.906Z" fill="#004FB3"/>
<path d="M34.1406 279.472H1.09644L3.77196 303.115H31.4651L34.1406 279.472Z" fill="#263238"/>
<path d="M264.018 246.035L264.592 240.597C264.623 240.292 264.765 240.009 264.992 239.804C265.219 239.598 265.514 239.484 265.821 239.484H279.126C279.433 239.483 279.73 239.596 279.959 239.801C280.187 240.007 280.331 240.291 280.362 240.597L280.936 246.035L283.328 245.78L282.761 240.342C282.669 239.444 282.245 238.612 281.573 238.008C280.901 237.405 280.029 237.073 279.126 237.078H265.821C264.916 237.073 264.043 237.406 263.371 238.011C262.698 238.616 262.276 239.45 262.185 240.349L261.611 245.78L264.018 246.035Z" fill="#004FB3"/>
<g opacity="0.3">
<path opacity="0.3" d="M264.018 246.035L264.592 240.597C264.623 240.292 264.765 240.009 264.992 239.804C265.219 239.598 265.514 239.484 265.821 239.484H279.126C279.433 239.483 279.73 239.596 279.959 239.801C280.187 240.007 280.331 240.291 280.362 240.597L280.936 246.035L283.328 245.78L282.761 240.342C282.669 239.444 282.245 238.612 281.573 238.008C280.901 237.405 280.029 237.073 279.126 237.078H265.821C264.916 237.073 264.043 237.406 263.371 238.011C262.698 238.616 262.276 239.45 262.185 240.349L261.611 245.78L264.018 246.035Z" fill="black"/>
</g>
<path d="M232.616 271.699V274.906C232.616 275.496 232.851 276.062 233.268 276.479C233.685 276.896 234.251 277.13 234.841 277.13H235.19L241.733 299.036C242.084 300.214 242.806 301.247 243.791 301.982C244.776 302.717 245.972 303.114 247.201 303.115H294.553C295.782 303.116 296.978 302.72 297.962 301.984C298.946 301.249 299.666 300.215 300.013 299.036L306.557 277.13H306.906C307.496 277.13 308.061 276.896 308.479 276.479C308.896 276.062 309.13 275.496 309.13 274.906V271.699C309.13 271.109 308.896 270.544 308.479 270.126C308.061 269.709 307.496 269.475 306.906 269.475H306.557L300.013 247.569C299.664 246.392 298.944 245.359 297.96 244.624C296.976 243.889 295.781 243.491 294.553 243.49H247.172C245.943 243.492 244.747 243.89 243.763 244.624C242.778 245.359 242.056 246.392 241.704 247.569L235.161 269.475H234.812C234.227 269.482 233.668 269.72 233.258 270.137C232.847 270.553 232.616 271.114 232.616 271.699Z" fill="#004FB3"/>
<path opacity="0.3" d="M235.19 277.13L241.734 299.036C242.084 300.214 242.806 301.247 243.791 301.982C244.776 302.717 245.972 303.114 247.201 303.115H294.553C295.782 303.116 296.978 302.72 297.962 301.984C298.947 301.249 299.666 300.215 300.013 299.036L306.557 277.13H235.19Z" fill="white"/>
<g opacity="0.4">
<path opacity="0.4" d="M300.137 263.338C300.26 263.336 300.382 263.305 300.492 263.249C300.602 263.193 300.698 263.112 300.773 263.014C300.848 262.915 300.9 262.801 300.924 262.68C300.949 262.558 300.945 262.433 300.915 262.313L297.207 249.394C297.138 249.2 296.998 249.04 296.816 248.947C296.633 248.853 296.422 248.832 296.224 248.888C296.027 248.945 295.859 249.074 295.753 249.251C295.648 249.427 295.614 249.637 295.658 249.837L299.366 262.757C299.415 262.924 299.516 263.071 299.655 263.176C299.794 263.28 299.963 263.338 300.137 263.338Z" fill="black"/>
</g>
<g opacity="0.4">
<path opacity="0.4" d="M295.432 263.338C295.509 263.338 295.585 263.325 295.658 263.302C295.76 263.275 295.855 263.227 295.938 263.162C296.021 263.097 296.091 263.016 296.142 262.924C296.193 262.832 296.226 262.73 296.238 262.626C296.25 262.521 296.24 262.415 296.21 262.313L292.502 249.394C292.443 249.189 292.305 249.015 292.119 248.912C291.932 248.808 291.712 248.783 291.506 248.841C291.302 248.902 291.13 249.04 291.027 249.227C290.924 249.413 290.897 249.632 290.954 249.837L294.662 262.757C294.71 262.924 294.812 263.071 294.951 263.176C295.089 263.28 295.258 263.338 295.432 263.338Z" fill="black"/>
</g>
<g opacity="0.4">
<path opacity="0.4" d="M290.736 263.338C290.811 263.338 290.884 263.325 290.955 263.302C291.056 263.274 291.152 263.227 291.235 263.162C291.318 263.097 291.387 263.016 291.439 262.924C291.49 262.832 291.523 262.73 291.534 262.626C291.546 262.521 291.537 262.415 291.507 262.313L287.799 249.394C287.74 249.189 287.603 249.017 287.417 248.914C287.231 248.811 287.011 248.786 286.807 248.845C286.602 248.904 286.43 249.041 286.327 249.227C286.224 249.414 286.199 249.633 286.258 249.837L289.958 262.757C290.008 262.925 290.111 263.072 290.251 263.176C290.391 263.281 290.561 263.338 290.736 263.338Z" fill="black"/>
</g>
<g opacity="0.4">
<path opacity="0.4" d="M286.032 263.338C286.106 263.338 286.18 263.325 286.25 263.302C286.352 263.275 286.447 263.227 286.53 263.162C286.614 263.097 286.683 263.016 286.734 262.924C286.786 262.832 286.818 262.73 286.83 262.626C286.842 262.521 286.833 262.415 286.803 262.313L283.095 249.394C283.066 249.293 283.017 249.198 282.951 249.116C282.886 249.033 282.804 248.965 282.712 248.914C282.62 248.863 282.519 248.83 282.414 248.819C282.31 248.807 282.204 248.816 282.102 248.845C282.001 248.874 281.907 248.923 281.824 248.988C281.742 249.054 281.673 249.135 281.622 249.227C281.571 249.32 281.539 249.421 281.527 249.526C281.515 249.63 281.524 249.736 281.553 249.837L285.261 262.757C285.31 262.924 285.411 263.071 285.55 263.176C285.689 263.28 285.858 263.338 286.032 263.338Z" fill="black"/>
</g>
<g opacity="0.4">
<path opacity="0.4" d="M281.328 263.338C281.402 263.338 281.476 263.325 281.546 263.302C281.648 263.274 281.743 263.227 281.827 263.162C281.91 263.097 281.979 263.016 282.031 262.924C282.082 262.832 282.115 262.73 282.126 262.626C282.138 262.521 282.129 262.415 282.099 262.313L278.391 249.394C278.332 249.189 278.195 249.017 278.008 248.914C277.822 248.811 277.603 248.786 277.399 248.845C277.194 248.904 277.022 249.041 276.919 249.227C276.816 249.414 276.791 249.633 276.85 249.837L280.558 262.757C280.606 262.924 280.707 263.071 280.846 263.176C280.985 263.28 281.154 263.338 281.328 263.338Z" fill="black"/>
</g>
<g opacity="0.4">
<path opacity="0.4" d="M276.632 263.338C276.708 263.336 276.784 263.324 276.857 263.302C277.06 263.243 277.232 263.106 277.334 262.92C277.436 262.735 277.461 262.517 277.402 262.313L273.723 249.394C273.655 249.2 273.515 249.04 273.332 248.947C273.15 248.853 272.938 248.832 272.741 248.888C272.543 248.945 272.375 249.074 272.27 249.251C272.165 249.427 272.131 249.637 272.175 249.837L275.883 262.757C275.93 262.92 276.028 263.065 276.163 263.169C276.297 263.274 276.461 263.333 276.632 263.338Z" fill="black"/>
</g>
<g opacity="0.4">
<path opacity="0.4" d="M300.137 283.274C300.212 283.263 300.288 283.263 300.362 283.274C300.566 283.333 300.738 283.47 300.841 283.655C300.945 283.84 300.971 284.058 300.915 284.263L297.207 297.182C297.136 297.373 296.997 297.529 296.816 297.621C296.635 297.713 296.427 297.734 296.231 297.679C296.036 297.624 295.869 297.497 295.762 297.325C295.656 297.152 295.619 296.945 295.658 296.746L299.366 283.827C299.419 283.664 299.522 283.523 299.661 283.424C299.799 283.324 299.966 283.272 300.137 283.274Z" fill="black"/>
</g>
<g opacity="0.4">
<path opacity="0.4" d="M295.433 283.274C295.508 283.263 295.584 283.263 295.658 283.274C295.76 283.303 295.854 283.351 295.937 283.416C296.02 283.481 296.089 283.562 296.14 283.654C296.191 283.746 296.224 283.847 296.236 283.951C296.248 284.056 296.24 284.162 296.211 284.263L292.503 297.182C292.433 297.373 292.293 297.529 292.112 297.621C291.932 297.713 291.723 297.734 291.527 297.679C291.332 297.624 291.165 297.497 291.059 297.325C290.952 297.152 290.915 296.945 290.954 296.746L294.662 283.827C294.715 283.664 294.818 283.523 294.957 283.424C295.096 283.324 295.262 283.272 295.433 283.274Z" fill="black"/>
</g>
<g opacity="0.4">
<path opacity="0.4" d="M290.736 283.274C290.808 283.263 290.882 283.263 290.954 283.274C291.056 283.303 291.15 283.351 291.233 283.416C291.315 283.481 291.384 283.562 291.436 283.654C291.487 283.746 291.52 283.847 291.532 283.951C291.544 284.056 291.536 284.162 291.507 284.263L287.799 297.182C287.77 297.284 287.722 297.378 287.657 297.461C287.592 297.543 287.511 297.612 287.419 297.663C287.327 297.715 287.226 297.747 287.122 297.76C287.017 297.772 286.911 297.764 286.81 297.735C286.709 297.706 286.614 297.658 286.532 297.593C286.449 297.528 286.38 297.447 286.329 297.355C286.278 297.263 286.245 297.162 286.233 297.058C286.22 296.953 286.229 296.847 286.258 296.746L289.958 283.827C290.012 283.664 290.117 283.522 290.257 283.423C290.397 283.324 290.565 283.271 290.736 283.274Z" fill="black"/>
</g>
<g opacity="0.4">
<path opacity="0.4" d="M286.032 283.274C286.104 283.263 286.178 283.263 286.25 283.274C286.355 283.301 286.454 283.35 286.539 283.417C286.625 283.484 286.697 283.567 286.749 283.662C286.801 283.758 286.834 283.863 286.844 283.971C286.855 284.079 286.843 284.188 286.81 284.292L283.102 297.211C283.044 297.416 282.907 297.589 282.722 297.693C282.537 297.796 282.318 297.822 282.113 297.764C281.909 297.706 281.736 297.57 281.632 297.384C281.528 297.199 281.503 296.98 281.561 296.775L285.268 283.856C285.316 283.689 285.416 283.542 285.553 283.438C285.691 283.333 285.859 283.275 286.032 283.274Z" fill="black"/>
</g>
<g opacity="0.4">
<path opacity="0.4" d="M281.328 283.274C281.4 283.263 281.474 283.263 281.546 283.274C281.647 283.303 281.742 283.351 281.825 283.416C281.907 283.481 281.976 283.562 282.028 283.654C282.079 283.746 282.112 283.847 282.124 283.951C282.136 284.056 282.127 284.162 282.099 284.263L278.391 297.182C278.333 297.387 278.196 297.56 278.011 297.663C277.825 297.767 277.606 297.793 277.402 297.735C277.198 297.677 277.024 297.54 276.921 297.355C276.817 297.17 276.792 296.951 276.849 296.746L280.557 283.827C280.61 283.664 280.713 283.523 280.852 283.424C280.991 283.324 281.157 283.272 281.328 283.274Z" fill="black"/>
</g>
<g opacity="0.4">
<path opacity="0.4" d="M276.631 283.274C276.706 283.264 276.782 283.264 276.857 283.274C277.06 283.333 277.232 283.47 277.334 283.656C277.436 283.841 277.461 284.059 277.402 284.263L273.723 297.211C273.653 297.402 273.513 297.558 273.333 297.65C273.152 297.742 272.943 297.763 272.748 297.708C272.552 297.653 272.385 297.527 272.279 297.354C272.173 297.181 272.135 296.974 272.175 296.775L275.883 283.856C275.929 283.692 276.027 283.547 276.162 283.442C276.296 283.337 276.461 283.278 276.631 283.274Z" fill="black"/>
</g>
<path d="M234.841 269.475H239.087L243.755 252.891C243.968 252.124 244.427 251.448 245.061 250.968C245.696 250.487 246.47 250.228 247.266 250.23H261.495C262.292 250.226 263.068 250.485 263.704 250.965C264.34 251.446 264.8 252.123 265.013 252.891L269.681 269.475H306.848C307.438 269.475 308.004 269.709 308.421 270.126C308.838 270.544 309.072 271.109 309.072 271.699V274.906C309.072 275.496 308.838 276.062 308.421 276.479C308.004 276.896 307.438 277.13 306.848 277.13H269.681L264.999 293.743C264.785 294.511 264.325 295.188 263.689 295.669C263.053 296.15 262.277 296.408 261.48 296.404H247.266C246.47 296.406 245.696 296.147 245.061 295.667C244.427 295.186 243.968 294.51 243.755 293.743L239.08 277.16H234.841C234.251 277.16 233.685 276.925 233.268 276.508C232.851 276.091 232.616 275.525 232.616 274.935V271.729C232.613 271.434 232.667 271.142 232.777 270.868C232.887 270.595 233.051 270.346 233.258 270.137C233.465 269.927 233.711 269.76 233.983 269.647C234.255 269.533 234.547 269.475 234.841 269.475Z" fill="#004FB3"/>
<path opacity="0.2" d="M232.616 271.699V274.906C232.616 275.496 232.851 276.062 233.268 276.479C233.685 276.896 234.251 277.13 234.841 277.13H235.19L241.733 299.036C242.084 300.214 242.806 301.247 243.791 301.982C244.776 302.717 245.972 303.114 247.201 303.115H261.625C262.854 303.116 264.05 302.72 265.034 301.984C266.019 301.249 266.738 300.215 267.085 299.036L273.629 277.13H273.985C274.575 277.13 275.141 276.896 275.558 276.479C275.975 276.062 276.21 275.496 276.21 274.906V271.699C276.21 271.109 275.975 270.544 275.558 270.126C275.141 269.709 274.575 269.475 273.985 269.475H273.629L267.085 247.569C266.736 246.392 266.016 245.359 265.032 244.624C264.048 243.889 262.853 243.491 261.625 243.49H247.172C245.943 243.492 244.747 243.89 243.763 244.624C242.778 245.359 242.056 246.392 241.704 247.569L235.161 269.475H234.812C234.227 269.482 233.668 269.72 233.258 270.137C232.847 270.553 232.616 271.114 232.616 271.699Z" fill="black"/>
<path opacity="0.4" d="M234.841 269.475H239.087L243.755 252.891C243.968 252.124 244.427 251.448 245.061 250.968C245.696 250.487 246.47 250.228 247.266 250.23H261.495C262.292 250.226 263.068 250.485 263.704 250.965C264.34 251.446 264.8 252.123 265.013 252.891L269.681 269.475H306.848C307.438 269.475 308.004 269.709 308.421 270.126C308.838 270.544 309.072 271.109 309.072 271.699V274.906C309.072 275.496 308.838 276.062 308.421 276.479C308.004 276.896 307.438 277.13 306.848 277.13H269.681L264.999 293.743C264.785 294.511 264.325 295.188 263.689 295.669C263.053 296.15 262.277 296.408 261.48 296.404H247.266C246.47 296.406 245.696 296.147 245.061 295.667C244.427 295.186 243.968 294.51 243.755 293.743L239.08 277.16H234.841C234.251 277.16 233.685 276.925 233.268 276.508C232.851 276.091 232.616 275.525 232.616 274.935V271.729C232.613 271.434 232.667 271.142 232.777 270.868C232.887 270.595 233.051 270.346 233.258 270.137C233.465 269.927 233.711 269.76 233.983 269.647C234.255 269.533 234.547 269.475 234.841 269.475Z" fill="white"/>
<g opacity="0.4">
<path opacity="0.4" d="M261.124 292.776C261.338 292.776 261.543 292.691 261.694 292.54C261.846 292.389 261.931 292.183 261.931 291.969V256.075C261.941 255.963 261.929 255.85 261.893 255.744C261.857 255.637 261.8 255.539 261.724 255.456C261.649 255.373 261.557 255.306 261.454 255.261C261.351 255.215 261.24 255.192 261.127 255.192C261.015 255.192 260.904 255.215 260.801 255.261C260.698 255.306 260.606 255.373 260.53 255.456C260.455 255.539 260.397 255.637 260.362 255.744C260.326 255.85 260.313 255.963 260.324 256.075V291.969C260.323 292.075 260.343 292.18 260.383 292.278C260.422 292.376 260.481 292.465 260.556 292.54C260.63 292.615 260.718 292.674 260.816 292.715C260.913 292.756 261.018 292.776 261.124 292.776Z" fill="black"/>
</g>
<g opacity="0.4">
<path opacity="0.4" d="M257.336 292.776C257.55 292.776 257.755 292.691 257.906 292.54C258.058 292.389 258.143 292.183 258.143 291.969V256.075C258.153 255.963 258.14 255.85 258.105 255.744C258.069 255.637 258.012 255.539 257.936 255.456C257.861 255.373 257.769 255.306 257.666 255.261C257.563 255.215 257.452 255.192 257.339 255.192C257.227 255.192 257.116 255.215 257.013 255.261C256.91 255.306 256.818 255.373 256.742 255.456C256.667 255.539 256.609 255.637 256.574 255.744C256.538 255.85 256.525 255.963 256.536 256.075V291.969C256.535 292.075 256.555 292.18 256.595 292.278C256.634 292.376 256.693 292.465 256.768 292.54C256.842 292.615 256.93 292.674 257.028 292.715C257.125 292.756 257.23 292.776 257.336 292.776Z" fill="black"/>
</g>
<g opacity="0.4">
<path opacity="0.4" d="M253.555 292.776C253.661 292.776 253.765 292.756 253.863 292.715C253.96 292.674 254.049 292.615 254.123 292.54C254.198 292.465 254.256 292.376 254.296 292.278C254.336 292.18 254.356 292.075 254.355 291.969V256.075C254.365 255.963 254.353 255.85 254.317 255.744C254.282 255.637 254.224 255.539 254.149 255.456C254.073 255.373 253.981 255.306 253.878 255.261C253.775 255.215 253.664 255.192 253.551 255.192C253.439 255.192 253.328 255.215 253.225 255.261C253.122 255.306 253.03 255.373 252.954 255.456C252.879 255.539 252.821 255.637 252.786 255.744C252.75 255.85 252.737 255.963 252.748 256.075V291.969C252.748 292.183 252.833 292.389 252.984 292.54C253.136 292.691 253.341 292.776 253.555 292.776Z" fill="black"/>
</g>
<g opacity="0.4">
<path opacity="0.4" d="M249.767 292.776C249.873 292.776 249.978 292.756 250.075 292.715C250.173 292.674 250.261 292.615 250.336 292.54C250.41 292.465 250.469 292.376 250.508 292.278C250.548 292.18 250.568 292.075 250.567 291.969V256.075C250.578 255.963 250.565 255.85 250.529 255.744C250.494 255.637 250.437 255.539 250.361 255.456C250.285 255.373 250.193 255.306 250.09 255.261C249.987 255.215 249.876 255.192 249.764 255.192C249.651 255.192 249.54 255.215 249.437 255.261C249.335 255.306 249.242 255.373 249.167 255.456C249.091 255.539 249.034 255.637 248.998 255.744C248.963 255.85 248.95 255.963 248.96 256.075V291.969C248.96 292.183 249.045 292.389 249.197 292.54C249.348 292.691 249.553 292.776 249.767 292.776Z" fill="black"/>
</g>
<g opacity="0.4">
<path opacity="0.4" d="M245.979 292.776C246.085 292.776 246.19 292.756 246.287 292.715C246.385 292.674 246.473 292.615 246.548 292.54C246.622 292.465 246.681 292.376 246.72 292.278C246.76 292.18 246.78 292.075 246.779 291.969V256.075C246.779 255.863 246.695 255.66 246.545 255.51C246.395 255.36 246.192 255.276 245.979 255.276C245.767 255.276 245.564 255.36 245.414 255.51C245.264 255.66 245.18 255.863 245.18 256.075V291.969C245.179 292.075 245.199 292.18 245.238 292.278C245.278 292.376 245.337 292.465 245.411 292.54C245.486 292.615 245.574 292.674 245.672 292.715C245.769 292.756 245.874 292.776 245.979 292.776Z" fill="black"/>
</g>
<path d="M229.322 226.128C231.816 225.939 232.856 226.128 235.357 226.128C237.858 226.128 240.228 224.965 241.566 225.081C242.904 225.198 249.563 226.986 249.563 226.986C249.563 226.986 252.726 230.163 255.314 252.309C255.314 252.309 239.654 254.956 230.289 253.283C220.925 251.611 229.322 226.128 229.322 226.128Z" fill="#004FB3"/>
<path opacity="0.5" d="M229.322 226.128C231.816 225.939 232.856 226.128 235.357 226.128C237.858 226.128 240.228 224.965 241.566 225.081C242.904 225.198 249.563 226.986 249.563 226.986C249.563 226.986 252.726 230.163 255.314 252.309C255.314 252.309 239.654 254.956 230.289 253.283C220.925 251.611 229.322 226.128 229.322 226.128Z" fill="white"/>
<path d="M236.935 201.322C236.935 201.322 233.612 196.145 224.575 197.686C214.193 199.424 210.674 212.285 219.391 225.314C219.391 225.314 226.902 227.313 241.595 223.424C241.566 223.38 247.826 204.557 236.935 201.322Z" fill="#263238"/>
<path d="M248.589 259.427C258.804 273.888 249.52 289.672 218.839 305.492L258.455 306.409L261.974 310.385C261.974 310.385 228.53 314.835 210.907 314.835C200.394 314.835 201.273 305.383 212.971 291.875C219.161 284.797 226.077 278.388 233.605 272.754C234.057 270.853 234.672 268.994 235.444 267.199L248.589 259.427Z" fill="#EEC1BB"/>
<path opacity="0.1" d="M248.589 259.427C258.804 273.888 249.52 289.672 218.839 305.492L258.455 306.409L261.974 310.385C261.974 310.385 228.53 314.835 210.907 314.835C200.394 314.835 201.273 305.383 212.971 291.875C219.161 284.797 226.077 278.388 233.605 272.754C234.057 270.853 234.672 268.994 235.444 267.199L248.589 259.427Z" fill="black"/>
<path d="M225.171 237.637L225.055 238.081C224.648 239.637 223.215 244.995 221.463 250.048C220.542 252.953 219.324 255.754 217.828 258.409C217.741 258.547 217.661 258.671 217.574 258.787C215.392 261.921 197.536 263.927 197.536 263.927C197.447 264.507 197.178 265.044 196.766 265.461C196.198 265.854 192.738 265.752 191.015 265.607C189.292 265.461 187.467 259.427 188.281 259.245C188.717 259.151 191.538 259.318 194.759 259.427C195.355 259.427 196.533 260.619 196.533 260.619C196.533 260.619 210.012 256.606 211.285 254.679C215.233 248.667 217.101 229.044 220.889 228.789C224.917 228.506 225.171 237.637 225.171 237.637Z" fill="#EEC1BB"/>
<path opacity="0.2" d="M225.055 238.081C224.648 239.637 223.216 244.995 221.463 250.048C220.051 243.421 219.656 236.618 220.293 229.873L225.055 238.081Z" fill="black"/>
<path d="M255.278 305.958C254.886 306.314 259.452 310.924 259.452 310.924C259.452 310.924 265.123 311.265 268.358 313.584C271.593 315.904 271.913 312.748 269.085 309.484L262.054 301.421C260.026 299.102 259.313 302.272 255.278 305.958Z" fill="#263238"/>
<path opacity="0.2" d="M255.278 305.958C254.886 306.314 259.452 310.924 259.452 310.924C259.452 310.924 265.123 311.265 268.358 313.584C271.593 315.904 271.913 312.748 269.085 309.484L262.054 301.421C260.026 299.102 259.313 302.272 255.278 305.958Z" fill="black"/>
<path d="M267.492 310.531L256.129 310.385L256.674 316.522L271.004 314.508L267.492 310.531Z" fill="#EEC1BB"/>
<path d="M235.466 267.199L257.605 263.564C256.921 263.673 252.624 254.156 251.643 250.761C250.291 246.078 249.236 237.121 250.152 231.327V231.283C250.244 230.699 250.215 230.102 250.066 229.53C249.917 228.958 249.652 228.422 249.287 227.957C248.922 227.492 248.465 227.107 247.945 226.826C247.425 226.545 246.852 226.374 246.263 226.325C244.496 226.187 242.722 226.121 240.948 226.114C237.431 226.076 233.916 226.283 230.428 226.732C225.949 227.459 220.889 228.797 220.889 228.797C220.889 228.797 220.162 229.095 220.511 233.886C220.831 238.43 222.539 253.189 235.466 267.199Z" fill="#004FB3"/>
<path d="M227.193 222.268C227.193 222.268 230.043 224.114 230.537 225.329C230.569 225.406 230.593 225.487 230.61 225.569C230.751 226.26 230.848 226.959 230.901 227.662C230.064 230.105 233.183 231.501 233.183 231.501C238.738 229.829 240.04 227.139 240.04 227.139C235.474 225.343 234.594 216.582 234.594 216.582L232.413 218.284L227.193 222.268Z" fill="#EEC1BB"/>
<path opacity="0.2" d="M227.193 222.268C227.193 222.268 230.043 224.114 230.537 225.329C230.569 225.406 230.593 225.487 230.61 225.569C231.817 224.645 232.78 223.44 233.414 222.059C234.047 220.677 234.333 219.161 234.245 217.644L232.398 218.269L227.193 222.268Z" fill="black"/>
<path d="M226.204 202.79C220.235 203.605 218.752 207.058 219.151 213.274C219.653 221.032 222.096 226.267 229.33 223.606C239.174 219.992 236.121 201.409 226.204 202.79Z" fill="#EEC1BB"/>
<path d="M222.961 212.409C222.606 213.368 222.137 214.281 221.565 215.128C221.773 215.351 222.039 215.511 222.333 215.592C222.627 215.673 222.937 215.671 223.23 215.586L222.961 212.409Z" fill="#D4827D"/>
<path d="M226.553 211.428C226.604 211.922 226.916 212.285 227.243 212.249C227.571 212.213 227.796 211.784 227.738 211.289C227.68 210.795 227.374 210.431 227.047 210.468C226.72 210.504 226.465 210.933 226.553 211.428Z" fill="#263238"/>
<path d="M227.192 210.475L226.073 210.177C226.073 210.177 226.698 211.02 227.192 210.475Z" fill="#263238"/>
<path d="M220.423 212.009C220.474 212.504 220.787 212.874 221.114 212.838C221.441 212.802 221.667 212.373 221.609 211.878C221.55 211.384 221.245 211.02 220.918 211.057C220.591 211.093 220.365 211.522 220.423 212.009Z" fill="#263238"/>
<path d="M221.056 211.064L219.936 210.766C219.936 210.766 220.576 211.587 221.056 211.064Z" fill="#263238"/>
<path d="M226.051 207.298C226.514 207.175 227 207.161 227.47 207.255C227.94 207.35 228.383 207.551 228.763 207.843" stroke="#263238" stroke-width="0.707962" stroke-linecap="round" stroke-linejoin="round"/>
<path d="M221.674 207.632C221.252 207.585 220.825 207.633 220.425 207.774C220.025 207.915 219.661 208.145 219.362 208.447" stroke="#263238" stroke-width="0.707962" stroke-linecap="round" stroke-linejoin="round"/>
<path d="M234.099 211.966C234.099 211.966 230.638 207.436 230.544 203.59C230.544 203.59 218.061 200.369 219.108 212.46C219.108 212.46 216.505 201.954 226.734 200.318C236.964 198.682 239.319 212.773 234.63 217.971C234.63 217.971 236.244 214.794 234.099 211.966Z" fill="#263238"/>
<path d="M233.299 213.354C233.281 213.008 233.331 212.662 233.446 212.335C233.561 212.008 233.74 211.707 233.971 211.449C234.203 211.191 234.483 210.981 234.795 210.832C235.108 210.682 235.447 210.595 235.793 210.577C237.669 210.526 239.065 214.212 234.586 215.746C233.947 215.95 233.489 215.375 233.299 213.354Z" fill="#EEC1BB"/>
<path d="M223.557 217.404C223.809 218.116 224.011 218.845 224.161 219.585H224.553C226.356 219.498 227.171 218.858 227.52 218.189C227.684 217.855 227.764 217.485 227.752 217.113C227.754 216.902 227.727 216.692 227.672 216.488C226.582 217.035 225.387 217.34 224.168 217.382C223.79 217.404 223.557 217.404 223.557 217.404Z" fill="#263238"/>
<path d="M224.161 217.331L224.357 217.971C226.058 217.884 227.265 217.6 227.745 217.062C227.746 216.851 227.72 216.641 227.665 216.437C226.575 216.984 225.38 217.289 224.161 217.331Z" fill="white"/>
<path d="M224.546 219.534C226.349 219.447 227.163 218.807 227.512 218.138C226.827 218.181 226.155 218.346 225.527 218.625C225.115 218.82 224.772 219.138 224.546 219.534Z" fill="#DE5753"/>
<path d="M227.876 202.347C227.876 202.347 227.701 212.525 237.575 212.838L241.566 223.38C241.566 223.38 248.059 203.561 232.413 199.824L227.876 202.347Z" fill="#263238"/>
<path d="M257.605 263.549C267.82 278.003 258.535 293.794 227.854 309.608L267.492 310.531L271.004 314.508C271.004 314.508 237.56 318.957 219.936 318.957C209.423 318.957 208.965 308.219 222.001 295.997C232.994 285.695 241.406 275.822 241.406 275.822C237.858 273.284 235.466 267.199 235.466 267.199L257.605 263.549Z" fill="#EEC1BB"/>
<path d="M264.708 310.109C264.315 310.465 268.888 315.075 268.888 315.075C268.888 315.075 274.559 315.417 277.788 317.736C281.016 320.055 281.343 316.9 278.515 313.635L271.491 305.572C269.456 303.253 268.743 306.423 264.708 310.109Z" fill="#263238"/>
<path d="M256.681 262.35C256.681 262.35 262.098 266.661 261.996 276.164C261.894 285.666 255.547 293.794 237.058 305.376L209.351 294.158C209.351 294.158 224.619 278.461 232.791 272.739C233.564 270.833 234.458 268.978 235.466 267.185L256.681 262.35Z" fill="#263238"/>
<path d="M232.79 238.139C232.79 238.139 244.663 226.957 249.556 226.957C249.556 226.957 244.838 225.132 241.559 225.052C241.559 225.052 235.379 230.694 232.143 236.685C232.143 236.685 228.777 230.578 229.315 226.085C229.315 226.085 223.55 226.906 222.605 228.768C221.659 230.629 226.24 236.685 230.711 238.125C230.711 238.125 225.047 246.973 226.538 256.388L229.322 256.722C229.322 256.722 228.763 244.072 232.005 239.273C232.005 239.273 235.48 253.487 235.35 257.682L238.985 256.955C238.985 256.955 237.603 243.89 232.79 238.139Z" fill="#004FB3"/>
<path opacity="0.6" d="M232.79 238.139C232.79 238.139 244.663 226.957 249.556 226.957C249.556 226.957 244.838 225.132 241.559 225.052C241.559 225.052 235.379 230.694 232.143 236.685C232.143 236.685 228.777 230.578 229.315 226.085C229.315 226.085 223.55 226.906 222.605 228.768C221.659 230.629 226.24 236.685 230.711 238.125C230.711 238.125 225.047 246.973 226.538 256.388L229.322 256.722C229.322 256.722 228.763 244.072 232.005 239.273C232.005 239.273 235.48 253.487 235.35 257.682L238.985 256.955C238.985 256.955 237.603 243.89 232.79 238.139Z" fill="white"/>
<path d="M189.19 256.548C189.19 256.548 187.736 273.641 189.917 282.721C189.917 282.721 181.919 290.821 183.01 297.51C183.555 301.302 184.88 304.941 186.9 308.197L186.107 309.986C186.107 309.986 183.083 313.381 183.875 315.606C184.668 317.83 187.83 319.241 189.415 316.027C191 312.814 192.723 309.055 192.723 308.335C192.723 307.615 192.287 304.053 193.225 301.174C194.163 298.295 198.634 295.357 198.634 295.357C198.634 295.357 202.56 302.192 208.086 303.05C213.611 303.907 217.006 298.52 217.006 298.52C216.167 299.162 215.179 299.582 214.135 299.742C214.135 299.742 217.006 297.735 217.006 294.492C216.307 294.928 215.578 295.314 214.825 295.648C214.825 295.648 215.829 293.075 215.472 291.235C215.472 291.235 212.739 295.212 208.638 295.43C204.538 295.648 204.654 284.11 204.654 284.11L209.322 264.887L208.1 256.126L203.011 249.641L189.19 256.548Z" fill="#263238"/>
<path opacity="0.7" d="M189.19 256.548C189.19 256.548 187.736 273.641 189.917 282.721C189.917 282.721 181.919 290.821 183.01 297.51C183.555 301.302 184.88 304.941 186.9 308.197L186.107 309.986C186.107 309.986 183.083 313.381 183.875 315.606C184.668 317.83 187.83 319.241 189.415 316.027C191 312.814 192.723 309.055 192.723 308.335C192.723 307.615 192.287 304.053 193.225 301.174C194.163 298.295 198.634 295.357 198.634 295.357C198.634 295.357 202.56 302.192 208.086 303.05C213.611 303.907 217.006 298.52 217.006 298.52C216.167 299.162 215.179 299.582 214.135 299.742C214.135 299.742 217.006 297.735 217.006 294.492C216.307 294.928 215.578 295.314 214.825 295.648C214.825 295.648 215.829 293.075 215.472 291.235C215.472 291.235 212.739 295.212 208.638 295.43C204.538 295.648 204.654 284.11 204.654 284.11L209.322 264.887L208.1 256.126L203.011 249.641L189.19 256.548Z" fill="white"/>
<path d="M189.793 256.177C189.793 256.177 182.872 253.167 180.495 254.65C178.117 256.133 177.797 261.921 178.67 262.931C179.542 263.942 182.385 264.909 182.545 263.658C182.705 262.408 183.156 258.773 183.156 258.773C183.156 258.773 186.529 262.895 190.462 263.564C194.396 264.233 198.038 259.354 197.006 256.235C195.973 253.116 192.629 254.2 189.793 256.177Z" fill="#263238"/>
<path opacity="0.7" d="M189.793 256.177C189.793 256.177 182.872 253.167 180.495 254.65C178.117 256.133 177.797 261.921 178.67 262.931C179.542 263.942 182.385 264.909 182.545 263.658C182.705 262.408 183.156 258.773 183.156 258.773C183.156 258.773 186.529 262.895 190.462 263.564C194.396 264.233 198.038 259.354 197.006 256.235C195.973 253.116 192.629 254.2 189.793 256.177Z" fill="white"/>
<path d="M199.797 301.486C199.797 301.486 201.739 304.293 201.31 306.161C200.881 308.03 198.285 307.928 197.493 309.578C196.7 311.229 193.254 315.184 191.167 314.9C189.081 314.617 187.532 314.057 187.714 311.927C187.896 309.797 191.96 307.477 191.96 307.477L194.33 305.711C194.33 305.711 190.448 304.256 188.87 300.621C187.292 296.986 194.926 288.945 195.355 288.487C198.845 285.106 202.146 284.604 202.146 284.604C201.196 284.326 200.187 284.326 199.238 284.604C198.714 275.327 202.502 266.268 202.502 266.268C206.595 265.185 207.206 261.826 207.206 261.826C207.206 261.826 206.479 258.285 205.236 256.562C203.992 254.839 201.949 256.046 201.79 256.133C203.331 254.81 203.934 250.375 203.934 250.375L202.386 247.685C205.047 249.968 208.885 253.843 209.62 257.653C210.769 263.607 211.99 277.61 208.609 287.142C205.228 296.673 199.797 301.486 199.797 301.486Z" fill="#263238"/>
<path opacity="0.8" d="M199.797 301.486C199.797 301.486 201.739 304.293 201.31 306.161C200.881 308.03 198.285 307.928 197.493 309.578C196.7 311.229 193.254 315.184 191.167 314.9C189.081 314.617 187.532 314.057 187.714 311.927C187.896 309.797 191.96 307.477 191.96 307.477L194.33 305.711C194.33 305.711 190.448 304.256 188.87 300.621C187.292 296.986 194.926 288.945 195.355 288.487C198.845 285.106 202.146 284.604 202.146 284.604C201.196 284.326 200.187 284.326 199.238 284.604C198.714 275.327 202.502 266.268 202.502 266.268C206.595 265.185 207.206 261.826 207.206 261.826C207.206 261.826 206.479 258.285 205.236 256.562C203.992 254.839 201.949 256.046 201.79 256.133C203.331 254.81 203.934 250.375 203.934 250.375L202.386 247.685C205.047 249.968 208.885 253.843 209.62 257.653C210.769 263.607 211.99 277.61 208.609 287.142C205.228 296.673 199.797 301.486 199.797 301.486Z" fill="white"/>
<path d="M196.395 241.767C195.668 240.466 190.208 240.182 188.986 240.756C187.765 241.331 183.374 244.806 184.624 245.693C185.875 246.58 186.805 248.812 190.44 248.02C194.076 247.227 197.326 243.49 196.395 241.767Z" fill="#263238"/>
<path opacity="0.3" d="M196.395 241.767C195.668 240.466 190.208 240.182 188.986 240.756C187.765 241.331 183.374 244.806 184.624 245.693C185.875 246.58 186.805 248.812 190.44 248.02C194.076 247.227 197.326 243.49 196.395 241.767Z" fill="white"/>
<path d="M203.367 245.693C201.419 241.331 194.737 241.498 192.462 241.236C190.186 240.975 188.288 245.359 187.714 247.191C187.14 249.023 182.247 248.158 182.821 251.619C183.395 255.079 185.126 256.366 187.859 257.369C190.593 258.373 208.398 257.035 203.367 245.693Z" fill="#263238"/>
<path opacity="0.8" d="M200.801 255.028C196.489 257.733 189.473 257.973 187.838 257.369H187.75C185.068 256.366 183.388 255.065 182.799 251.648C182.21 248.23 187.118 249.059 187.692 247.22C188.267 245.38 190.135 241.004 192.44 241.265C194.745 241.527 201.419 241.338 203.345 245.722C205.381 250.259 203.709 253.203 200.801 255.028Z" fill="white"/>
<path d="M183.81 249.961L185.605 250.324L183.81 251.764V249.961Z" fill="#D4827D"/>
<path d="M194.119 248.739C194.119 249.241 193.843 249.641 193.509 249.641C193.174 249.641 192.898 249.241 192.898 248.739C192.898 248.238 193.167 247.845 193.509 247.845C193.85 247.845 194.119 248.245 194.119 248.739Z" fill="#263238"/>
<path d="M189.226 247.845C189.226 248.34 188.957 248.739 188.616 248.739C188.274 248.739 188.005 248.34 188.005 247.845C188.005 247.351 188.281 246.944 188.616 246.944C188.95 246.944 189.226 247.344 189.226 247.845Z" fill="#263238"/>
<path d="M196.395 241.229C194.977 241.331 195.457 250.034 196.395 252.135C197.333 254.236 205.236 251.56 205.81 249.765C206.384 247.969 205.454 240.538 196.395 241.229Z" fill="#263238"/>
<path opacity="0.4" d="M196.395 241.229C194.977 241.331 195.457 250.034 196.395 252.135C197.333 254.236 205.236 251.56 205.81 249.765C206.384 247.969 205.454 240.538 196.395 241.229Z" fill="white"/>
<path d="M247.549 226.965C243.812 226.637 236.186 251.008 233.321 253.676C230.457 256.344 206.224 263.128 206.224 263.128C205.083 263.024 203.934 263.024 202.793 263.128C201.455 263.324 195.348 265.047 195.348 265.047C195.348 265.047 197.572 269.315 199.928 269.933C202.916 270.711 207.846 267.395 209.089 266.181C209.089 266.181 233.125 263.455 238.374 260.001C243.623 256.548 249.214 240.153 250.618 235.376C252.021 230.6 249.789 227.154 247.549 226.965Z" fill="#EEC1BB"/>
<path d="M200.924 259.122C200.924 259.122 194.185 256.766 192.113 258.46C190.041 260.154 190.317 265.941 191.233 266.865C192.149 267.788 194.868 268.493 194.868 267.235C194.868 265.978 194.963 262.313 194.963 262.313C194.963 262.313 198.511 266.109 202.233 266.414C205.956 266.719 208.871 261.528 207.584 258.518C206.297 255.508 203.367 256.89 200.924 259.122Z" fill="#263238"/>
<path opacity="0.8" d="M200.924 259.122C200.924 259.122 194.185 256.766 192.113 258.46C190.041 260.154 190.317 265.941 191.233 266.865C192.149 267.788 194.868 268.493 194.868 267.235C194.868 265.978 194.963 262.313 194.963 262.313C194.963 262.313 198.511 266.109 202.233 266.414C205.956 266.719 208.871 261.528 207.584 258.518C206.297 255.508 203.367 256.89 200.924 259.122Z" fill="white"/>
<path d="M46.4201 299.872L45.8167 306.328L60.7283 308.277L61.339 301.806L46.4201 299.872Z" fill="#E4897B"/>
<path d="M46.4784 307.295L47.2054 299.451C47.2155 299.322 47.1824 299.193 47.1113 299.085C47.0402 298.977 46.9352 298.896 46.8128 298.854L41.1782 297.044C40.9362 296.969 40.6742 296.992 40.4495 297.109C40.2247 297.227 40.0555 297.428 39.9786 297.669C39.9683 297.739 39.9683 297.81 39.9786 297.88C39.775 300.425 39.7605 302.286 39.4624 305.471C39.2734 307.441 38.51 313.344 38.2555 316.056C38.001 318.768 40.6475 319.372 40.9964 318.281C42.5523 313.41 44.4063 309.804 45.984 308.342C46.2786 308.071 46.4559 307.695 46.4784 307.295Z" fill="#263238"/>
<path d="M45.5407 307.659C45.5503 307.628 45.5698 307.602 45.5961 307.583C45.6224 307.565 45.654 307.556 45.6861 307.557C45.7156 307.554 45.7454 307.561 45.7705 307.577C45.7956 307.592 45.8145 307.616 45.8243 307.644C45.9479 307.884 47.0384 310.095 46.6022 310.771C46.5561 310.849 46.4882 310.912 46.4068 310.952C46.3255 310.992 46.2342 311.007 46.1442 310.996C45.9899 311.003 45.8365 310.97 45.6989 310.9C45.5613 310.83 45.4442 310.725 45.359 310.596C45.1427 310.21 45.0657 309.76 45.1408 309.324C45.212 308.756 45.3461 308.197 45.5407 307.659ZM45.7152 308.117C45.3882 308.847 45.3518 309.674 45.6134 310.429C45.6738 310.513 45.7538 310.58 45.8463 310.626C45.9388 310.671 46.0411 310.694 46.1442 310.691C46.2678 310.691 46.3259 310.647 46.3332 310.611C46.3699 310.552 46.39 310.484 46.3914 310.414C46.3126 309.613 46.0832 308.833 45.7152 308.117Z" fill="#004FB3"/>
<path d="M45.5116 307.615C45.5289 307.594 45.5511 307.576 45.5764 307.565C45.6017 307.554 45.6293 307.548 45.657 307.55C45.7515 307.55 47.591 307.899 48.129 308.706C48.1978 308.801 48.2457 308.91 48.2695 309.026C48.2933 309.141 48.2925 309.26 48.2671 309.375C48.2572 309.491 48.2066 309.6 48.1241 309.683C48.0416 309.765 47.9326 309.816 47.8164 309.826C47.0893 309.891 45.8243 308.473 45.5189 307.768V307.695C45.509 307.67 45.5065 307.642 45.5116 307.615ZM47.9327 308.888C47.3942 308.375 46.7116 308.04 45.9769 307.928C46.4204 308.655 47.431 309.564 47.8454 309.52C47.8891 309.52 48.0054 309.52 48.0199 309.317V309.244C48.0361 309.118 48.005 308.991 47.9327 308.888Z" fill="#004FB3"/>
<path opacity="0.2" d="M61.3246 301.806L60.7212 308.27L53.0291 307.266L53.6398 300.803L61.3246 301.806Z" fill="black"/>
<path d="M117.583 313.061L124.621 314.551L132.146 302.177L125.108 300.694L117.583 313.061Z" fill="#E4897B"/>
<path d="M126.046 311.57H118.136C118.007 311.569 117.881 311.613 117.781 311.694C117.68 311.775 117.61 311.888 117.583 312.014L116.304 317.794C116.277 317.916 116.275 318.042 116.297 318.166C116.319 318.289 116.365 318.406 116.432 318.512C116.5 318.617 116.587 318.708 116.69 318.779C116.793 318.851 116.909 318.901 117.031 318.928H117.242C119.794 318.885 121.648 318.725 124.854 318.725C126.824 318.725 132.779 318.935 135.498 318.935C138.217 318.935 138.58 316.245 137.461 316.027C132.466 314.937 128.736 313.424 127.1 311.985C126.812 311.722 126.436 311.575 126.046 311.57Z" fill="#263238"/>
<path d="M126.49 312.465C126.459 312.458 126.432 312.441 126.411 312.418C126.39 312.394 126.377 312.365 126.373 312.334C126.37 312.305 126.374 312.276 126.387 312.25C126.4 312.224 126.421 312.203 126.446 312.188C126.679 312.036 128.78 310.734 129.492 311.12C129.573 311.158 129.641 311.219 129.689 311.295C129.737 311.371 129.762 311.459 129.761 311.549C129.783 311.703 129.764 311.861 129.706 312.006C129.649 312.151 129.555 312.279 129.434 312.378C129.069 312.626 128.631 312.741 128.191 312.705C127.616 312.69 127.046 312.61 126.49 312.465ZM126.933 312.254C127.691 312.507 128.516 312.466 129.245 312.138C129.322 312.069 129.382 311.983 129.418 311.887C129.455 311.791 129.468 311.687 129.456 311.585C129.456 311.461 129.398 311.403 129.354 311.403C129.293 311.374 129.226 311.359 129.158 311.36C128.366 311.513 127.611 311.816 126.933 312.254Z" fill="#004FB3"/>
<path d="M126.446 312.501C126.424 312.485 126.406 312.465 126.393 312.441C126.381 312.417 126.374 312.39 126.373 312.363C126.373 312.268 126.541 310.407 127.289 309.796C127.378 309.718 127.482 309.659 127.595 309.624C127.707 309.589 127.826 309.578 127.944 309.593C128.06 309.594 128.173 309.635 128.263 309.709C128.353 309.783 128.415 309.886 128.438 310C128.569 310.683 127.275 312.116 126.606 312.479H126.533C126.507 312.494 126.476 312.502 126.446 312.501ZM127.486 309.978C127.031 310.561 126.765 311.269 126.722 312.007C127.391 311.505 128.213 310.422 128.133 310C128.133 309.956 128.133 309.847 127.907 309.847H127.835C127.706 309.848 127.583 309.894 127.486 309.978Z" fill="#004FB3"/>
<path opacity="0.2" d="M125.108 300.694L132.146 302.177L128.264 308.56L121.219 307.07L125.108 300.694Z" fill="black"/>
<path d="M98.2077 281.289C98.5858 281.289 98.9784 281.253 99.371 281.216C107.368 280.555 115.686 278.483 122.12 276.549C128.751 274.549 133.339 272.688 133.339 272.688C134.858 281.485 120.579 305.107 120.579 305.107L132.212 305.834C132.212 305.834 164.812 267.868 150.926 252.883C140.551 241.694 112.392 253.843 112.392 253.843L73.859 254.119C73.859 254.119 71.0817 282.736 98.2077 281.289Z" fill="#004FB3"/>
<path opacity="0.2" d="M98.2077 281.289C98.5858 281.289 98.9784 281.253 99.371 281.216C107.368 280.555 115.686 278.483 122.12 276.549C128.751 274.549 133.339 272.688 133.339 272.688C134.858 281.485 120.579 305.107 120.579 305.107L132.212 305.834C132.212 305.834 164.812 267.868 150.926 252.883C140.551 241.694 112.392 253.843 112.392 253.843L73.859 254.119C73.859 254.119 71.0817 282.736 98.2077 281.289Z" fill="black"/>
<path opacity="0.2" d="M98.2078 281.289C98.5858 281.289 98.9784 281.253 99.371 281.216C107.369 280.555 115.686 278.483 122.12 276.549C110.829 274.477 100.054 266.37 100.054 266.37L98.2078 281.289Z" fill="black"/>
<path d="M102.017 258.315C104.388 261.819 114.479 304.736 100.214 314.842C89.7377 322.265 55.4648 309.964 55.4648 309.964L56.1919 299.218C56.1919 299.218 83.8196 303.464 87.1203 300.592C90.4211 297.72 75.4222 271.576 74.6297 264.553C73.8372 257.529 102.017 258.315 102.017 258.315Z" fill="#004FB3"/>
<path opacity="0.2" d="M102.017 258.315C104.388 261.819 114.479 304.736 100.214 314.842C89.7377 322.265 55.4648 309.964 55.4648 309.964L56.1919 299.218C56.1919 299.218 83.8196 303.464 87.1203 300.592C90.4211 297.72 75.4222 271.576 74.6297 264.553C73.8372 257.529 102.017 258.315 102.017 258.315Z" fill="black"/>
<path d="M174.642 256.817C166.019 254.308 145.778 248.092 142.972 244.021C139.395 238.866 132.241 213.95 132.241 213.95L121.997 221.991C121.997 221.991 133.804 246.275 134.96 249.168C136.639 253.371 163.249 260.168 172.352 262.386C173.079 261.281 173.871 260.205 174.642 259.1V256.817Z" fill="#DD857C"/>
<path d="M130.692 208.999C135.272 214.496 138.849 226.128 138.849 226.128C137.15 228.251 135.024 229.995 132.61 231.247C130.196 232.499 127.546 233.232 124.832 233.399C124.832 233.399 122.382 226.739 116.311 226.128L122.498 211.064L130.692 208.999Z" fill="#263238"/>
<path opacity="0.1" d="M138.857 226.128C137.155 228.251 135.029 229.995 132.613 231.247C130.198 232.499 127.548 233.232 124.832 233.399C124.622 232.899 124.379 232.413 124.105 231.945C123.022 230.003 120.659 226.768 116.638 226.201C116.519 226.172 116.397 226.155 116.275 226.15L122.498 211.064L130.67 208.999C131.662 210.228 132.54 211.545 133.295 212.932L133.52 213.34C134.749 215.641 135.841 218.013 136.792 220.443C136.85 220.588 136.908 220.726 136.959 220.864C138.159 223.867 138.857 226.128 138.857 226.128Z" fill="white"/>
<path opacity="0.2" d="M116.682 226.172C120.702 226.739 123.065 229.974 124.149 231.916C124.403 226.434 121.48 218.632 121.48 218.632L116.682 226.172Z" fill="black"/>
<path d="M124.149 233.391L138.857 224.95L139.875 227.641L125.457 235.885L124.149 233.391Z" fill="#004FB3"/>
<path opacity="0.2" d="M136.988 220.864C136.719 221.332 136.306 221.699 135.81 221.911C134.124 222.602 131.942 221.184 130.939 218.756C129.936 216.328 130.488 213.783 132.175 213.092C132.536 212.945 132.929 212.89 133.317 212.932L133.542 213.34C134.77 215.641 135.863 218.013 136.814 220.443C136.879 220.588 136.937 220.726 136.988 220.864Z" fill="black"/>
<path opacity="0.3" d="M136.821 220.443C136.582 220.879 136.203 221.222 135.745 221.417C134.233 222.042 132.27 220.77 131.383 218.582C130.496 216.393 130.976 214.11 132.488 213.492C132.827 213.357 133.194 213.307 133.557 213.347C134.782 215.647 135.872 218.016 136.821 220.443Z" fill="white"/>
<path d="M131.695 307.216L120.07 305.354L121.182 302.192L133.833 304.831L131.695 307.216Z" fill="#004FB3"/>
<path d="M169.799 261.63C168.614 260.03 171.821 256.155 171.821 256.155C172.853 256.155 176.481 256.737 180.116 257.34C183.751 257.944 183.024 259.114 181.658 261.281C180.291 263.447 179.324 265.883 177.15 265.992L169.799 261.63Z" fill="#DD857C"/>
<path d="M57.6749 298.396L56.8097 311.367L53.5598 310.545L55.0284 297.706L57.6749 298.396Z" fill="#004FB3"/>
<path d="M73.9172 254.119L112.167 256.868C112.167 256.868 118.1 220.559 130.692 208.999C128.779 206.929 126.592 205.128 124.192 203.648C118.979 200.319 113.052 198.269 106.896 197.665C102.216 197.21 97.4931 197.492 92.9004 198.501C92.9004 198.501 75.5676 218.632 73.9172 254.119Z" fill="#263238"/>
<g opacity="0.2">
<path opacity="0.2" d="M73.9172 254.119L112.167 256.868C112.167 256.868 118.1 220.559 130.692 208.999C128.779 206.929 126.592 205.128 124.192 203.648C118.979 200.319 113.052 198.269 106.896 197.665C102.216 197.21 97.4931 197.492 92.9004 198.501C92.9004 198.501 75.5676 218.632 73.9172 254.119Z" fill="white"/>
</g>
<path d="M116.442 205.109C116.442 205.109 102.941 233.246 102.963 246.944C106.848 232.601 111.923 218.608 118.136 205.109H116.442Z" fill="#004FB3"/>
<path d="M115.192 217.731L121.466 218.632L120.412 220.297L114.813 219.105L115.192 217.731Z" fill="#004FB3"/>
<path d="M107.557 198.362C106.38 202.587 118.558 208.541 122.825 204.302C120.521 202.565 119.917 200.747 120.208 198.973C120.421 197.895 120.848 196.872 121.466 195.963C121.788 195.444 122.14 194.944 122.52 194.465L117.343 183.734C116.275 188.46 113.883 199.119 107.557 198.362Z" fill="#E4897B"/>
<path opacity="0.2" d="M117.206 188.751C114.872 194.015 118.311 197.614 120.208 198.973C120.421 197.896 120.849 196.872 121.466 195.963L117.206 188.751Z" fill="black"/>
<path d="M100.614 212.809C100.614 212.809 107.717 234.344 112.545 239.23C116.776 243.505 137.89 253.385 137.89 253.385L136.472 258.118C136.472 258.118 109.986 249.256 105.325 244.828C99.7127 239.491 91.5989 219.556 91.5989 219.556L100.614 212.809Z" fill="#E4897B"/>
<path d="M136.676 259.427C135.65 258.7 133.767 254.999 133.767 254.999L137.446 253.305C138.362 253.712 145.793 253.414 146.898 253.996C148.134 254.636 145.647 259.609 145.058 260.467L136.676 259.427Z" fill="#E4897B"/>
<path d="M92.9076 198.501C99.371 195.767 105.558 220.13 105.558 220.13L94.0054 227.146C94.0054 227.146 76.3964 205.502 92.9076 198.501Z" fill="#263238"/>
<path opacity="0.1" d="M92.9076 198.501C99.371 195.767 105.558 220.13 105.558 220.13L94.0054 227.146C94.0054 227.146 76.3964 205.502 92.9076 198.501Z" fill="white"/>
<path opacity="0.2" d="M96.848 210.744C96.848 213.209 95.1104 215.215 92.9583 215.215C90.8063 215.215 89.0759 213.209 89.0759 210.744C89.0759 208.279 90.8136 206.265 92.9583 206.265C95.1031 206.265 96.848 208.272 96.848 210.744Z" fill="black"/>
<path opacity="0.3" d="M96.3246 210.744C96.3246 212.874 94.8196 214.597 92.9657 214.597C91.1117 214.597 89.614 212.874 89.614 210.744C89.614 208.614 91.119 206.883 92.9657 206.883C94.8124 206.883 96.3246 208.606 96.3246 210.744Z" fill="white"/>
<path d="M92.9658 227.161L105.558 219.105L106.438 221.599L94.3327 229.364L92.9658 227.161Z" fill="#004FB3"/>
<path d="M112.167 195.592C112.531 199.809 117.256 205.204 117.256 205.204C120.397 203.168 120.165 198.973 120.165 198.973L123.342 204.062C123.342 204.062 122.397 209.595 119.634 210.751L117.191 206.389L111.52 210.133C111.52 210.133 104.62 202.289 106.896 197.701L112.167 195.592Z" fill="#004FB3"/>
<path opacity="0.1" d="M112.167 195.592C112.531 199.809 117.256 205.204 117.256 205.204C120.397 203.168 120.165 198.973 120.165 198.973L123.342 204.062C123.342 204.062 122.397 209.595 119.634 210.751L117.191 206.389L111.52 210.133C111.52 210.133 104.62 202.289 106.896 197.701L112.167 195.592Z" fill="white"/>
<path d="M137.999 179.968C137.999 179.968 136.501 187.239 130.867 188.853C125.232 190.467 130.946 174.821 130.946 174.821L137.999 179.968Z" fill="#263238"/>
<path d="M115.482 190.787C115.911 192.511 116.894 194.047 118.279 195.159C119.664 196.271 121.376 196.899 123.153 196.945C125.45 197.047 127.701 196.267 129.441 194.764C129.696 194.56 129.939 194.341 130.169 194.109C134.24 189.783 138.224 181.059 134.029 175.708C133.109 174.52 131.9 173.588 130.518 173C129.135 172.412 127.625 172.188 126.132 172.349C124.638 172.511 123.211 173.051 121.985 173.921C120.76 174.79 119.778 175.958 119.132 177.315C116.246 183.073 114.29 186.323 115.482 190.787Z" fill="#E4897B"/>
<path d="M126.679 183.727C126.54 183.886 126.469 184.093 126.482 184.304C126.494 184.515 126.588 184.712 126.744 184.854C127.049 185.028 127.471 184.789 127.755 184.345C128.038 183.902 127.98 183.378 127.689 183.211C127.398 183.044 126.94 183.269 126.679 183.727Z" fill="#263238"/>
<path d="M131.811 186.672C131.673 186.831 131.602 187.038 131.614 187.248C131.627 187.459 131.721 187.656 131.877 187.798C132.175 187.966 132.604 187.733 132.888 187.282C133.171 186.832 133.113 186.323 132.822 186.155C132.531 185.988 132.059 186.235 131.811 186.672Z" fill="#263238"/>
<path d="M130.052 185.959C129.796 187.657 129.777 189.382 129.994 191.085C129.554 191.128 129.111 191.076 128.694 190.93C128.277 190.784 127.897 190.549 127.58 190.241L130.052 185.959Z" fill="#DE5753"/>
<path d="M126.032 181.153C126.076 181.188 126.129 181.211 126.186 181.218C126.242 181.226 126.299 181.219 126.352 181.197C126.698 181.044 127.074 180.972 127.452 180.988C127.83 181.003 128.2 181.104 128.533 181.284C128.566 181.307 128.604 181.322 128.643 181.33C128.682 181.338 128.723 181.338 128.763 181.33C128.802 181.323 128.84 181.307 128.873 181.285C128.907 181.263 128.936 181.234 128.958 181.201C128.98 181.167 128.996 181.13 129.004 181.09C129.012 181.051 129.012 181.01 129.004 180.971C128.996 180.931 128.981 180.894 128.959 180.86C128.936 180.826 128.908 180.798 128.874 180.775C128.455 180.529 127.982 180.387 127.496 180.362C127.01 180.336 126.525 180.428 126.082 180.63C126.045 180.644 126.01 180.666 125.98 180.694C125.951 180.722 125.927 180.756 125.911 180.793C125.895 180.83 125.886 180.87 125.886 180.911C125.885 180.952 125.893 180.992 125.908 181.03C125.944 181.076 125.986 181.117 126.032 181.153Z" fill="#263238"/>
<path d="M125.494 192.168C124.781 191.901 124.143 191.464 123.637 190.895C123.13 190.326 122.769 189.643 122.585 188.904C122.579 188.861 122.589 188.818 122.613 188.783C122.638 188.748 122.674 188.723 122.716 188.715C122.757 188.706 122.799 188.713 122.834 188.735C122.87 188.756 122.895 188.791 122.905 188.831C123.087 189.509 123.424 190.135 123.89 190.66C124.356 191.185 124.937 191.594 125.588 191.855C125.607 191.862 125.625 191.872 125.64 191.886C125.655 191.899 125.668 191.915 125.677 191.934C125.685 191.952 125.69 191.972 125.691 191.992C125.693 192.012 125.69 192.033 125.683 192.052C125.676 192.072 125.666 192.09 125.652 192.106C125.638 192.122 125.621 192.135 125.602 192.144C125.582 192.152 125.562 192.157 125.541 192.158C125.52 192.158 125.499 192.154 125.479 192.146L125.494 192.168Z" fill="#263238"/>
<path d="M135.025 186.141C135.066 186.188 135.119 186.223 135.178 186.243C135.218 186.247 135.259 186.242 135.297 186.23C135.336 186.218 135.372 186.198 135.402 186.171C135.433 186.145 135.458 186.112 135.475 186.076C135.493 186.039 135.503 186 135.505 185.959C135.547 185.473 135.473 184.984 135.288 184.533C135.103 184.082 134.814 183.681 134.443 183.364C134.378 183.316 134.297 183.296 134.217 183.306C134.137 183.317 134.065 183.359 134.014 183.422C133.99 183.453 133.972 183.489 133.962 183.527C133.952 183.566 133.95 183.605 133.955 183.645C133.96 183.684 133.974 183.722 133.994 183.756C134.014 183.79 134.041 183.82 134.073 183.843C134.359 184.102 134.581 184.424 134.721 184.784C134.862 185.144 134.916 185.531 134.88 185.915C134.887 185.961 134.904 186.005 134.929 186.043C134.954 186.082 134.987 186.115 135.025 186.141Z" fill="#263238"/>
<path d="M115.395 180.695C116.668 175.01 118.703 170.851 120.739 169.906C122.775 168.961 127.828 175.94 127.828 175.94C126.424 174.821 124.236 175.453 124.047 177.271C123.778 179.808 120.892 182.484 118.594 182.964C118.594 182.964 119.009 182.019 118.122 181.844C117.235 181.67 115.003 186.563 115.352 189.616C115.352 189.616 114.116 186.381 115.395 180.695Z" fill="#263238"/>
<path d="M114.05 180.499C113.947 182.116 114.488 183.707 115.555 184.927C117.009 186.526 118.848 185.53 119.423 183.582C119.924 181.844 119.815 178.87 117.903 177.998C115.991 177.126 114.203 178.514 114.05 180.499Z" fill="#E4897B"/>
<path d="M127.827 175.962C127.827 175.962 132.044 182.506 136.821 180.383L137.999 179.99C137.999 179.99 141.699 177.613 140.18 175.41C138.66 173.207 136.836 173.301 136.836 173.301C136.836 173.301 133.346 167.645 127.224 167.165C121.102 166.685 117.634 169.572 116.871 175.7C116.856 175.679 125.137 172.967 127.827 175.962Z" fill="#263238"/>
<path d="M120.368 181.895C120.082 183.577 119.924 185.278 119.895 186.984C119.895 186.984 122.804 186.897 123.771 187.471C124.737 188.046 125.457 190.111 125.457 190.111L124.774 190.736C124.774 190.736 123.843 188.242 122.825 188.147C121.807 188.053 120.128 190.161 120.746 191.885C121.364 193.608 123.385 192.415 123.385 192.415L124.839 193.324C124.715 193.391 124.607 193.484 124.522 193.597C124.437 193.709 124.376 193.838 124.345 193.976C124.313 194.113 124.311 194.256 124.338 194.394C124.366 194.533 124.423 194.663 124.505 194.778C125.079 195.651 126.904 194.451 127.551 193.157C128.198 191.863 125.225 191.136 125.225 191.136L125.893 190.489C125.893 190.489 129.216 190.678 129.492 192.582C130.897 192.175 132.137 191.332 133.033 190.176C133.033 190.176 130.707 196.661 128.351 197.185C128.351 197.185 126.81 199.918 123.836 199.366C122.196 199.126 120.704 198.287 119.648 197.01C119.648 197.01 119.059 197.628 117.467 196.101C115.875 194.575 116.827 191.55 116.827 191.55C116.58 191.422 116.365 191.238 116.2 191.014C116.035 190.79 115.924 190.53 115.875 190.256C115.591 189.202 116.158 186.875 118.681 184.97C119.266 184.145 119.597 183.167 119.634 182.157L120.368 181.895Z" fill="#263238"/>
<path d="M129.274 186.097C129.276 186.433 129.178 186.761 128.992 187.04C128.807 187.32 128.543 187.538 128.234 187.667C127.924 187.797 127.583 187.831 127.254 187.767C126.925 187.702 126.623 187.542 126.385 187.305C126.147 187.068 125.985 186.766 125.919 186.438C125.853 186.109 125.886 185.768 126.014 185.458C126.142 185.148 126.36 184.883 126.638 184.697C126.917 184.51 127.245 184.41 127.58 184.41C128.028 184.41 128.458 184.588 128.776 184.904C129.093 185.22 129.272 185.649 129.274 186.097V186.097Z" stroke="#004FB3" stroke-width="0.5" stroke-miterlimit="10"/>
<path d="M134.036 188.322C134.036 188.657 133.937 188.985 133.751 189.263C133.565 189.542 133.3 189.759 132.991 189.887C132.681 190.015 132.341 190.049 132.012 189.983C131.683 189.918 131.382 189.757 131.145 189.52C130.908 189.283 130.746 188.981 130.681 188.652C130.616 188.324 130.649 187.983 130.777 187.674C130.906 187.364 131.123 187.1 131.401 186.913C131.68 186.727 132.007 186.628 132.342 186.628C132.565 186.628 132.785 186.672 132.991 186.757C133.196 186.842 133.383 186.967 133.54 187.124C133.698 187.281 133.822 187.468 133.908 187.674C133.993 187.879 134.036 188.1 134.036 188.322V188.322Z" stroke="#004FB3" stroke-width="0.5" stroke-miterlimit="10"/>
<path d="M129.129 186.781C129.129 186.781 130.518 186.475 130.787 187.653" stroke="#004FB3" stroke-width="0.5" stroke-miterlimit="10"/>
<path d="M126.134 185.225L125.457 184.912C125.457 184.912 120.368 179.096 119.503 179.03" stroke="#004FB3" stroke-width="0.5" stroke-miterlimit="10"/>
<path d="M184.835 259.572C185.109 259.324 185.289 258.989 185.344 258.623C185.4 258.258 185.328 257.884 185.14 257.566C184.994 257.313 184.781 257.105 184.524 256.966C184.268 256.826 183.978 256.759 183.686 256.773C183.437 256.778 183.193 256.839 182.972 256.954C182.751 257.068 182.56 257.232 182.413 257.432C182.265 257.633 182.167 257.865 182.124 258.11C182.081 258.355 182.096 258.607 182.167 258.845L176.197 260.634C176.126 260.396 176 260.177 175.83 259.996C175.66 259.814 175.451 259.674 175.218 259.586C174.986 259.498 174.736 259.465 174.488 259.489C174.241 259.513 174.002 259.594 173.791 259.725C173.516 259.901 173.301 260.156 173.174 260.456C173.047 260.757 173.014 261.088 173.079 261.408C173.144 261.728 173.305 262.02 173.54 262.247C173.775 262.473 174.073 262.623 174.394 262.677C174.181 262.871 174.024 263.119 173.939 263.395C173.854 263.671 173.844 263.965 173.911 264.245C173.978 264.526 174.12 264.784 174.32 264.991C174.521 265.199 174.773 265.349 175.051 265.426C175.33 265.503 175.623 265.504 175.902 265.428C176.181 265.353 176.434 265.204 176.636 264.998C176.837 264.791 176.98 264.535 177.049 264.254C177.117 263.974 177.11 263.68 177.026 263.404L182.995 261.615C183.077 261.892 183.231 262.142 183.442 262.339C183.654 262.536 183.914 262.673 184.196 262.735C184.477 262.797 184.771 262.783 185.045 262.693C185.32 262.603 185.565 262.441 185.756 262.225C185.946 262.008 186.075 261.744 186.129 261.46C186.183 261.177 186.16 260.884 186.062 260.612C185.964 260.341 185.796 260.1 185.573 259.916C185.351 259.732 185.083 259.611 184.798 259.565L184.835 259.572Z" fill="#004FB3"/>
</g>
<defs>
<clipPath id="clip0">
<rect width="336" height="354" fill="white"/>
</clipPath>
</defs>
</svg>
